%TF.GenerationSoftware,KiCad,Pcbnew,10.0.6*%
%TF.CreationDate,2026-09-11T20:25:29+02:00*%
%TF.ProjectId,at86rf233-spi-carrier-board-for-esp32-c6-host,61743836-7266-4323-9333-2d7370692d63,rev?*%
%TF.SameCoordinates,Original*%
%TF.FileFunction,Other,User*%
%FSLAX46Y46*%
G04 Gerber Fmt 4.6, Leading zero omitted, Abs format (unit mm)*
G04 Created by KiCad (PCBNEW 10.0.6) date 2026-09-11 20:25:29*
%MOMM*%
%LPD*%
G01*
G04 APERTURE LIST*
%ADD10C,0.050000*%
G04 APERTURE END LIST*
%TO.C,C6*%
D10*
X16090000Y-16340000D02*
X17910000Y-16340000D01*
X17910000Y-17260000D01*
X16090000Y-17260000D01*
X16090000Y-16340000D01*
%TO.C,B1*%
X21850000Y-12220000D02*
X24150000Y-12220000D01*
X24150000Y-13780000D01*
X21850000Y-13780000D01*
X21850000Y-12220000D01*
%TO.C,C9*%
X20740000Y-6590000D02*
X21660000Y-6590000D01*
X21660000Y-8410000D01*
X20740000Y-8410000D01*
X20740000Y-6590000D01*
%TO.C,C4*%
X14090000Y-16340000D02*
X15910000Y-16340000D01*
X15910000Y-17260000D01*
X14090000Y-17260000D01*
X14090000Y-16340000D01*
%TO.C,TP1*%
X3150000Y-4350000D02*
X5850000Y-4350000D01*
X3150000Y-8650000D02*
X3150000Y-4350000D01*
X5850000Y-4350000D02*
X5850000Y-8650000D01*
X5850000Y-8650000D02*
X3150000Y-8650000D01*
%TO.C,C2*%
X9540000Y-6090000D02*
X10460000Y-6090000D01*
X10460000Y-7910000D01*
X9540000Y-7910000D01*
X9540000Y-6090000D01*
%TO.C,TP2*%
X3150000Y-8850000D02*
X5850000Y-8850000D01*
X3150000Y-13150000D02*
X3150000Y-8850000D01*
X5850000Y-8850000D02*
X5850000Y-13150000D01*
X5850000Y-13150000D02*
X3150000Y-13150000D01*
%TO.C,C11*%
X19090000Y-11840000D02*
X20910000Y-11840000D01*
X20910000Y-12760000D01*
X19090000Y-12760000D01*
X19090000Y-11840000D01*
%TO.C,AE1*%
X27050000Y-7700000D02*
X29350000Y-7700000D01*
X27050000Y-12300000D02*
X27050000Y-7700000D01*
X29350000Y-7700000D02*
X29350000Y-12300000D01*
X29350000Y-12300000D02*
X27050000Y-12300000D01*
%TO.C,TP5*%
X21650000Y-14350000D02*
X24350000Y-14350000D01*
X21650000Y-18650000D02*
X21650000Y-14350000D01*
X24350000Y-14350000D02*
X24350000Y-18650000D01*
X24350000Y-18650000D02*
X21650000Y-18650000D01*
%TO.C,R1*%
X9030000Y-12870000D02*
X9970000Y-12870000D01*
X9970000Y-14730000D01*
X9030000Y-14730000D01*
X9030000Y-12870000D01*
%TO.C,C7*%
X13740000Y-5090000D02*
X14660000Y-5090000D01*
X14660000Y-6910000D01*
X13740000Y-6910000D01*
X13740000Y-5090000D01*
%TO.C,U1*%
X11870000Y-8870000D02*
X12250000Y-8870000D01*
X11870000Y-13130000D02*
X11870000Y-8870000D01*
X12250000Y-8250000D02*
X12870000Y-8250000D01*
X12250000Y-8870000D02*
X12250000Y-8250000D01*
X12250000Y-13130000D02*
X11870000Y-13130000D01*
X12250000Y-13750000D02*
X12250000Y-13130000D01*
X12870000Y-7870000D02*
X17130000Y-7870000D01*
X12870000Y-8250000D02*
X12870000Y-7870000D01*
X12870000Y-13750000D02*
X12250000Y-13750000D01*
X12870000Y-14130000D02*
X12870000Y-13750000D01*
X17130000Y-7870000D02*
X17130000Y-8250000D01*
X17130000Y-8250000D02*
X17750000Y-8250000D01*
X17130000Y-13750000D02*
X17130000Y-14130000D01*
X17130000Y-14130000D02*
X12870000Y-14130000D01*
X17750000Y-8250000D02*
X17750000Y-8870000D01*
X17750000Y-8870000D02*
X18130000Y-8870000D01*
X17750000Y-13130000D02*
X17750000Y-13750000D01*
X17750000Y-13750000D02*
X17130000Y-13750000D01*
X18130000Y-8870000D02*
X18130000Y-13130000D01*
X18130000Y-13130000D02*
X17750000Y-13130000D01*
%TO.C,L2*%
X22530000Y-9070000D02*
X23470000Y-9070000D01*
X23470000Y-10930000D01*
X22530000Y-10930000D01*
X22530000Y-9070000D01*
%TO.C,FB1*%
X11530000Y-4270000D02*
X12470000Y-4270000D01*
X12470000Y-6130000D01*
X11530000Y-6130000D01*
X11530000Y-4270000D01*
%TO.C,C12*%
X19090000Y-13540000D02*
X20910000Y-13540000D01*
X20910000Y-14460000D01*
X19090000Y-14460000D01*
X19090000Y-13540000D01*
%TO.C,C1*%
X12540000Y-14890000D02*
X13460000Y-14890000D01*
X13460000Y-16710000D01*
X12540000Y-16710000D01*
X12540000Y-14890000D01*
%TO.C,TP3*%
X3150000Y-13350000D02*
X5850000Y-13350000D01*
X3150000Y-17650000D02*
X3150000Y-13350000D01*
X5850000Y-13350000D02*
X5850000Y-17650000D01*
X5850000Y-17650000D02*
X3150000Y-17650000D01*
%TO.C,J1*%
X230000Y-230000D02*
X24090000Y-230000D01*
X24090000Y-3770000D01*
X230000Y-3770000D01*
X230000Y-230000D01*
%TO.C,C3*%
X10590000Y-17340000D02*
X12410000Y-17340000D01*
X12410000Y-18260000D01*
X10590000Y-18260000D01*
X10590000Y-17340000D01*
%TO.C,C10*%
X23540000Y-9890000D02*
X24460000Y-9890000D01*
X24460000Y-11710000D01*
X23540000Y-11710000D01*
X23540000Y-9890000D01*
%TO.C,TP4*%
X6232500Y-16150000D02*
X10532500Y-16150000D01*
X6232500Y-18850000D02*
X6232500Y-16150000D01*
X10532500Y-16150000D02*
X10532500Y-18850000D01*
X10532500Y-18850000D02*
X6232500Y-18850000D01*
%TO.C,Y1*%
X14900000Y-4250000D02*
X19100000Y-4250000D01*
X19100000Y-7750000D01*
X14900000Y-7750000D01*
X14900000Y-4250000D01*
%TO.C,C8*%
X19340000Y-5090000D02*
X20260000Y-5090000D01*
X20260000Y-6910000D01*
X19340000Y-6910000D01*
X19340000Y-5090000D01*
%TO.C,L1*%
X20530000Y-9070000D02*
X21470000Y-9070000D01*
X21470000Y-10930000D01*
X20530000Y-10930000D01*
X20530000Y-9070000D01*
%TO.C,C5*%
X9540000Y-8090000D02*
X10460000Y-8090000D01*
X10460000Y-9910000D01*
X9540000Y-9910000D01*
X9540000Y-8090000D01*
%TD*%
M02*
