%TF.GenerationSoftware,KiCad,Pcbnew,10.0.6*%
%TF.CreationDate,2026-09-11T20:25:29+02:00*%
%TF.ProjectId,at86rf233-spi-carrier-board-for-esp32-c6-host,61743836-7266-4323-9333-2d7370692d63,rev?*%
%TF.SameCoordinates,Original*%
%TF.FileFunction,Paste,Top*%
%TF.FilePolarity,Positive*%
%FSLAX46Y46*%
G04 Gerber Fmt 4.6, Leading zero omitted, Abs format (unit mm)*
G04 Created by KiCad (PCBNEW 10.0.6) date 2026-09-11 20:25:29*
%MOMM*%
%LPD*%
G01*
G04 APERTURE LIST*
G04 Aperture macros list*
%AMRoundRect*
0 Rectangle with rounded corners*
0 $1 Rounding radius*
0 $2 $3 $4 $5 $6 $7 $8 $9 X,Y pos of 4 corners*
0 Add a 4 corners polygon primitive as box body*
4,1,4,$2,$3,$4,$5,$6,$7,$8,$9,$2,$3,0*
0 Add four circle primitives for the rounded corners*
1,1,$1+$1,$2,$3*
1,1,$1+$1,$4,$5*
1,1,$1+$1,$6,$7*
1,1,$1+$1,$8,$9*
0 Add four rect primitives between the rounded corners*
20,1,$1+$1,$2,$3,$4,$5,0*
20,1,$1+$1,$4,$5,$6,$7,0*
20,1,$1+$1,$6,$7,$8,$9,0*
20,1,$1+$1,$8,$9,$2,$3,0*%
G04 Aperture macros list end*
%ADD10RoundRect,0.140000X-0.140000X-0.170000X0.140000X-0.170000X0.140000X0.170000X-0.140000X0.170000X0*%
%ADD11RoundRect,0.100000X-0.150000X-0.150000X0.150000X-0.150000X0.150000X0.150000X-0.150000X0.150000X0*%
%ADD12RoundRect,0.250000X-1.450000X-0.650000X1.450000X-0.650000X1.450000X0.650000X-1.450000X0.650000X0*%
%ADD13RoundRect,0.250000X-0.350000X-0.650000X0.350000X-0.650000X0.350000X0.650000X-0.350000X0.650000X0*%
%ADD14RoundRect,0.135000X-0.135000X-0.185000X0.135000X-0.185000X0.135000X0.185000X-0.135000X0.185000X0*%
%ADD15RoundRect,0.222500X-0.222500X-0.222500X0.222500X-0.222500X0.222500X0.222500X-0.222500X0.222500X0*%
%ADD16RoundRect,0.062500X-0.375000X-0.062500X0.375000X-0.062500X0.375000X0.062500X-0.375000X0.062500X0*%
%ADD17RoundRect,0.062500X-0.062500X-0.375000X0.062500X-0.375000X0.062500X0.375000X-0.062500X0.375000X0*%
%ADD18RoundRect,0.147500X-0.147500X-0.172500X0.147500X-0.172500X0.147500X0.172500X-0.147500X0.172500X0*%
%ADD19RoundRect,0.250000X-0.450000X-0.350000X0.450000X-0.350000X0.450000X0.350000X-0.450000X0.350000X0*%
G04 APERTURE END LIST*
D10*
%TO.C,C6*%
X16520000Y-16800000D03*
X17480000Y-16800000D03*
%TD*%
D11*
%TO.C,B1*%
X23650000Y-12450000D03*
X23000000Y-12450000D03*
X22350000Y-12450000D03*
X22350000Y-13550000D03*
X23000000Y-13550000D03*
X23650000Y-13550000D03*
%TD*%
D10*
%TO.C,C9*%
X21200000Y-7980000D03*
X21200000Y-7020000D03*
%TD*%
%TO.C,C4*%
X14520000Y-16800000D03*
X15480000Y-16800000D03*
%TD*%
D12*
%TO.C,TP1*%
X4500000Y-6500000D03*
%TD*%
D10*
%TO.C,C2*%
X10000000Y-7480000D03*
X10000000Y-6520000D03*
%TD*%
D12*
%TO.C,TP2*%
X4500000Y-11000000D03*
%TD*%
D10*
%TO.C,C11*%
X19520000Y-12300000D03*
X20480000Y-12300000D03*
%TD*%
D13*
%TO.C,AE1*%
X28200000Y-11450000D03*
X28200000Y-8550000D03*
%TD*%
D12*
%TO.C,TP5*%
X23000000Y-16500000D03*
%TD*%
D14*
%TO.C,R1*%
X9500000Y-14310000D03*
X9500000Y-13290000D03*
%TD*%
D10*
%TO.C,C7*%
X14200000Y-6480000D03*
X14200000Y-5520000D03*
%TD*%
D15*
%TO.C,U1*%
X13900000Y-9900000D03*
X13900000Y-11000000D03*
X13900000Y-12100000D03*
X15000000Y-9900000D03*
X15000000Y-11000000D03*
X15000000Y-12100000D03*
X16100000Y-9900000D03*
X16100000Y-11000000D03*
X16100000Y-12100000D03*
D16*
X12562500Y-9250000D03*
X12562500Y-9750000D03*
X12562500Y-10250000D03*
X12562500Y-10750000D03*
X12562500Y-11250000D03*
X12562500Y-11750000D03*
X12562500Y-12250000D03*
X12562500Y-12750000D03*
D17*
X13250000Y-13437500D03*
X13750000Y-13437500D03*
X14250000Y-13437500D03*
X14750000Y-13437500D03*
X15250000Y-13437500D03*
X15750000Y-13437500D03*
X16250000Y-13437500D03*
X16750000Y-13437500D03*
D16*
X17437500Y-12750000D03*
X17437500Y-12250000D03*
X17437500Y-11750000D03*
X17437500Y-11250000D03*
X17437500Y-10750000D03*
X17437500Y-10250000D03*
X17437500Y-9750000D03*
X17437500Y-9250000D03*
D17*
X16750000Y-8562500D03*
X16250000Y-8562500D03*
X15750000Y-8562500D03*
X15250000Y-8562500D03*
X14750000Y-8562500D03*
X14250000Y-8562500D03*
X13750000Y-8562500D03*
X13250000Y-8562500D03*
%TD*%
D18*
%TO.C,L2*%
X23000000Y-10485000D03*
X23000000Y-9515000D03*
%TD*%
%TO.C,FB1*%
X12000000Y-5685000D03*
X12000000Y-4715000D03*
%TD*%
D10*
%TO.C,C12*%
X19520000Y-14000000D03*
X20480000Y-14000000D03*
%TD*%
%TO.C,C1*%
X13000000Y-16280000D03*
X13000000Y-15320000D03*
%TD*%
D12*
%TO.C,TP3*%
X4500000Y-15500000D03*
%TD*%
D10*
%TO.C,C3*%
X11020000Y-17800000D03*
X11980000Y-17800000D03*
%TD*%
%TO.C,C10*%
X24000000Y-11280000D03*
X24000000Y-10320000D03*
%TD*%
D12*
%TO.C,TP4*%
X8382500Y-17500000D03*
%TD*%
D19*
%TO.C,Y1*%
X15900000Y-6850000D03*
X18100000Y-6850000D03*
X18100000Y-5150000D03*
X15900000Y-5150000D03*
%TD*%
D10*
%TO.C,C8*%
X19800000Y-6480000D03*
X19800000Y-5520000D03*
%TD*%
D18*
%TO.C,L1*%
X21000000Y-10485000D03*
X21000000Y-9515000D03*
%TD*%
D10*
%TO.C,C5*%
X10000000Y-9480000D03*
X10000000Y-8520000D03*
%TD*%
M02*
