%TF.GenerationSoftware,KiCad,Pcbnew,10.0.6*%
%TF.CreationDate,2026-09-11T20:25:29+02:00*%
%TF.ProjectId,at86rf233-spi-carrier-board-for-esp32-c6-host,61743836-7266-4323-9333-2d7370692d63,rev?*%
%TF.SameCoordinates,Original*%
%TF.FileFunction,Legend,Top*%
%TF.FilePolarity,Positive*%
%FSLAX46Y46*%
G04 Gerber Fmt 4.6, Leading zero omitted, Abs format (unit mm)*
G04 Created by KiCad (PCBNEW 10.0.6) date 2026-09-11 20:25:29*
%MOMM*%
%LPD*%
G01*
G04 APERTURE LIST*
%ADD10C,0.150000*%
%ADD11C,0.158750*%
%ADD12C,0.120000*%
%ADD13C,0.100000*%
G04 APERTURE END LIST*
D10*
X16833333Y-15999580D02*
X16785714Y-16047200D01*
X16785714Y-16047200D02*
X16642857Y-16094819D01*
X16642857Y-16094819D02*
X16547619Y-16094819D01*
X16547619Y-16094819D02*
X16404762Y-16047200D01*
X16404762Y-16047200D02*
X16309524Y-15951961D01*
X16309524Y-15951961D02*
X16261905Y-15856723D01*
X16261905Y-15856723D02*
X16214286Y-15666247D01*
X16214286Y-15666247D02*
X16214286Y-15523390D01*
X16214286Y-15523390D02*
X16261905Y-15332914D01*
X16261905Y-15332914D02*
X16309524Y-15237676D01*
X16309524Y-15237676D02*
X16404762Y-15142438D01*
X16404762Y-15142438D02*
X16547619Y-15094819D01*
X16547619Y-15094819D02*
X16642857Y-15094819D01*
X16642857Y-15094819D02*
X16785714Y-15142438D01*
X16785714Y-15142438D02*
X16833333Y-15190057D01*
X17690476Y-15094819D02*
X17500000Y-15094819D01*
X17500000Y-15094819D02*
X17404762Y-15142438D01*
X17404762Y-15142438D02*
X17357143Y-15190057D01*
X17357143Y-15190057D02*
X17261905Y-15332914D01*
X17261905Y-15332914D02*
X17214286Y-15523390D01*
X17214286Y-15523390D02*
X17214286Y-15904342D01*
X17214286Y-15904342D02*
X17261905Y-15999580D01*
X17261905Y-15999580D02*
X17309524Y-16047200D01*
X17309524Y-16047200D02*
X17404762Y-16094819D01*
X17404762Y-16094819D02*
X17595238Y-16094819D01*
X17595238Y-16094819D02*
X17690476Y-16047200D01*
X17690476Y-16047200D02*
X17738095Y-15999580D01*
X17738095Y-15999580D02*
X17785714Y-15904342D01*
X17785714Y-15904342D02*
X17785714Y-15666247D01*
X17785714Y-15666247D02*
X17738095Y-15571009D01*
X17738095Y-15571009D02*
X17690476Y-15523390D01*
X17690476Y-15523390D02*
X17595238Y-15475771D01*
X17595238Y-15475771D02*
X17404762Y-15475771D01*
X17404762Y-15475771D02*
X17309524Y-15523390D01*
X17309524Y-15523390D02*
X17261905Y-15571009D01*
X17261905Y-15571009D02*
X17214286Y-15666247D01*
D11*
X22485952Y-12914033D02*
X22667380Y-12974509D01*
X22667380Y-12974509D02*
X22727857Y-13034985D01*
X22727857Y-13034985D02*
X22788333Y-13155937D01*
X22788333Y-13155937D02*
X22788333Y-13337366D01*
X22788333Y-13337366D02*
X22727857Y-13458318D01*
X22727857Y-13458318D02*
X22667380Y-13518795D01*
X22667380Y-13518795D02*
X22546428Y-13579271D01*
X22546428Y-13579271D02*
X22062618Y-13579271D01*
X22062618Y-13579271D02*
X22062618Y-12309271D01*
X22062618Y-12309271D02*
X22485952Y-12309271D01*
X22485952Y-12309271D02*
X22606904Y-12369747D01*
X22606904Y-12369747D02*
X22667380Y-12430223D01*
X22667380Y-12430223D02*
X22727857Y-12551175D01*
X22727857Y-12551175D02*
X22727857Y-12672128D01*
X22727857Y-12672128D02*
X22667380Y-12793080D01*
X22667380Y-12793080D02*
X22606904Y-12853556D01*
X22606904Y-12853556D02*
X22485952Y-12914033D01*
X22485952Y-12914033D02*
X22062618Y-12914033D01*
X23997857Y-13579271D02*
X23272142Y-13579271D01*
X23634999Y-13579271D02*
X23634999Y-12309271D01*
X23634999Y-12309271D02*
X23514047Y-12490699D01*
X23514047Y-12490699D02*
X23393095Y-12611652D01*
X23393095Y-12611652D02*
X23272142Y-12672128D01*
D10*
X19873333Y-7859580D02*
X19825714Y-7907200D01*
X19825714Y-7907200D02*
X19682857Y-7954819D01*
X19682857Y-7954819D02*
X19587619Y-7954819D01*
X19587619Y-7954819D02*
X19444762Y-7907200D01*
X19444762Y-7907200D02*
X19349524Y-7811961D01*
X19349524Y-7811961D02*
X19301905Y-7716723D01*
X19301905Y-7716723D02*
X19254286Y-7526247D01*
X19254286Y-7526247D02*
X19254286Y-7383390D01*
X19254286Y-7383390D02*
X19301905Y-7192914D01*
X19301905Y-7192914D02*
X19349524Y-7097676D01*
X19349524Y-7097676D02*
X19444762Y-7002438D01*
X19444762Y-7002438D02*
X19587619Y-6954819D01*
X19587619Y-6954819D02*
X19682857Y-6954819D01*
X19682857Y-6954819D02*
X19825714Y-7002438D01*
X19825714Y-7002438D02*
X19873333Y-7050057D01*
X20349524Y-7954819D02*
X20540000Y-7954819D01*
X20540000Y-7954819D02*
X20635238Y-7907200D01*
X20635238Y-7907200D02*
X20682857Y-7859580D01*
X20682857Y-7859580D02*
X20778095Y-7716723D01*
X20778095Y-7716723D02*
X20825714Y-7526247D01*
X20825714Y-7526247D02*
X20825714Y-7145295D01*
X20825714Y-7145295D02*
X20778095Y-7050057D01*
X20778095Y-7050057D02*
X20730476Y-7002438D01*
X20730476Y-7002438D02*
X20635238Y-6954819D01*
X20635238Y-6954819D02*
X20444762Y-6954819D01*
X20444762Y-6954819D02*
X20349524Y-7002438D01*
X20349524Y-7002438D02*
X20301905Y-7050057D01*
X20301905Y-7050057D02*
X20254286Y-7145295D01*
X20254286Y-7145295D02*
X20254286Y-7383390D01*
X20254286Y-7383390D02*
X20301905Y-7478628D01*
X20301905Y-7478628D02*
X20349524Y-7526247D01*
X20349524Y-7526247D02*
X20444762Y-7573866D01*
X20444762Y-7573866D02*
X20635238Y-7573866D01*
X20635238Y-7573866D02*
X20730476Y-7526247D01*
X20730476Y-7526247D02*
X20778095Y-7478628D01*
X20778095Y-7478628D02*
X20825714Y-7383390D01*
X14833333Y-15999580D02*
X14785714Y-16047200D01*
X14785714Y-16047200D02*
X14642857Y-16094819D01*
X14642857Y-16094819D02*
X14547619Y-16094819D01*
X14547619Y-16094819D02*
X14404762Y-16047200D01*
X14404762Y-16047200D02*
X14309524Y-15951961D01*
X14309524Y-15951961D02*
X14261905Y-15856723D01*
X14261905Y-15856723D02*
X14214286Y-15666247D01*
X14214286Y-15666247D02*
X14214286Y-15523390D01*
X14214286Y-15523390D02*
X14261905Y-15332914D01*
X14261905Y-15332914D02*
X14309524Y-15237676D01*
X14309524Y-15237676D02*
X14404762Y-15142438D01*
X14404762Y-15142438D02*
X14547619Y-15094819D01*
X14547619Y-15094819D02*
X14642857Y-15094819D01*
X14642857Y-15094819D02*
X14785714Y-15142438D01*
X14785714Y-15142438D02*
X14833333Y-15190057D01*
X15690476Y-15428152D02*
X15690476Y-16094819D01*
X15452381Y-15047200D02*
X15214286Y-15761485D01*
X15214286Y-15761485D02*
X15833333Y-15761485D01*
X988095Y-5954819D02*
X1559523Y-5954819D01*
X1273809Y-6954819D02*
X1273809Y-5954819D01*
X1892857Y-6954819D02*
X1892857Y-5954819D01*
X1892857Y-5954819D02*
X2273809Y-5954819D01*
X2273809Y-5954819D02*
X2369047Y-6002438D01*
X2369047Y-6002438D02*
X2416666Y-6050057D01*
X2416666Y-6050057D02*
X2464285Y-6145295D01*
X2464285Y-6145295D02*
X2464285Y-6288152D01*
X2464285Y-6288152D02*
X2416666Y-6383390D01*
X2416666Y-6383390D02*
X2369047Y-6431009D01*
X2369047Y-6431009D02*
X2273809Y-6478628D01*
X2273809Y-6478628D02*
X1892857Y-6478628D01*
X3416666Y-6954819D02*
X2845238Y-6954819D01*
X3130952Y-6954819D02*
X3130952Y-5954819D01*
X3130952Y-5954819D02*
X3035714Y-6097676D01*
X3035714Y-6097676D02*
X2940476Y-6192914D01*
X2940476Y-6192914D02*
X2845238Y-6240533D01*
X8673333Y-7359580D02*
X8625714Y-7407200D01*
X8625714Y-7407200D02*
X8482857Y-7454819D01*
X8482857Y-7454819D02*
X8387619Y-7454819D01*
X8387619Y-7454819D02*
X8244762Y-7407200D01*
X8244762Y-7407200D02*
X8149524Y-7311961D01*
X8149524Y-7311961D02*
X8101905Y-7216723D01*
X8101905Y-7216723D02*
X8054286Y-7026247D01*
X8054286Y-7026247D02*
X8054286Y-6883390D01*
X8054286Y-6883390D02*
X8101905Y-6692914D01*
X8101905Y-6692914D02*
X8149524Y-6597676D01*
X8149524Y-6597676D02*
X8244762Y-6502438D01*
X8244762Y-6502438D02*
X8387619Y-6454819D01*
X8387619Y-6454819D02*
X8482857Y-6454819D01*
X8482857Y-6454819D02*
X8625714Y-6502438D01*
X8625714Y-6502438D02*
X8673333Y-6550057D01*
X9054286Y-6550057D02*
X9101905Y-6502438D01*
X9101905Y-6502438D02*
X9197143Y-6454819D01*
X9197143Y-6454819D02*
X9435238Y-6454819D01*
X9435238Y-6454819D02*
X9530476Y-6502438D01*
X9530476Y-6502438D02*
X9578095Y-6550057D01*
X9578095Y-6550057D02*
X9625714Y-6645295D01*
X9625714Y-6645295D02*
X9625714Y-6740533D01*
X9625714Y-6740533D02*
X9578095Y-6883390D01*
X9578095Y-6883390D02*
X9006667Y-7454819D01*
X9006667Y-7454819D02*
X9625714Y-7454819D01*
X988095Y-10454819D02*
X1559523Y-10454819D01*
X1273809Y-11454819D02*
X1273809Y-10454819D01*
X1892857Y-11454819D02*
X1892857Y-10454819D01*
X1892857Y-10454819D02*
X2273809Y-10454819D01*
X2273809Y-10454819D02*
X2369047Y-10502438D01*
X2369047Y-10502438D02*
X2416666Y-10550057D01*
X2416666Y-10550057D02*
X2464285Y-10645295D01*
X2464285Y-10645295D02*
X2464285Y-10788152D01*
X2464285Y-10788152D02*
X2416666Y-10883390D01*
X2416666Y-10883390D02*
X2369047Y-10931009D01*
X2369047Y-10931009D02*
X2273809Y-10978628D01*
X2273809Y-10978628D02*
X1892857Y-10978628D01*
X2845238Y-10550057D02*
X2892857Y-10502438D01*
X2892857Y-10502438D02*
X2988095Y-10454819D01*
X2988095Y-10454819D02*
X3226190Y-10454819D01*
X3226190Y-10454819D02*
X3321428Y-10502438D01*
X3321428Y-10502438D02*
X3369047Y-10550057D01*
X3369047Y-10550057D02*
X3416666Y-10645295D01*
X3416666Y-10645295D02*
X3416666Y-10740533D01*
X3416666Y-10740533D02*
X3369047Y-10883390D01*
X3369047Y-10883390D02*
X2797619Y-11454819D01*
X2797619Y-11454819D02*
X3416666Y-11454819D01*
X19357142Y-11499580D02*
X19309523Y-11547200D01*
X19309523Y-11547200D02*
X19166666Y-11594819D01*
X19166666Y-11594819D02*
X19071428Y-11594819D01*
X19071428Y-11594819D02*
X18928571Y-11547200D01*
X18928571Y-11547200D02*
X18833333Y-11451961D01*
X18833333Y-11451961D02*
X18785714Y-11356723D01*
X18785714Y-11356723D02*
X18738095Y-11166247D01*
X18738095Y-11166247D02*
X18738095Y-11023390D01*
X18738095Y-11023390D02*
X18785714Y-10832914D01*
X18785714Y-10832914D02*
X18833333Y-10737676D01*
X18833333Y-10737676D02*
X18928571Y-10642438D01*
X18928571Y-10642438D02*
X19071428Y-10594819D01*
X19071428Y-10594819D02*
X19166666Y-10594819D01*
X19166666Y-10594819D02*
X19309523Y-10642438D01*
X19309523Y-10642438D02*
X19357142Y-10690057D01*
X20309523Y-11594819D02*
X19738095Y-11594819D01*
X20023809Y-11594819D02*
X20023809Y-10594819D01*
X20023809Y-10594819D02*
X19928571Y-10737676D01*
X19928571Y-10737676D02*
X19833333Y-10832914D01*
X19833333Y-10832914D02*
X19738095Y-10880533D01*
X21261904Y-11594819D02*
X20690476Y-11594819D01*
X20976190Y-11594819D02*
X20976190Y-10594819D01*
X20976190Y-10594819D02*
X20880952Y-10737676D01*
X20880952Y-10737676D02*
X20785714Y-10832914D01*
X20785714Y-10832914D02*
X20690476Y-10880533D01*
X25183333Y-10169104D02*
X25659523Y-10169104D01*
X25088095Y-10454819D02*
X25421428Y-9454819D01*
X25421428Y-9454819D02*
X25754761Y-10454819D01*
X26088095Y-9931009D02*
X26421428Y-9931009D01*
X26564285Y-10454819D02*
X26088095Y-10454819D01*
X26088095Y-10454819D02*
X26088095Y-9454819D01*
X26088095Y-9454819D02*
X26564285Y-9454819D01*
X27516666Y-10454819D02*
X26945238Y-10454819D01*
X27230952Y-10454819D02*
X27230952Y-9454819D01*
X27230952Y-9454819D02*
X27135714Y-9597676D01*
X27135714Y-9597676D02*
X27040476Y-9692914D01*
X27040476Y-9692914D02*
X26945238Y-9740533D01*
X19488095Y-15954819D02*
X20059523Y-15954819D01*
X19773809Y-16954819D02*
X19773809Y-15954819D01*
X20392857Y-16954819D02*
X20392857Y-15954819D01*
X20392857Y-15954819D02*
X20773809Y-15954819D01*
X20773809Y-15954819D02*
X20869047Y-16002438D01*
X20869047Y-16002438D02*
X20916666Y-16050057D01*
X20916666Y-16050057D02*
X20964285Y-16145295D01*
X20964285Y-16145295D02*
X20964285Y-16288152D01*
X20964285Y-16288152D02*
X20916666Y-16383390D01*
X20916666Y-16383390D02*
X20869047Y-16431009D01*
X20869047Y-16431009D02*
X20773809Y-16478628D01*
X20773809Y-16478628D02*
X20392857Y-16478628D01*
X21869047Y-15954819D02*
X21392857Y-15954819D01*
X21392857Y-15954819D02*
X21345238Y-16431009D01*
X21345238Y-16431009D02*
X21392857Y-16383390D01*
X21392857Y-16383390D02*
X21488095Y-16335771D01*
X21488095Y-16335771D02*
X21726190Y-16335771D01*
X21726190Y-16335771D02*
X21821428Y-16383390D01*
X21821428Y-16383390D02*
X21869047Y-16431009D01*
X21869047Y-16431009D02*
X21916666Y-16526247D01*
X21916666Y-16526247D02*
X21916666Y-16764342D01*
X21916666Y-16764342D02*
X21869047Y-16859580D01*
X21869047Y-16859580D02*
X21821428Y-16907200D01*
X21821428Y-16907200D02*
X21726190Y-16954819D01*
X21726190Y-16954819D02*
X21488095Y-16954819D01*
X21488095Y-16954819D02*
X21392857Y-16907200D01*
X21392857Y-16907200D02*
X21345238Y-16859580D01*
X8163333Y-14254819D02*
X7830000Y-13778628D01*
X7591905Y-14254819D02*
X7591905Y-13254819D01*
X7591905Y-13254819D02*
X7972857Y-13254819D01*
X7972857Y-13254819D02*
X8068095Y-13302438D01*
X8068095Y-13302438D02*
X8115714Y-13350057D01*
X8115714Y-13350057D02*
X8163333Y-13445295D01*
X8163333Y-13445295D02*
X8163333Y-13588152D01*
X8163333Y-13588152D02*
X8115714Y-13683390D01*
X8115714Y-13683390D02*
X8068095Y-13731009D01*
X8068095Y-13731009D02*
X7972857Y-13778628D01*
X7972857Y-13778628D02*
X7591905Y-13778628D01*
X9115714Y-14254819D02*
X8544286Y-14254819D01*
X8830000Y-14254819D02*
X8830000Y-13254819D01*
X8830000Y-13254819D02*
X8734762Y-13397676D01*
X8734762Y-13397676D02*
X8639524Y-13492914D01*
X8639524Y-13492914D02*
X8544286Y-13540533D01*
X12873333Y-6359580D02*
X12825714Y-6407200D01*
X12825714Y-6407200D02*
X12682857Y-6454819D01*
X12682857Y-6454819D02*
X12587619Y-6454819D01*
X12587619Y-6454819D02*
X12444762Y-6407200D01*
X12444762Y-6407200D02*
X12349524Y-6311961D01*
X12349524Y-6311961D02*
X12301905Y-6216723D01*
X12301905Y-6216723D02*
X12254286Y-6026247D01*
X12254286Y-6026247D02*
X12254286Y-5883390D01*
X12254286Y-5883390D02*
X12301905Y-5692914D01*
X12301905Y-5692914D02*
X12349524Y-5597676D01*
X12349524Y-5597676D02*
X12444762Y-5502438D01*
X12444762Y-5502438D02*
X12587619Y-5454819D01*
X12587619Y-5454819D02*
X12682857Y-5454819D01*
X12682857Y-5454819D02*
X12825714Y-5502438D01*
X12825714Y-5502438D02*
X12873333Y-5550057D01*
X13206667Y-5454819D02*
X13873333Y-5454819D01*
X13873333Y-5454819D02*
X13444762Y-6454819D01*
X14238095Y-6624819D02*
X14238095Y-7434342D01*
X14238095Y-7434342D02*
X14285714Y-7529580D01*
X14285714Y-7529580D02*
X14333333Y-7577200D01*
X14333333Y-7577200D02*
X14428571Y-7624819D01*
X14428571Y-7624819D02*
X14619047Y-7624819D01*
X14619047Y-7624819D02*
X14714285Y-7577200D01*
X14714285Y-7577200D02*
X14761904Y-7529580D01*
X14761904Y-7529580D02*
X14809523Y-7434342D01*
X14809523Y-7434342D02*
X14809523Y-6624819D01*
X15809523Y-7624819D02*
X15238095Y-7624819D01*
X15523809Y-7624819D02*
X15523809Y-6624819D01*
X15523809Y-6624819D02*
X15428571Y-6767676D01*
X15428571Y-6767676D02*
X15333333Y-6862914D01*
X15333333Y-6862914D02*
X15238095Y-6910533D01*
X21663333Y-10454819D02*
X21187143Y-10454819D01*
X21187143Y-10454819D02*
X21187143Y-9454819D01*
X21949048Y-9550057D02*
X21996667Y-9502438D01*
X21996667Y-9502438D02*
X22091905Y-9454819D01*
X22091905Y-9454819D02*
X22330000Y-9454819D01*
X22330000Y-9454819D02*
X22425238Y-9502438D01*
X22425238Y-9502438D02*
X22472857Y-9550057D01*
X22472857Y-9550057D02*
X22520476Y-9645295D01*
X22520476Y-9645295D02*
X22520476Y-9740533D01*
X22520476Y-9740533D02*
X22472857Y-9883390D01*
X22472857Y-9883390D02*
X21901429Y-10454819D01*
X21901429Y-10454819D02*
X22520476Y-10454819D01*
X9996666Y-5131009D02*
X9663333Y-5131009D01*
X9663333Y-5654819D02*
X9663333Y-4654819D01*
X9663333Y-4654819D02*
X10139523Y-4654819D01*
X10853809Y-5131009D02*
X10996666Y-5178628D01*
X10996666Y-5178628D02*
X11044285Y-5226247D01*
X11044285Y-5226247D02*
X11091904Y-5321485D01*
X11091904Y-5321485D02*
X11091904Y-5464342D01*
X11091904Y-5464342D02*
X11044285Y-5559580D01*
X11044285Y-5559580D02*
X10996666Y-5607200D01*
X10996666Y-5607200D02*
X10901428Y-5654819D01*
X10901428Y-5654819D02*
X10520476Y-5654819D01*
X10520476Y-5654819D02*
X10520476Y-4654819D01*
X10520476Y-4654819D02*
X10853809Y-4654819D01*
X10853809Y-4654819D02*
X10949047Y-4702438D01*
X10949047Y-4702438D02*
X10996666Y-4750057D01*
X10996666Y-4750057D02*
X11044285Y-4845295D01*
X11044285Y-4845295D02*
X11044285Y-4940533D01*
X11044285Y-4940533D02*
X10996666Y-5035771D01*
X10996666Y-5035771D02*
X10949047Y-5083390D01*
X10949047Y-5083390D02*
X10853809Y-5131009D01*
X10853809Y-5131009D02*
X10520476Y-5131009D01*
X12044285Y-5654819D02*
X11472857Y-5654819D01*
X11758571Y-5654819D02*
X11758571Y-4654819D01*
X11758571Y-4654819D02*
X11663333Y-4797676D01*
X11663333Y-4797676D02*
X11568095Y-4892914D01*
X11568095Y-4892914D02*
X11472857Y-4940533D01*
X19357142Y-13199580D02*
X19309523Y-13247200D01*
X19309523Y-13247200D02*
X19166666Y-13294819D01*
X19166666Y-13294819D02*
X19071428Y-13294819D01*
X19071428Y-13294819D02*
X18928571Y-13247200D01*
X18928571Y-13247200D02*
X18833333Y-13151961D01*
X18833333Y-13151961D02*
X18785714Y-13056723D01*
X18785714Y-13056723D02*
X18738095Y-12866247D01*
X18738095Y-12866247D02*
X18738095Y-12723390D01*
X18738095Y-12723390D02*
X18785714Y-12532914D01*
X18785714Y-12532914D02*
X18833333Y-12437676D01*
X18833333Y-12437676D02*
X18928571Y-12342438D01*
X18928571Y-12342438D02*
X19071428Y-12294819D01*
X19071428Y-12294819D02*
X19166666Y-12294819D01*
X19166666Y-12294819D02*
X19309523Y-12342438D01*
X19309523Y-12342438D02*
X19357142Y-12390057D01*
X20309523Y-13294819D02*
X19738095Y-13294819D01*
X20023809Y-13294819D02*
X20023809Y-12294819D01*
X20023809Y-12294819D02*
X19928571Y-12437676D01*
X19928571Y-12437676D02*
X19833333Y-12532914D01*
X19833333Y-12532914D02*
X19738095Y-12580533D01*
X20690476Y-12390057D02*
X20738095Y-12342438D01*
X20738095Y-12342438D02*
X20833333Y-12294819D01*
X20833333Y-12294819D02*
X21071428Y-12294819D01*
X21071428Y-12294819D02*
X21166666Y-12342438D01*
X21166666Y-12342438D02*
X21214285Y-12390057D01*
X21214285Y-12390057D02*
X21261904Y-12485295D01*
X21261904Y-12485295D02*
X21261904Y-12580533D01*
X21261904Y-12580533D02*
X21214285Y-12723390D01*
X21214285Y-12723390D02*
X20642857Y-13294819D01*
X20642857Y-13294819D02*
X21261904Y-13294819D01*
X11673333Y-16159580D02*
X11625714Y-16207200D01*
X11625714Y-16207200D02*
X11482857Y-16254819D01*
X11482857Y-16254819D02*
X11387619Y-16254819D01*
X11387619Y-16254819D02*
X11244762Y-16207200D01*
X11244762Y-16207200D02*
X11149524Y-16111961D01*
X11149524Y-16111961D02*
X11101905Y-16016723D01*
X11101905Y-16016723D02*
X11054286Y-15826247D01*
X11054286Y-15826247D02*
X11054286Y-15683390D01*
X11054286Y-15683390D02*
X11101905Y-15492914D01*
X11101905Y-15492914D02*
X11149524Y-15397676D01*
X11149524Y-15397676D02*
X11244762Y-15302438D01*
X11244762Y-15302438D02*
X11387619Y-15254819D01*
X11387619Y-15254819D02*
X11482857Y-15254819D01*
X11482857Y-15254819D02*
X11625714Y-15302438D01*
X11625714Y-15302438D02*
X11673333Y-15350057D01*
X12625714Y-16254819D02*
X12054286Y-16254819D01*
X12340000Y-16254819D02*
X12340000Y-15254819D01*
X12340000Y-15254819D02*
X12244762Y-15397676D01*
X12244762Y-15397676D02*
X12149524Y-15492914D01*
X12149524Y-15492914D02*
X12054286Y-15540533D01*
X988095Y-14954819D02*
X1559523Y-14954819D01*
X1273809Y-15954819D02*
X1273809Y-14954819D01*
X1892857Y-15954819D02*
X1892857Y-14954819D01*
X1892857Y-14954819D02*
X2273809Y-14954819D01*
X2273809Y-14954819D02*
X2369047Y-15002438D01*
X2369047Y-15002438D02*
X2416666Y-15050057D01*
X2416666Y-15050057D02*
X2464285Y-15145295D01*
X2464285Y-15145295D02*
X2464285Y-15288152D01*
X2464285Y-15288152D02*
X2416666Y-15383390D01*
X2416666Y-15383390D02*
X2369047Y-15431009D01*
X2369047Y-15431009D02*
X2273809Y-15478628D01*
X2273809Y-15478628D02*
X1892857Y-15478628D01*
X2797619Y-14954819D02*
X3416666Y-14954819D01*
X3416666Y-14954819D02*
X3083333Y-15335771D01*
X3083333Y-15335771D02*
X3226190Y-15335771D01*
X3226190Y-15335771D02*
X3321428Y-15383390D01*
X3321428Y-15383390D02*
X3369047Y-15431009D01*
X3369047Y-15431009D02*
X3416666Y-15526247D01*
X3416666Y-15526247D02*
X3416666Y-15764342D01*
X3416666Y-15764342D02*
X3369047Y-15859580D01*
X3369047Y-15859580D02*
X3321428Y-15907200D01*
X3321428Y-15907200D02*
X3226190Y-15954819D01*
X3226190Y-15954819D02*
X2940476Y-15954819D01*
X2940476Y-15954819D02*
X2845238Y-15907200D01*
X2845238Y-15907200D02*
X2797619Y-15859580D01*
X-713333Y-1454819D02*
X-713333Y-2169104D01*
X-713333Y-2169104D02*
X-760952Y-2311961D01*
X-760952Y-2311961D02*
X-856190Y-2407200D01*
X-856190Y-2407200D02*
X-999047Y-2454819D01*
X-999047Y-2454819D02*
X-1094285Y-2454819D01*
X286666Y-2454819D02*
X-284761Y-2454819D01*
X952Y-2454819D02*
X952Y-1454819D01*
X952Y-1454819D02*
X-94285Y-1597676D01*
X-94285Y-1597676D02*
X-189523Y-1692914D01*
X-189523Y-1692914D02*
X-284761Y-1740533D01*
X11333333Y-16999580D02*
X11285714Y-17047200D01*
X11285714Y-17047200D02*
X11142857Y-17094819D01*
X11142857Y-17094819D02*
X11047619Y-17094819D01*
X11047619Y-17094819D02*
X10904762Y-17047200D01*
X10904762Y-17047200D02*
X10809524Y-16951961D01*
X10809524Y-16951961D02*
X10761905Y-16856723D01*
X10761905Y-16856723D02*
X10714286Y-16666247D01*
X10714286Y-16666247D02*
X10714286Y-16523390D01*
X10714286Y-16523390D02*
X10761905Y-16332914D01*
X10761905Y-16332914D02*
X10809524Y-16237676D01*
X10809524Y-16237676D02*
X10904762Y-16142438D01*
X10904762Y-16142438D02*
X11047619Y-16094819D01*
X11047619Y-16094819D02*
X11142857Y-16094819D01*
X11142857Y-16094819D02*
X11285714Y-16142438D01*
X11285714Y-16142438D02*
X11333333Y-16190057D01*
X11666667Y-16094819D02*
X12285714Y-16094819D01*
X12285714Y-16094819D02*
X11952381Y-16475771D01*
X11952381Y-16475771D02*
X12095238Y-16475771D01*
X12095238Y-16475771D02*
X12190476Y-16523390D01*
X12190476Y-16523390D02*
X12238095Y-16571009D01*
X12238095Y-16571009D02*
X12285714Y-16666247D01*
X12285714Y-16666247D02*
X12285714Y-16904342D01*
X12285714Y-16904342D02*
X12238095Y-16999580D01*
X12238095Y-16999580D02*
X12190476Y-17047200D01*
X12190476Y-17047200D02*
X12095238Y-17094819D01*
X12095238Y-17094819D02*
X11809524Y-17094819D01*
X11809524Y-17094819D02*
X11714286Y-17047200D01*
X11714286Y-17047200D02*
X11666667Y-16999580D01*
X22197142Y-11159580D02*
X22149523Y-11207200D01*
X22149523Y-11207200D02*
X22006666Y-11254819D01*
X22006666Y-11254819D02*
X21911428Y-11254819D01*
X21911428Y-11254819D02*
X21768571Y-11207200D01*
X21768571Y-11207200D02*
X21673333Y-11111961D01*
X21673333Y-11111961D02*
X21625714Y-11016723D01*
X21625714Y-11016723D02*
X21578095Y-10826247D01*
X21578095Y-10826247D02*
X21578095Y-10683390D01*
X21578095Y-10683390D02*
X21625714Y-10492914D01*
X21625714Y-10492914D02*
X21673333Y-10397676D01*
X21673333Y-10397676D02*
X21768571Y-10302438D01*
X21768571Y-10302438D02*
X21911428Y-10254819D01*
X21911428Y-10254819D02*
X22006666Y-10254819D01*
X22006666Y-10254819D02*
X22149523Y-10302438D01*
X22149523Y-10302438D02*
X22197142Y-10350057D01*
X23149523Y-11254819D02*
X22578095Y-11254819D01*
X22863809Y-11254819D02*
X22863809Y-10254819D01*
X22863809Y-10254819D02*
X22768571Y-10397676D01*
X22768571Y-10397676D02*
X22673333Y-10492914D01*
X22673333Y-10492914D02*
X22578095Y-10540533D01*
X23768571Y-10254819D02*
X23863809Y-10254819D01*
X23863809Y-10254819D02*
X23959047Y-10302438D01*
X23959047Y-10302438D02*
X24006666Y-10350057D01*
X24006666Y-10350057D02*
X24054285Y-10445295D01*
X24054285Y-10445295D02*
X24101904Y-10635771D01*
X24101904Y-10635771D02*
X24101904Y-10873866D01*
X24101904Y-10873866D02*
X24054285Y-11064342D01*
X24054285Y-11064342D02*
X24006666Y-11159580D01*
X24006666Y-11159580D02*
X23959047Y-11207200D01*
X23959047Y-11207200D02*
X23863809Y-11254819D01*
X23863809Y-11254819D02*
X23768571Y-11254819D01*
X23768571Y-11254819D02*
X23673333Y-11207200D01*
X23673333Y-11207200D02*
X23625714Y-11159580D01*
X23625714Y-11159580D02*
X23578095Y-11064342D01*
X23578095Y-11064342D02*
X23530476Y-10873866D01*
X23530476Y-10873866D02*
X23530476Y-10635771D01*
X23530476Y-10635771D02*
X23578095Y-10445295D01*
X23578095Y-10445295D02*
X23625714Y-10350057D01*
X23625714Y-10350057D02*
X23673333Y-10302438D01*
X23673333Y-10302438D02*
X23768571Y-10254819D01*
X7120595Y-14704819D02*
X7692023Y-14704819D01*
X7406309Y-15704819D02*
X7406309Y-14704819D01*
X8025357Y-15704819D02*
X8025357Y-14704819D01*
X8025357Y-14704819D02*
X8406309Y-14704819D01*
X8406309Y-14704819D02*
X8501547Y-14752438D01*
X8501547Y-14752438D02*
X8549166Y-14800057D01*
X8549166Y-14800057D02*
X8596785Y-14895295D01*
X8596785Y-14895295D02*
X8596785Y-15038152D01*
X8596785Y-15038152D02*
X8549166Y-15133390D01*
X8549166Y-15133390D02*
X8501547Y-15181009D01*
X8501547Y-15181009D02*
X8406309Y-15228628D01*
X8406309Y-15228628D02*
X8025357Y-15228628D01*
X9453928Y-15038152D02*
X9453928Y-15704819D01*
X9215833Y-14657200D02*
X8977738Y-15371485D01*
X8977738Y-15371485D02*
X9596785Y-15371485D01*
X16523809Y-3528628D02*
X16523809Y-4004819D01*
X16190476Y-3004819D02*
X16523809Y-3528628D01*
X16523809Y-3528628D02*
X16857142Y-3004819D01*
X17714285Y-4004819D02*
X17142857Y-4004819D01*
X17428571Y-4004819D02*
X17428571Y-3004819D01*
X17428571Y-3004819D02*
X17333333Y-3147676D01*
X17333333Y-3147676D02*
X17238095Y-3242914D01*
X17238095Y-3242914D02*
X17142857Y-3290533D01*
X18473333Y-6359580D02*
X18425714Y-6407200D01*
X18425714Y-6407200D02*
X18282857Y-6454819D01*
X18282857Y-6454819D02*
X18187619Y-6454819D01*
X18187619Y-6454819D02*
X18044762Y-6407200D01*
X18044762Y-6407200D02*
X17949524Y-6311961D01*
X17949524Y-6311961D02*
X17901905Y-6216723D01*
X17901905Y-6216723D02*
X17854286Y-6026247D01*
X17854286Y-6026247D02*
X17854286Y-5883390D01*
X17854286Y-5883390D02*
X17901905Y-5692914D01*
X17901905Y-5692914D02*
X17949524Y-5597676D01*
X17949524Y-5597676D02*
X18044762Y-5502438D01*
X18044762Y-5502438D02*
X18187619Y-5454819D01*
X18187619Y-5454819D02*
X18282857Y-5454819D01*
X18282857Y-5454819D02*
X18425714Y-5502438D01*
X18425714Y-5502438D02*
X18473333Y-5550057D01*
X19044762Y-5883390D02*
X18949524Y-5835771D01*
X18949524Y-5835771D02*
X18901905Y-5788152D01*
X18901905Y-5788152D02*
X18854286Y-5692914D01*
X18854286Y-5692914D02*
X18854286Y-5645295D01*
X18854286Y-5645295D02*
X18901905Y-5550057D01*
X18901905Y-5550057D02*
X18949524Y-5502438D01*
X18949524Y-5502438D02*
X19044762Y-5454819D01*
X19044762Y-5454819D02*
X19235238Y-5454819D01*
X19235238Y-5454819D02*
X19330476Y-5502438D01*
X19330476Y-5502438D02*
X19378095Y-5550057D01*
X19378095Y-5550057D02*
X19425714Y-5645295D01*
X19425714Y-5645295D02*
X19425714Y-5692914D01*
X19425714Y-5692914D02*
X19378095Y-5788152D01*
X19378095Y-5788152D02*
X19330476Y-5835771D01*
X19330476Y-5835771D02*
X19235238Y-5883390D01*
X19235238Y-5883390D02*
X19044762Y-5883390D01*
X19044762Y-5883390D02*
X18949524Y-5931009D01*
X18949524Y-5931009D02*
X18901905Y-5978628D01*
X18901905Y-5978628D02*
X18854286Y-6073866D01*
X18854286Y-6073866D02*
X18854286Y-6264342D01*
X18854286Y-6264342D02*
X18901905Y-6359580D01*
X18901905Y-6359580D02*
X18949524Y-6407200D01*
X18949524Y-6407200D02*
X19044762Y-6454819D01*
X19044762Y-6454819D02*
X19235238Y-6454819D01*
X19235238Y-6454819D02*
X19330476Y-6407200D01*
X19330476Y-6407200D02*
X19378095Y-6359580D01*
X19378095Y-6359580D02*
X19425714Y-6264342D01*
X19425714Y-6264342D02*
X19425714Y-6073866D01*
X19425714Y-6073866D02*
X19378095Y-5978628D01*
X19378095Y-5978628D02*
X19330476Y-5931009D01*
X19330476Y-5931009D02*
X19235238Y-5883390D01*
X19663333Y-10454819D02*
X19187143Y-10454819D01*
X19187143Y-10454819D02*
X19187143Y-9454819D01*
X20520476Y-10454819D02*
X19949048Y-10454819D01*
X20234762Y-10454819D02*
X20234762Y-9454819D01*
X20234762Y-9454819D02*
X20139524Y-9597676D01*
X20139524Y-9597676D02*
X20044286Y-9692914D01*
X20044286Y-9692914D02*
X19949048Y-9740533D01*
X8673333Y-9359580D02*
X8625714Y-9407200D01*
X8625714Y-9407200D02*
X8482857Y-9454819D01*
X8482857Y-9454819D02*
X8387619Y-9454819D01*
X8387619Y-9454819D02*
X8244762Y-9407200D01*
X8244762Y-9407200D02*
X8149524Y-9311961D01*
X8149524Y-9311961D02*
X8101905Y-9216723D01*
X8101905Y-9216723D02*
X8054286Y-9026247D01*
X8054286Y-9026247D02*
X8054286Y-8883390D01*
X8054286Y-8883390D02*
X8101905Y-8692914D01*
X8101905Y-8692914D02*
X8149524Y-8597676D01*
X8149524Y-8597676D02*
X8244762Y-8502438D01*
X8244762Y-8502438D02*
X8387619Y-8454819D01*
X8387619Y-8454819D02*
X8482857Y-8454819D01*
X8482857Y-8454819D02*
X8625714Y-8502438D01*
X8625714Y-8502438D02*
X8673333Y-8550057D01*
X9578095Y-8454819D02*
X9101905Y-8454819D01*
X9101905Y-8454819D02*
X9054286Y-8931009D01*
X9054286Y-8931009D02*
X9101905Y-8883390D01*
X9101905Y-8883390D02*
X9197143Y-8835771D01*
X9197143Y-8835771D02*
X9435238Y-8835771D01*
X9435238Y-8835771D02*
X9530476Y-8883390D01*
X9530476Y-8883390D02*
X9578095Y-8931009D01*
X9578095Y-8931009D02*
X9625714Y-9026247D01*
X9625714Y-9026247D02*
X9625714Y-9264342D01*
X9625714Y-9264342D02*
X9578095Y-9359580D01*
X9578095Y-9359580D02*
X9530476Y-9407200D01*
X9530476Y-9407200D02*
X9435238Y-9454819D01*
X9435238Y-9454819D02*
X9197143Y-9454819D01*
X9197143Y-9454819D02*
X9101905Y-9407200D01*
X9101905Y-9407200D02*
X9054286Y-9359580D01*
%TO.C,C6*%
D12*
X16892164Y-16440000D02*
X17107836Y-16440000D01*
X16892164Y-17160000D02*
X17107836Y-17160000D01*
%TO.C,B1*%
X21950000Y-12250000D02*
X24050000Y-12250000D01*
D13*
X24250000Y-12450000D02*
G75*
G02*
X24050000Y-12450000I-100000J0D01*
G01*
X24050000Y-12450000D02*
G75*
G02*
X24250000Y-12450000I100000J0D01*
G01*
%TO.C,C9*%
D12*
X20840000Y-7607836D02*
X20840000Y-7392164D01*
X21560000Y-7607836D02*
X21560000Y-7392164D01*
%TO.C,C4*%
X14892164Y-16440000D02*
X15107836Y-16440000D01*
X14892164Y-17160000D02*
X15107836Y-17160000D01*
%TO.C,TP1*%
X3400000Y-4600000D02*
X5600000Y-4600000D01*
X5600000Y-8400000D01*
X3400000Y-8400000D01*
X3400000Y-4600000D01*
%TO.C,C2*%
X9640000Y-7107836D02*
X9640000Y-6892164D01*
X10360000Y-7107836D02*
X10360000Y-6892164D01*
%TO.C,TP2*%
X3400000Y-9100000D02*
X5600000Y-9100000D01*
X5600000Y-12900000D01*
X3400000Y-12900000D01*
X3400000Y-9100000D01*
%TO.C,C11*%
X19892164Y-11940000D02*
X20107836Y-11940000D01*
X19892164Y-12660000D02*
X20107836Y-12660000D01*
%TO.C,AE1*%
X27040000Y-8400000D02*
X27040000Y-12310000D01*
X27040000Y-12310000D02*
X29360000Y-12310000D01*
X29360000Y-12310000D02*
X29360000Y-8400000D01*
%TO.C,TP5*%
X21900000Y-14600000D02*
X24100000Y-14600000D01*
X24100000Y-18400000D01*
X21900000Y-18400000D01*
X21900000Y-14600000D01*
%TO.C,R1*%
X9120000Y-13953641D02*
X9120000Y-13646359D01*
X9880000Y-13953641D02*
X9880000Y-13646359D01*
%TO.C,C7*%
X13840000Y-6107836D02*
X13840000Y-5892164D01*
X14560000Y-6107836D02*
X14560000Y-5892164D01*
%TO.C,U1*%
X12390000Y-8390000D02*
X12865000Y-8390000D01*
X12390000Y-8865000D02*
X12390000Y-8390000D01*
X12390000Y-13610000D02*
X12390000Y-13135000D01*
X12865000Y-13610000D02*
X12390000Y-13610000D01*
X17135000Y-8390000D02*
X17610000Y-8390000D01*
X17610000Y-8390000D02*
X17610000Y-8865000D01*
X17610000Y-13135000D02*
X17610000Y-13610000D01*
X17610000Y-13610000D02*
X17135000Y-13610000D01*
X11860000Y-9250000D02*
X11530000Y-9490000D01*
X11530000Y-9010000D01*
X11860000Y-9250000D01*
G36*
X11860000Y-9250000D02*
G01*
X11530000Y-9490000D01*
X11530000Y-9010000D01*
X11860000Y-9250000D01*
G37*
%TO.C,C12*%
X19892164Y-13640000D02*
X20107836Y-13640000D01*
X19892164Y-14360000D02*
X20107836Y-14360000D01*
%TO.C,C1*%
X12640000Y-15907836D02*
X12640000Y-15692164D01*
X13360000Y-15907836D02*
X13360000Y-15692164D01*
%TO.C,TP3*%
X3400000Y-13600000D02*
X5600000Y-13600000D01*
X5600000Y-17400000D01*
X3400000Y-17400000D01*
X3400000Y-13600000D01*
%TO.C,J1*%
X620000Y-3380000D02*
X620000Y-2000000D01*
X2000000Y-3380000D02*
X620000Y-3380000D01*
X3270000Y-620000D02*
X23700000Y-620000D01*
X3270000Y-3380000D02*
X3270000Y-620000D01*
X3270000Y-3380000D02*
X23700000Y-3380000D01*
X23700000Y-3380000D02*
X23700000Y-620000D01*
%TO.C,C3*%
X11392164Y-17440000D02*
X11607836Y-17440000D01*
X11392164Y-18160000D02*
X11607836Y-18160000D01*
%TO.C,C10*%
X23640000Y-10907836D02*
X23640000Y-10692164D01*
X24360000Y-10907836D02*
X24360000Y-10692164D01*
%TO.C,TP4*%
X6482500Y-16400000D02*
X10282500Y-16400000D01*
X10282500Y-18600000D01*
X6482500Y-18600000D01*
X6482500Y-16400000D01*
%TO.C,Y1*%
X14940000Y-4290000D02*
X14940000Y-7710000D01*
X14940000Y-7710000D02*
X19060000Y-7710000D01*
%TO.C,C8*%
X19440000Y-6107836D02*
X19440000Y-5892164D01*
X20160000Y-6107836D02*
X20160000Y-5892164D01*
%TO.C,C5*%
X9640000Y-9107836D02*
X9640000Y-8892164D01*
X10360000Y-9107836D02*
X10360000Y-8892164D01*
%TD*%
M02*
