%TF.GenerationSoftware,KiCad,Pcbnew,10.0.6*%
%TF.CreationDate,2026-09-11T20:25:29+02:00*%
%TF.ProjectId,at86rf233-spi-carrier-board-for-esp32-c6-host,61743836-7266-4323-9333-2d7370692d63,rev?*%
%TF.SameCoordinates,Original*%
%TF.FileFunction,AssemblyDrawing,Top*%
%FSLAX46Y46*%
G04 Gerber Fmt 4.6, Leading zero omitted, Abs format (unit mm)*
G04 Created by KiCad (PCBNEW 10.0.6) date 2026-09-11 20:25:29*
%MOMM*%
%LPD*%
G01*
G04 APERTURE LIST*
%ADD10C,0.150000*%
%ADD11C,0.040000*%
%ADD12C,0.158750*%
%ADD13C,0.090000*%
%ADD14C,0.120000*%
%ADD15C,0.100000*%
G04 APERTURE END LIST*
D10*
X16404761Y-18414819D02*
X15833333Y-18414819D01*
X16119047Y-18414819D02*
X16119047Y-17414819D01*
X16119047Y-17414819D02*
X16023809Y-17557676D01*
X16023809Y-17557676D02*
X15928571Y-17652914D01*
X15928571Y-17652914D02*
X15833333Y-17700533D01*
X17261904Y-17748152D02*
X17261904Y-18414819D01*
X16833333Y-17748152D02*
X16833333Y-18271961D01*
X16833333Y-18271961D02*
X16880952Y-18367200D01*
X16880952Y-18367200D02*
X16976190Y-18414819D01*
X16976190Y-18414819D02*
X17119047Y-18414819D01*
X17119047Y-18414819D02*
X17214285Y-18367200D01*
X17214285Y-18367200D02*
X17261904Y-18319580D01*
X18071428Y-17891009D02*
X17738095Y-17891009D01*
X17738095Y-18414819D02*
X17738095Y-17414819D01*
X17738095Y-17414819D02*
X18214285Y-17414819D01*
D11*
X16958333Y-16889765D02*
X16946429Y-16901670D01*
X16946429Y-16901670D02*
X16910714Y-16913574D01*
X16910714Y-16913574D02*
X16886905Y-16913574D01*
X16886905Y-16913574D02*
X16851191Y-16901670D01*
X16851191Y-16901670D02*
X16827381Y-16877860D01*
X16827381Y-16877860D02*
X16815476Y-16854050D01*
X16815476Y-16854050D02*
X16803572Y-16806431D01*
X16803572Y-16806431D02*
X16803572Y-16770717D01*
X16803572Y-16770717D02*
X16815476Y-16723098D01*
X16815476Y-16723098D02*
X16827381Y-16699289D01*
X16827381Y-16699289D02*
X16851191Y-16675479D01*
X16851191Y-16675479D02*
X16886905Y-16663574D01*
X16886905Y-16663574D02*
X16910714Y-16663574D01*
X16910714Y-16663574D02*
X16946429Y-16675479D01*
X16946429Y-16675479D02*
X16958333Y-16687384D01*
X17172619Y-16663574D02*
X17125000Y-16663574D01*
X17125000Y-16663574D02*
X17101191Y-16675479D01*
X17101191Y-16675479D02*
X17089286Y-16687384D01*
X17089286Y-16687384D02*
X17065476Y-16723098D01*
X17065476Y-16723098D02*
X17053572Y-16770717D01*
X17053572Y-16770717D02*
X17053572Y-16865955D01*
X17053572Y-16865955D02*
X17065476Y-16889765D01*
X17065476Y-16889765D02*
X17077381Y-16901670D01*
X17077381Y-16901670D02*
X17101191Y-16913574D01*
X17101191Y-16913574D02*
X17148810Y-16913574D01*
X17148810Y-16913574D02*
X17172619Y-16901670D01*
X17172619Y-16901670D02*
X17184524Y-16889765D01*
X17184524Y-16889765D02*
X17196429Y-16865955D01*
X17196429Y-16865955D02*
X17196429Y-16806431D01*
X17196429Y-16806431D02*
X17184524Y-16782622D01*
X17184524Y-16782622D02*
X17172619Y-16770717D01*
X17172619Y-16770717D02*
X17148810Y-16758812D01*
X17148810Y-16758812D02*
X17101191Y-16758812D01*
X17101191Y-16758812D02*
X17077381Y-16770717D01*
X17077381Y-16770717D02*
X17065476Y-16782622D01*
X17065476Y-16782622D02*
X17053572Y-16806431D01*
D12*
X15289284Y-12430223D02*
X15349760Y-12369747D01*
X15349760Y-12369747D02*
X15470713Y-12309271D01*
X15470713Y-12309271D02*
X15773094Y-12309271D01*
X15773094Y-12309271D02*
X15894046Y-12369747D01*
X15894046Y-12369747D02*
X15954522Y-12430223D01*
X15954522Y-12430223D02*
X16014999Y-12551175D01*
X16014999Y-12551175D02*
X16014999Y-12672128D01*
X16014999Y-12672128D02*
X15954522Y-12853556D01*
X15954522Y-12853556D02*
X15228808Y-13579271D01*
X15228808Y-13579271D02*
X16014999Y-13579271D01*
X17103570Y-12732604D02*
X17103570Y-13579271D01*
X16801189Y-12248795D02*
X16498808Y-13155937D01*
X16498808Y-13155937D02*
X17284999Y-13155937D01*
X18373570Y-12309271D02*
X17768808Y-12309271D01*
X17768808Y-12309271D02*
X17708332Y-12914033D01*
X17708332Y-12914033D02*
X17768808Y-12853556D01*
X17768808Y-12853556D02*
X17889761Y-12793080D01*
X17889761Y-12793080D02*
X18192142Y-12793080D01*
X18192142Y-12793080D02*
X18313094Y-12853556D01*
X18313094Y-12853556D02*
X18373570Y-12914033D01*
X18373570Y-12914033D02*
X18434047Y-13034985D01*
X18434047Y-13034985D02*
X18434047Y-13337366D01*
X18434047Y-13337366D02*
X18373570Y-13458318D01*
X18373570Y-13458318D02*
X18313094Y-13518795D01*
X18313094Y-13518795D02*
X18192142Y-13579271D01*
X18192142Y-13579271D02*
X17889761Y-13579271D01*
X17889761Y-13579271D02*
X17768808Y-13518795D01*
X17768808Y-13518795D02*
X17708332Y-13458318D01*
X19220237Y-12309271D02*
X19341190Y-12309271D01*
X19341190Y-12309271D02*
X19462142Y-12369747D01*
X19462142Y-12369747D02*
X19522618Y-12430223D01*
X19522618Y-12430223D02*
X19583094Y-12551175D01*
X19583094Y-12551175D02*
X19643571Y-12793080D01*
X19643571Y-12793080D02*
X19643571Y-13095461D01*
X19643571Y-13095461D02*
X19583094Y-13337366D01*
X19583094Y-13337366D02*
X19522618Y-13458318D01*
X19522618Y-13458318D02*
X19462142Y-13518795D01*
X19462142Y-13518795D02*
X19341190Y-13579271D01*
X19341190Y-13579271D02*
X19220237Y-13579271D01*
X19220237Y-13579271D02*
X19099285Y-13518795D01*
X19099285Y-13518795D02*
X19038809Y-13458318D01*
X19038809Y-13458318D02*
X18978332Y-13337366D01*
X18978332Y-13337366D02*
X18917856Y-13095461D01*
X18917856Y-13095461D02*
X18917856Y-12793080D01*
X18917856Y-12793080D02*
X18978332Y-12551175D01*
X18978332Y-12551175D02*
X19038809Y-12430223D01*
X19038809Y-12430223D02*
X19099285Y-12369747D01*
X19099285Y-12369747D02*
X19220237Y-12309271D01*
X20611190Y-12914033D02*
X20792618Y-12974509D01*
X20792618Y-12974509D02*
X20853095Y-13034985D01*
X20853095Y-13034985D02*
X20913571Y-13155937D01*
X20913571Y-13155937D02*
X20913571Y-13337366D01*
X20913571Y-13337366D02*
X20853095Y-13458318D01*
X20853095Y-13458318D02*
X20792618Y-13518795D01*
X20792618Y-13518795D02*
X20671666Y-13579271D01*
X20671666Y-13579271D02*
X20187856Y-13579271D01*
X20187856Y-13579271D02*
X20187856Y-12309271D01*
X20187856Y-12309271D02*
X20611190Y-12309271D01*
X20611190Y-12309271D02*
X20732142Y-12369747D01*
X20732142Y-12369747D02*
X20792618Y-12430223D01*
X20792618Y-12430223D02*
X20853095Y-12551175D01*
X20853095Y-12551175D02*
X20853095Y-12672128D01*
X20853095Y-12672128D02*
X20792618Y-12793080D01*
X20792618Y-12793080D02*
X20732142Y-12853556D01*
X20732142Y-12853556D02*
X20611190Y-12914033D01*
X20611190Y-12914033D02*
X20187856Y-12914033D01*
X21457856Y-13579271D02*
X21457856Y-12309271D01*
X21457856Y-12309271D02*
X21881190Y-13216414D01*
X21881190Y-13216414D02*
X22304523Y-12309271D01*
X22304523Y-12309271D02*
X22304523Y-13579271D01*
X23574524Y-13579271D02*
X22848809Y-13579271D01*
X23211666Y-13579271D02*
X23211666Y-12309271D01*
X23211666Y-12309271D02*
X23090714Y-12490699D01*
X23090714Y-12490699D02*
X22969762Y-12611652D01*
X22969762Y-12611652D02*
X22848809Y-12672128D01*
X24723571Y-12309271D02*
X24118809Y-12309271D01*
X24118809Y-12309271D02*
X24058333Y-12914033D01*
X24058333Y-12914033D02*
X24118809Y-12853556D01*
X24118809Y-12853556D02*
X24239762Y-12793080D01*
X24239762Y-12793080D02*
X24542143Y-12793080D01*
X24542143Y-12793080D02*
X24663095Y-12853556D01*
X24663095Y-12853556D02*
X24723571Y-12914033D01*
X24723571Y-12914033D02*
X24784048Y-13034985D01*
X24784048Y-13034985D02*
X24784048Y-13337366D01*
X24784048Y-13337366D02*
X24723571Y-13458318D01*
X24723571Y-13458318D02*
X24663095Y-13518795D01*
X24663095Y-13518795D02*
X24542143Y-13579271D01*
X24542143Y-13579271D02*
X24239762Y-13579271D01*
X24239762Y-13579271D02*
X24118809Y-13518795D01*
X24118809Y-13518795D02*
X24058333Y-13458318D01*
X25267857Y-13216414D02*
X25872619Y-13216414D01*
X25146905Y-13579271D02*
X25570238Y-12309271D01*
X25570238Y-12309271D02*
X25993572Y-13579271D01*
X26658809Y-12309271D02*
X26779762Y-12309271D01*
X26779762Y-12309271D02*
X26900714Y-12369747D01*
X26900714Y-12369747D02*
X26961190Y-12430223D01*
X26961190Y-12430223D02*
X27021666Y-12551175D01*
X27021666Y-12551175D02*
X27082143Y-12793080D01*
X27082143Y-12793080D02*
X27082143Y-13095461D01*
X27082143Y-13095461D02*
X27021666Y-13337366D01*
X27021666Y-13337366D02*
X26961190Y-13458318D01*
X26961190Y-13458318D02*
X26900714Y-13518795D01*
X26900714Y-13518795D02*
X26779762Y-13579271D01*
X26779762Y-13579271D02*
X26658809Y-13579271D01*
X26658809Y-13579271D02*
X26537857Y-13518795D01*
X26537857Y-13518795D02*
X26477381Y-13458318D01*
X26477381Y-13458318D02*
X26416904Y-13337366D01*
X26416904Y-13337366D02*
X26356428Y-13095461D01*
X26356428Y-13095461D02*
X26356428Y-12793080D01*
X26356428Y-12793080D02*
X26416904Y-12551175D01*
X26416904Y-12551175D02*
X26477381Y-12430223D01*
X26477381Y-12430223D02*
X26537857Y-12369747D01*
X26537857Y-12369747D02*
X26658809Y-12309271D01*
X27868333Y-12309271D02*
X27989286Y-12309271D01*
X27989286Y-12309271D02*
X28110238Y-12369747D01*
X28110238Y-12369747D02*
X28170714Y-12430223D01*
X28170714Y-12430223D02*
X28231190Y-12551175D01*
X28231190Y-12551175D02*
X28291667Y-12793080D01*
X28291667Y-12793080D02*
X28291667Y-13095461D01*
X28291667Y-13095461D02*
X28231190Y-13337366D01*
X28231190Y-13337366D02*
X28170714Y-13458318D01*
X28170714Y-13458318D02*
X28110238Y-13518795D01*
X28110238Y-13518795D02*
X27989286Y-13579271D01*
X27989286Y-13579271D02*
X27868333Y-13579271D01*
X27868333Y-13579271D02*
X27747381Y-13518795D01*
X27747381Y-13518795D02*
X27686905Y-13458318D01*
X27686905Y-13458318D02*
X27626428Y-13337366D01*
X27626428Y-13337366D02*
X27565952Y-13095461D01*
X27565952Y-13095461D02*
X27565952Y-12793080D01*
X27565952Y-12793080D02*
X27626428Y-12551175D01*
X27626428Y-12551175D02*
X27686905Y-12430223D01*
X27686905Y-12430223D02*
X27747381Y-12369747D01*
X27747381Y-12369747D02*
X27868333Y-12309271D01*
X29501191Y-13579271D02*
X28775476Y-13579271D01*
X29138333Y-13579271D02*
X29138333Y-12309271D01*
X29138333Y-12309271D02*
X29017381Y-12490699D01*
X29017381Y-12490699D02*
X28896429Y-12611652D01*
X28896429Y-12611652D02*
X28775476Y-12672128D01*
X30650238Y-12309271D02*
X30045476Y-12309271D01*
X30045476Y-12309271D02*
X29985000Y-12914033D01*
X29985000Y-12914033D02*
X30045476Y-12853556D01*
X30045476Y-12853556D02*
X30166429Y-12793080D01*
X30166429Y-12793080D02*
X30468810Y-12793080D01*
X30468810Y-12793080D02*
X30589762Y-12853556D01*
X30589762Y-12853556D02*
X30650238Y-12914033D01*
X30650238Y-12914033D02*
X30710715Y-13034985D01*
X30710715Y-13034985D02*
X30710715Y-13337366D01*
X30710715Y-13337366D02*
X30650238Y-13458318D01*
X30650238Y-13458318D02*
X30589762Y-13518795D01*
X30589762Y-13518795D02*
X30468810Y-13579271D01*
X30468810Y-13579271D02*
X30166429Y-13579271D01*
X30166429Y-13579271D02*
X30045476Y-13518795D01*
X30045476Y-13518795D02*
X29985000Y-13458318D01*
D10*
X21764761Y-7954819D02*
X21193333Y-7954819D01*
X21479047Y-7954819D02*
X21479047Y-6954819D01*
X21479047Y-6954819D02*
X21383809Y-7097676D01*
X21383809Y-7097676D02*
X21288571Y-7192914D01*
X21288571Y-7192914D02*
X21193333Y-7240533D01*
X22193333Y-7288152D02*
X22193333Y-8288152D01*
X22193333Y-7335771D02*
X22288571Y-7288152D01*
X22288571Y-7288152D02*
X22479047Y-7288152D01*
X22479047Y-7288152D02*
X22574285Y-7335771D01*
X22574285Y-7335771D02*
X22621904Y-7383390D01*
X22621904Y-7383390D02*
X22669523Y-7478628D01*
X22669523Y-7478628D02*
X22669523Y-7764342D01*
X22669523Y-7764342D02*
X22621904Y-7859580D01*
X22621904Y-7859580D02*
X22574285Y-7907200D01*
X22574285Y-7907200D02*
X22479047Y-7954819D01*
X22479047Y-7954819D02*
X22288571Y-7954819D01*
X22288571Y-7954819D02*
X22193333Y-7907200D01*
X23431428Y-7431009D02*
X23098095Y-7431009D01*
X23098095Y-7954819D02*
X23098095Y-6954819D01*
X23098095Y-6954819D02*
X23574285Y-6954819D01*
D11*
X21158333Y-7589765D02*
X21146429Y-7601670D01*
X21146429Y-7601670D02*
X21110714Y-7613574D01*
X21110714Y-7613574D02*
X21086905Y-7613574D01*
X21086905Y-7613574D02*
X21051191Y-7601670D01*
X21051191Y-7601670D02*
X21027381Y-7577860D01*
X21027381Y-7577860D02*
X21015476Y-7554050D01*
X21015476Y-7554050D02*
X21003572Y-7506431D01*
X21003572Y-7506431D02*
X21003572Y-7470717D01*
X21003572Y-7470717D02*
X21015476Y-7423098D01*
X21015476Y-7423098D02*
X21027381Y-7399289D01*
X21027381Y-7399289D02*
X21051191Y-7375479D01*
X21051191Y-7375479D02*
X21086905Y-7363574D01*
X21086905Y-7363574D02*
X21110714Y-7363574D01*
X21110714Y-7363574D02*
X21146429Y-7375479D01*
X21146429Y-7375479D02*
X21158333Y-7387384D01*
X21277381Y-7613574D02*
X21325000Y-7613574D01*
X21325000Y-7613574D02*
X21348810Y-7601670D01*
X21348810Y-7601670D02*
X21360714Y-7589765D01*
X21360714Y-7589765D02*
X21384524Y-7554050D01*
X21384524Y-7554050D02*
X21396429Y-7506431D01*
X21396429Y-7506431D02*
X21396429Y-7411193D01*
X21396429Y-7411193D02*
X21384524Y-7387384D01*
X21384524Y-7387384D02*
X21372619Y-7375479D01*
X21372619Y-7375479D02*
X21348810Y-7363574D01*
X21348810Y-7363574D02*
X21301191Y-7363574D01*
X21301191Y-7363574D02*
X21277381Y-7375479D01*
X21277381Y-7375479D02*
X21265476Y-7387384D01*
X21265476Y-7387384D02*
X21253572Y-7411193D01*
X21253572Y-7411193D02*
X21253572Y-7470717D01*
X21253572Y-7470717D02*
X21265476Y-7494527D01*
X21265476Y-7494527D02*
X21277381Y-7506431D01*
X21277381Y-7506431D02*
X21301191Y-7518336D01*
X21301191Y-7518336D02*
X21348810Y-7518336D01*
X21348810Y-7518336D02*
X21372619Y-7506431D01*
X21372619Y-7506431D02*
X21384524Y-7494527D01*
X21384524Y-7494527D02*
X21396429Y-7470717D01*
D10*
X14404761Y-18414819D02*
X13833333Y-18414819D01*
X14119047Y-18414819D02*
X14119047Y-17414819D01*
X14119047Y-17414819D02*
X14023809Y-17557676D01*
X14023809Y-17557676D02*
X13928571Y-17652914D01*
X13928571Y-17652914D02*
X13833333Y-17700533D01*
X15261904Y-17748152D02*
X15261904Y-18414819D01*
X14833333Y-17748152D02*
X14833333Y-18271961D01*
X14833333Y-18271961D02*
X14880952Y-18367200D01*
X14880952Y-18367200D02*
X14976190Y-18414819D01*
X14976190Y-18414819D02*
X15119047Y-18414819D01*
X15119047Y-18414819D02*
X15214285Y-18367200D01*
X15214285Y-18367200D02*
X15261904Y-18319580D01*
X16071428Y-17891009D02*
X15738095Y-17891009D01*
X15738095Y-18414819D02*
X15738095Y-17414819D01*
X15738095Y-17414819D02*
X16214285Y-17414819D01*
D11*
X14958333Y-16889765D02*
X14946429Y-16901670D01*
X14946429Y-16901670D02*
X14910714Y-16913574D01*
X14910714Y-16913574D02*
X14886905Y-16913574D01*
X14886905Y-16913574D02*
X14851191Y-16901670D01*
X14851191Y-16901670D02*
X14827381Y-16877860D01*
X14827381Y-16877860D02*
X14815476Y-16854050D01*
X14815476Y-16854050D02*
X14803572Y-16806431D01*
X14803572Y-16806431D02*
X14803572Y-16770717D01*
X14803572Y-16770717D02*
X14815476Y-16723098D01*
X14815476Y-16723098D02*
X14827381Y-16699289D01*
X14827381Y-16699289D02*
X14851191Y-16675479D01*
X14851191Y-16675479D02*
X14886905Y-16663574D01*
X14886905Y-16663574D02*
X14910714Y-16663574D01*
X14910714Y-16663574D02*
X14946429Y-16675479D01*
X14946429Y-16675479D02*
X14958333Y-16687384D01*
X15172619Y-16746908D02*
X15172619Y-16913574D01*
X15113095Y-16651670D02*
X15053572Y-16830241D01*
X15053572Y-16830241D02*
X15208333Y-16830241D01*
D10*
X3416666Y-5954819D02*
X3988094Y-5954819D01*
X3702380Y-6954819D02*
X3702380Y-5954819D01*
X4702380Y-6907200D02*
X4607142Y-6954819D01*
X4607142Y-6954819D02*
X4416666Y-6954819D01*
X4416666Y-6954819D02*
X4321428Y-6907200D01*
X4321428Y-6907200D02*
X4273809Y-6811961D01*
X4273809Y-6811961D02*
X4273809Y-6431009D01*
X4273809Y-6431009D02*
X4321428Y-6335771D01*
X4321428Y-6335771D02*
X4416666Y-6288152D01*
X4416666Y-6288152D02*
X4607142Y-6288152D01*
X4607142Y-6288152D02*
X4702380Y-6335771D01*
X4702380Y-6335771D02*
X4749999Y-6431009D01*
X4749999Y-6431009D02*
X4749999Y-6526247D01*
X4749999Y-6526247D02*
X4273809Y-6621485D01*
X5130952Y-6907200D02*
X5226190Y-6954819D01*
X5226190Y-6954819D02*
X5416666Y-6954819D01*
X5416666Y-6954819D02*
X5511904Y-6907200D01*
X5511904Y-6907200D02*
X5559523Y-6811961D01*
X5559523Y-6811961D02*
X5559523Y-6764342D01*
X5559523Y-6764342D02*
X5511904Y-6669104D01*
X5511904Y-6669104D02*
X5416666Y-6621485D01*
X5416666Y-6621485D02*
X5273809Y-6621485D01*
X5273809Y-6621485D02*
X5178571Y-6573866D01*
X5178571Y-6573866D02*
X5130952Y-6478628D01*
X5130952Y-6478628D02*
X5130952Y-6431009D01*
X5130952Y-6431009D02*
X5178571Y-6335771D01*
X5178571Y-6335771D02*
X5273809Y-6288152D01*
X5273809Y-6288152D02*
X5416666Y-6288152D01*
X5416666Y-6288152D02*
X5511904Y-6335771D01*
X5845238Y-6288152D02*
X6226190Y-6288152D01*
X5988095Y-5954819D02*
X5988095Y-6811961D01*
X5988095Y-6811961D02*
X6035714Y-6907200D01*
X6035714Y-6907200D02*
X6130952Y-6954819D01*
X6130952Y-6954819D02*
X6226190Y-6954819D01*
X6559524Y-6954819D02*
X6559524Y-5954819D01*
X6559524Y-5954819D02*
X6940476Y-5954819D01*
X6940476Y-5954819D02*
X7035714Y-6002438D01*
X7035714Y-6002438D02*
X7083333Y-6050057D01*
X7083333Y-6050057D02*
X7130952Y-6145295D01*
X7130952Y-6145295D02*
X7130952Y-6288152D01*
X7130952Y-6288152D02*
X7083333Y-6383390D01*
X7083333Y-6383390D02*
X7035714Y-6431009D01*
X7035714Y-6431009D02*
X6940476Y-6478628D01*
X6940476Y-6478628D02*
X6559524Y-6478628D01*
X7702381Y-6954819D02*
X7607143Y-6907200D01*
X7607143Y-6907200D02*
X7559524Y-6859580D01*
X7559524Y-6859580D02*
X7511905Y-6764342D01*
X7511905Y-6764342D02*
X7511905Y-6478628D01*
X7511905Y-6478628D02*
X7559524Y-6383390D01*
X7559524Y-6383390D02*
X7607143Y-6335771D01*
X7607143Y-6335771D02*
X7702381Y-6288152D01*
X7702381Y-6288152D02*
X7845238Y-6288152D01*
X7845238Y-6288152D02*
X7940476Y-6335771D01*
X7940476Y-6335771D02*
X7988095Y-6383390D01*
X7988095Y-6383390D02*
X8035714Y-6478628D01*
X8035714Y-6478628D02*
X8035714Y-6764342D01*
X8035714Y-6764342D02*
X7988095Y-6859580D01*
X7988095Y-6859580D02*
X7940476Y-6907200D01*
X7940476Y-6907200D02*
X7845238Y-6954819D01*
X7845238Y-6954819D02*
X7702381Y-6954819D01*
X8464286Y-6954819D02*
X8464286Y-6288152D01*
X8464286Y-5954819D02*
X8416667Y-6002438D01*
X8416667Y-6002438D02*
X8464286Y-6050057D01*
X8464286Y-6050057D02*
X8511905Y-6002438D01*
X8511905Y-6002438D02*
X8464286Y-5954819D01*
X8464286Y-5954819D02*
X8464286Y-6050057D01*
X8940476Y-6288152D02*
X8940476Y-6954819D01*
X8940476Y-6383390D02*
X8988095Y-6335771D01*
X8988095Y-6335771D02*
X9083333Y-6288152D01*
X9083333Y-6288152D02*
X9226190Y-6288152D01*
X9226190Y-6288152D02*
X9321428Y-6335771D01*
X9321428Y-6335771D02*
X9369047Y-6431009D01*
X9369047Y-6431009D02*
X9369047Y-6954819D01*
X9702381Y-6288152D02*
X10083333Y-6288152D01*
X9845238Y-5954819D02*
X9845238Y-6811961D01*
X9845238Y-6811961D02*
X9892857Y-6907200D01*
X9892857Y-6907200D02*
X9988095Y-6954819D01*
X9988095Y-6954819D02*
X10083333Y-6954819D01*
D13*
X3742856Y-6172891D02*
X4085714Y-6172891D01*
X3914285Y-6772891D02*
X3914285Y-6172891D01*
X4285714Y-6772891D02*
X4285714Y-6172891D01*
X4285714Y-6172891D02*
X4514285Y-6172891D01*
X4514285Y-6172891D02*
X4571428Y-6201462D01*
X4571428Y-6201462D02*
X4599999Y-6230034D01*
X4599999Y-6230034D02*
X4628571Y-6287177D01*
X4628571Y-6287177D02*
X4628571Y-6372891D01*
X4628571Y-6372891D02*
X4599999Y-6430034D01*
X4599999Y-6430034D02*
X4571428Y-6458605D01*
X4571428Y-6458605D02*
X4514285Y-6487177D01*
X4514285Y-6487177D02*
X4285714Y-6487177D01*
X5199999Y-6772891D02*
X4857142Y-6772891D01*
X5028571Y-6772891D02*
X5028571Y-6172891D01*
X5028571Y-6172891D02*
X4971428Y-6258605D01*
X4971428Y-6258605D02*
X4914285Y-6315748D01*
X4914285Y-6315748D02*
X4857142Y-6344320D01*
D10*
X9612380Y-7454819D02*
X9040952Y-7454819D01*
X9326666Y-7454819D02*
X9326666Y-6454819D01*
X9326666Y-6454819D02*
X9231428Y-6597676D01*
X9231428Y-6597676D02*
X9136190Y-6692914D01*
X9136190Y-6692914D02*
X9040952Y-6740533D01*
X10231428Y-6454819D02*
X10326666Y-6454819D01*
X10326666Y-6454819D02*
X10421904Y-6502438D01*
X10421904Y-6502438D02*
X10469523Y-6550057D01*
X10469523Y-6550057D02*
X10517142Y-6645295D01*
X10517142Y-6645295D02*
X10564761Y-6835771D01*
X10564761Y-6835771D02*
X10564761Y-7073866D01*
X10564761Y-7073866D02*
X10517142Y-7264342D01*
X10517142Y-7264342D02*
X10469523Y-7359580D01*
X10469523Y-7359580D02*
X10421904Y-7407200D01*
X10421904Y-7407200D02*
X10326666Y-7454819D01*
X10326666Y-7454819D02*
X10231428Y-7454819D01*
X10231428Y-7454819D02*
X10136190Y-7407200D01*
X10136190Y-7407200D02*
X10088571Y-7359580D01*
X10088571Y-7359580D02*
X10040952Y-7264342D01*
X10040952Y-7264342D02*
X9993333Y-7073866D01*
X9993333Y-7073866D02*
X9993333Y-6835771D01*
X9993333Y-6835771D02*
X10040952Y-6645295D01*
X10040952Y-6645295D02*
X10088571Y-6550057D01*
X10088571Y-6550057D02*
X10136190Y-6502438D01*
X10136190Y-6502438D02*
X10231428Y-6454819D01*
X11183809Y-6454819D02*
X11279047Y-6454819D01*
X11279047Y-6454819D02*
X11374285Y-6502438D01*
X11374285Y-6502438D02*
X11421904Y-6550057D01*
X11421904Y-6550057D02*
X11469523Y-6645295D01*
X11469523Y-6645295D02*
X11517142Y-6835771D01*
X11517142Y-6835771D02*
X11517142Y-7073866D01*
X11517142Y-7073866D02*
X11469523Y-7264342D01*
X11469523Y-7264342D02*
X11421904Y-7359580D01*
X11421904Y-7359580D02*
X11374285Y-7407200D01*
X11374285Y-7407200D02*
X11279047Y-7454819D01*
X11279047Y-7454819D02*
X11183809Y-7454819D01*
X11183809Y-7454819D02*
X11088571Y-7407200D01*
X11088571Y-7407200D02*
X11040952Y-7359580D01*
X11040952Y-7359580D02*
X10993333Y-7264342D01*
X10993333Y-7264342D02*
X10945714Y-7073866D01*
X10945714Y-7073866D02*
X10945714Y-6835771D01*
X10945714Y-6835771D02*
X10993333Y-6645295D01*
X10993333Y-6645295D02*
X11040952Y-6550057D01*
X11040952Y-6550057D02*
X11088571Y-6502438D01*
X11088571Y-6502438D02*
X11183809Y-6454819D01*
X11945714Y-6788152D02*
X11945714Y-7454819D01*
X11945714Y-6883390D02*
X11993333Y-6835771D01*
X11993333Y-6835771D02*
X12088571Y-6788152D01*
X12088571Y-6788152D02*
X12231428Y-6788152D01*
X12231428Y-6788152D02*
X12326666Y-6835771D01*
X12326666Y-6835771D02*
X12374285Y-6931009D01*
X12374285Y-6931009D02*
X12374285Y-7454819D01*
X13183809Y-6931009D02*
X12850476Y-6931009D01*
X12850476Y-7454819D02*
X12850476Y-6454819D01*
X12850476Y-6454819D02*
X13326666Y-6454819D01*
D11*
X9958333Y-7089765D02*
X9946429Y-7101670D01*
X9946429Y-7101670D02*
X9910714Y-7113574D01*
X9910714Y-7113574D02*
X9886905Y-7113574D01*
X9886905Y-7113574D02*
X9851191Y-7101670D01*
X9851191Y-7101670D02*
X9827381Y-7077860D01*
X9827381Y-7077860D02*
X9815476Y-7054050D01*
X9815476Y-7054050D02*
X9803572Y-7006431D01*
X9803572Y-7006431D02*
X9803572Y-6970717D01*
X9803572Y-6970717D02*
X9815476Y-6923098D01*
X9815476Y-6923098D02*
X9827381Y-6899289D01*
X9827381Y-6899289D02*
X9851191Y-6875479D01*
X9851191Y-6875479D02*
X9886905Y-6863574D01*
X9886905Y-6863574D02*
X9910714Y-6863574D01*
X9910714Y-6863574D02*
X9946429Y-6875479D01*
X9946429Y-6875479D02*
X9958333Y-6887384D01*
X10053572Y-6887384D02*
X10065476Y-6875479D01*
X10065476Y-6875479D02*
X10089286Y-6863574D01*
X10089286Y-6863574D02*
X10148810Y-6863574D01*
X10148810Y-6863574D02*
X10172619Y-6875479D01*
X10172619Y-6875479D02*
X10184524Y-6887384D01*
X10184524Y-6887384D02*
X10196429Y-6911193D01*
X10196429Y-6911193D02*
X10196429Y-6935003D01*
X10196429Y-6935003D02*
X10184524Y-6970717D01*
X10184524Y-6970717D02*
X10041667Y-7113574D01*
X10041667Y-7113574D02*
X10196429Y-7113574D01*
D10*
X3416666Y-10454819D02*
X3988094Y-10454819D01*
X3702380Y-11454819D02*
X3702380Y-10454819D01*
X4702380Y-11407200D02*
X4607142Y-11454819D01*
X4607142Y-11454819D02*
X4416666Y-11454819D01*
X4416666Y-11454819D02*
X4321428Y-11407200D01*
X4321428Y-11407200D02*
X4273809Y-11311961D01*
X4273809Y-11311961D02*
X4273809Y-10931009D01*
X4273809Y-10931009D02*
X4321428Y-10835771D01*
X4321428Y-10835771D02*
X4416666Y-10788152D01*
X4416666Y-10788152D02*
X4607142Y-10788152D01*
X4607142Y-10788152D02*
X4702380Y-10835771D01*
X4702380Y-10835771D02*
X4749999Y-10931009D01*
X4749999Y-10931009D02*
X4749999Y-11026247D01*
X4749999Y-11026247D02*
X4273809Y-11121485D01*
X5130952Y-11407200D02*
X5226190Y-11454819D01*
X5226190Y-11454819D02*
X5416666Y-11454819D01*
X5416666Y-11454819D02*
X5511904Y-11407200D01*
X5511904Y-11407200D02*
X5559523Y-11311961D01*
X5559523Y-11311961D02*
X5559523Y-11264342D01*
X5559523Y-11264342D02*
X5511904Y-11169104D01*
X5511904Y-11169104D02*
X5416666Y-11121485D01*
X5416666Y-11121485D02*
X5273809Y-11121485D01*
X5273809Y-11121485D02*
X5178571Y-11073866D01*
X5178571Y-11073866D02*
X5130952Y-10978628D01*
X5130952Y-10978628D02*
X5130952Y-10931009D01*
X5130952Y-10931009D02*
X5178571Y-10835771D01*
X5178571Y-10835771D02*
X5273809Y-10788152D01*
X5273809Y-10788152D02*
X5416666Y-10788152D01*
X5416666Y-10788152D02*
X5511904Y-10835771D01*
X5845238Y-10788152D02*
X6226190Y-10788152D01*
X5988095Y-10454819D02*
X5988095Y-11311961D01*
X5988095Y-11311961D02*
X6035714Y-11407200D01*
X6035714Y-11407200D02*
X6130952Y-11454819D01*
X6130952Y-11454819D02*
X6226190Y-11454819D01*
X6559524Y-11454819D02*
X6559524Y-10454819D01*
X6559524Y-10454819D02*
X6940476Y-10454819D01*
X6940476Y-10454819D02*
X7035714Y-10502438D01*
X7035714Y-10502438D02*
X7083333Y-10550057D01*
X7083333Y-10550057D02*
X7130952Y-10645295D01*
X7130952Y-10645295D02*
X7130952Y-10788152D01*
X7130952Y-10788152D02*
X7083333Y-10883390D01*
X7083333Y-10883390D02*
X7035714Y-10931009D01*
X7035714Y-10931009D02*
X6940476Y-10978628D01*
X6940476Y-10978628D02*
X6559524Y-10978628D01*
X7702381Y-11454819D02*
X7607143Y-11407200D01*
X7607143Y-11407200D02*
X7559524Y-11359580D01*
X7559524Y-11359580D02*
X7511905Y-11264342D01*
X7511905Y-11264342D02*
X7511905Y-10978628D01*
X7511905Y-10978628D02*
X7559524Y-10883390D01*
X7559524Y-10883390D02*
X7607143Y-10835771D01*
X7607143Y-10835771D02*
X7702381Y-10788152D01*
X7702381Y-10788152D02*
X7845238Y-10788152D01*
X7845238Y-10788152D02*
X7940476Y-10835771D01*
X7940476Y-10835771D02*
X7988095Y-10883390D01*
X7988095Y-10883390D02*
X8035714Y-10978628D01*
X8035714Y-10978628D02*
X8035714Y-11264342D01*
X8035714Y-11264342D02*
X7988095Y-11359580D01*
X7988095Y-11359580D02*
X7940476Y-11407200D01*
X7940476Y-11407200D02*
X7845238Y-11454819D01*
X7845238Y-11454819D02*
X7702381Y-11454819D01*
X8464286Y-11454819D02*
X8464286Y-10788152D01*
X8464286Y-10454819D02*
X8416667Y-10502438D01*
X8416667Y-10502438D02*
X8464286Y-10550057D01*
X8464286Y-10550057D02*
X8511905Y-10502438D01*
X8511905Y-10502438D02*
X8464286Y-10454819D01*
X8464286Y-10454819D02*
X8464286Y-10550057D01*
X8940476Y-10788152D02*
X8940476Y-11454819D01*
X8940476Y-10883390D02*
X8988095Y-10835771D01*
X8988095Y-10835771D02*
X9083333Y-10788152D01*
X9083333Y-10788152D02*
X9226190Y-10788152D01*
X9226190Y-10788152D02*
X9321428Y-10835771D01*
X9321428Y-10835771D02*
X9369047Y-10931009D01*
X9369047Y-10931009D02*
X9369047Y-11454819D01*
X9702381Y-10788152D02*
X10083333Y-10788152D01*
X9845238Y-10454819D02*
X9845238Y-11311961D01*
X9845238Y-11311961D02*
X9892857Y-11407200D01*
X9892857Y-11407200D02*
X9988095Y-11454819D01*
X9988095Y-11454819D02*
X10083333Y-11454819D01*
D13*
X3742856Y-10672891D02*
X4085714Y-10672891D01*
X3914285Y-11272891D02*
X3914285Y-10672891D01*
X4285714Y-11272891D02*
X4285714Y-10672891D01*
X4285714Y-10672891D02*
X4514285Y-10672891D01*
X4514285Y-10672891D02*
X4571428Y-10701462D01*
X4571428Y-10701462D02*
X4599999Y-10730034D01*
X4599999Y-10730034D02*
X4628571Y-10787177D01*
X4628571Y-10787177D02*
X4628571Y-10872891D01*
X4628571Y-10872891D02*
X4599999Y-10930034D01*
X4599999Y-10930034D02*
X4571428Y-10958605D01*
X4571428Y-10958605D02*
X4514285Y-10987177D01*
X4514285Y-10987177D02*
X4285714Y-10987177D01*
X4857142Y-10730034D02*
X4885714Y-10701462D01*
X4885714Y-10701462D02*
X4942857Y-10672891D01*
X4942857Y-10672891D02*
X5085714Y-10672891D01*
X5085714Y-10672891D02*
X5142857Y-10701462D01*
X5142857Y-10701462D02*
X5171428Y-10730034D01*
X5171428Y-10730034D02*
X5199999Y-10787177D01*
X5199999Y-10787177D02*
X5199999Y-10844320D01*
X5199999Y-10844320D02*
X5171428Y-10930034D01*
X5171428Y-10930034D02*
X4828571Y-11272891D01*
X4828571Y-11272891D02*
X5199999Y-11272891D01*
D10*
X18357143Y-13010057D02*
X18404762Y-12962438D01*
X18404762Y-12962438D02*
X18500000Y-12914819D01*
X18500000Y-12914819D02*
X18738095Y-12914819D01*
X18738095Y-12914819D02*
X18833333Y-12962438D01*
X18833333Y-12962438D02*
X18880952Y-13010057D01*
X18880952Y-13010057D02*
X18928571Y-13105295D01*
X18928571Y-13105295D02*
X18928571Y-13200533D01*
X18928571Y-13200533D02*
X18880952Y-13343390D01*
X18880952Y-13343390D02*
X18309524Y-13914819D01*
X18309524Y-13914819D02*
X18928571Y-13914819D01*
X19309524Y-13010057D02*
X19357143Y-12962438D01*
X19357143Y-12962438D02*
X19452381Y-12914819D01*
X19452381Y-12914819D02*
X19690476Y-12914819D01*
X19690476Y-12914819D02*
X19785714Y-12962438D01*
X19785714Y-12962438D02*
X19833333Y-13010057D01*
X19833333Y-13010057D02*
X19880952Y-13105295D01*
X19880952Y-13105295D02*
X19880952Y-13200533D01*
X19880952Y-13200533D02*
X19833333Y-13343390D01*
X19833333Y-13343390D02*
X19261905Y-13914819D01*
X19261905Y-13914819D02*
X19880952Y-13914819D01*
X20309524Y-13248152D02*
X20309524Y-14248152D01*
X20309524Y-13295771D02*
X20404762Y-13248152D01*
X20404762Y-13248152D02*
X20595238Y-13248152D01*
X20595238Y-13248152D02*
X20690476Y-13295771D01*
X20690476Y-13295771D02*
X20738095Y-13343390D01*
X20738095Y-13343390D02*
X20785714Y-13438628D01*
X20785714Y-13438628D02*
X20785714Y-13724342D01*
X20785714Y-13724342D02*
X20738095Y-13819580D01*
X20738095Y-13819580D02*
X20690476Y-13867200D01*
X20690476Y-13867200D02*
X20595238Y-13914819D01*
X20595238Y-13914819D02*
X20404762Y-13914819D01*
X20404762Y-13914819D02*
X20309524Y-13867200D01*
X21547619Y-13391009D02*
X21214286Y-13391009D01*
X21214286Y-13914819D02*
X21214286Y-12914819D01*
X21214286Y-12914819D02*
X21690476Y-12914819D01*
D11*
X19839285Y-12389765D02*
X19827381Y-12401670D01*
X19827381Y-12401670D02*
X19791666Y-12413574D01*
X19791666Y-12413574D02*
X19767857Y-12413574D01*
X19767857Y-12413574D02*
X19732143Y-12401670D01*
X19732143Y-12401670D02*
X19708333Y-12377860D01*
X19708333Y-12377860D02*
X19696428Y-12354050D01*
X19696428Y-12354050D02*
X19684524Y-12306431D01*
X19684524Y-12306431D02*
X19684524Y-12270717D01*
X19684524Y-12270717D02*
X19696428Y-12223098D01*
X19696428Y-12223098D02*
X19708333Y-12199289D01*
X19708333Y-12199289D02*
X19732143Y-12175479D01*
X19732143Y-12175479D02*
X19767857Y-12163574D01*
X19767857Y-12163574D02*
X19791666Y-12163574D01*
X19791666Y-12163574D02*
X19827381Y-12175479D01*
X19827381Y-12175479D02*
X19839285Y-12187384D01*
X20077381Y-12413574D02*
X19934524Y-12413574D01*
X20005952Y-12413574D02*
X20005952Y-12163574D01*
X20005952Y-12163574D02*
X19982143Y-12199289D01*
X19982143Y-12199289D02*
X19958333Y-12223098D01*
X19958333Y-12223098D02*
X19934524Y-12235003D01*
X20315476Y-12413574D02*
X20172619Y-12413574D01*
X20244047Y-12413574D02*
X20244047Y-12163574D01*
X20244047Y-12163574D02*
X20220238Y-12199289D01*
X20220238Y-12199289D02*
X20196428Y-12223098D01*
X20196428Y-12223098D02*
X20172619Y-12235003D01*
D10*
X27621429Y-9550057D02*
X27669048Y-9502438D01*
X27669048Y-9502438D02*
X27764286Y-9454819D01*
X27764286Y-9454819D02*
X28002381Y-9454819D01*
X28002381Y-9454819D02*
X28097619Y-9502438D01*
X28097619Y-9502438D02*
X28145238Y-9550057D01*
X28145238Y-9550057D02*
X28192857Y-9645295D01*
X28192857Y-9645295D02*
X28192857Y-9740533D01*
X28192857Y-9740533D02*
X28145238Y-9883390D01*
X28145238Y-9883390D02*
X27573810Y-10454819D01*
X27573810Y-10454819D02*
X28192857Y-10454819D01*
X28621429Y-10359580D02*
X28669048Y-10407200D01*
X28669048Y-10407200D02*
X28621429Y-10454819D01*
X28621429Y-10454819D02*
X28573810Y-10407200D01*
X28573810Y-10407200D02*
X28621429Y-10359580D01*
X28621429Y-10359580D02*
X28621429Y-10454819D01*
X29526190Y-9788152D02*
X29526190Y-10454819D01*
X29288095Y-9407200D02*
X29050000Y-10121485D01*
X29050000Y-10121485D02*
X29669047Y-10121485D01*
X30573809Y-9502438D02*
X30478571Y-9454819D01*
X30478571Y-9454819D02*
X30335714Y-9454819D01*
X30335714Y-9454819D02*
X30192857Y-9502438D01*
X30192857Y-9502438D02*
X30097619Y-9597676D01*
X30097619Y-9597676D02*
X30050000Y-9692914D01*
X30050000Y-9692914D02*
X30002381Y-9883390D01*
X30002381Y-9883390D02*
X30002381Y-10026247D01*
X30002381Y-10026247D02*
X30050000Y-10216723D01*
X30050000Y-10216723D02*
X30097619Y-10311961D01*
X30097619Y-10311961D02*
X30192857Y-10407200D01*
X30192857Y-10407200D02*
X30335714Y-10454819D01*
X30335714Y-10454819D02*
X30430952Y-10454819D01*
X30430952Y-10454819D02*
X30573809Y-10407200D01*
X30573809Y-10407200D02*
X30621428Y-10359580D01*
X30621428Y-10359580D02*
X30621428Y-10026247D01*
X30621428Y-10026247D02*
X30430952Y-10026247D01*
X31050000Y-10454819D02*
X31050000Y-9454819D01*
X31050000Y-9931009D02*
X31621428Y-9931009D01*
X31621428Y-10454819D02*
X31621428Y-9454819D01*
X32002381Y-9788152D02*
X32526190Y-9788152D01*
X32526190Y-9788152D02*
X32002381Y-10454819D01*
X32002381Y-10454819D02*
X32526190Y-10454819D01*
D14*
X27266666Y-10135283D02*
X27647619Y-10135283D01*
X27190476Y-10363855D02*
X27457143Y-9563855D01*
X27457143Y-9563855D02*
X27723809Y-10363855D01*
X27990476Y-9944807D02*
X28257142Y-9944807D01*
X28371428Y-10363855D02*
X27990476Y-10363855D01*
X27990476Y-10363855D02*
X27990476Y-9563855D01*
X27990476Y-9563855D02*
X28371428Y-9563855D01*
X29133333Y-10363855D02*
X28676190Y-10363855D01*
X28904762Y-10363855D02*
X28904762Y-9563855D01*
X28904762Y-9563855D02*
X28828571Y-9678140D01*
X28828571Y-9678140D02*
X28752381Y-9754331D01*
X28752381Y-9754331D02*
X28676190Y-9792426D01*
D10*
X21916666Y-15954819D02*
X22488094Y-15954819D01*
X22202380Y-16954819D02*
X22202380Y-15954819D01*
X23202380Y-16907200D02*
X23107142Y-16954819D01*
X23107142Y-16954819D02*
X22916666Y-16954819D01*
X22916666Y-16954819D02*
X22821428Y-16907200D01*
X22821428Y-16907200D02*
X22773809Y-16811961D01*
X22773809Y-16811961D02*
X22773809Y-16431009D01*
X22773809Y-16431009D02*
X22821428Y-16335771D01*
X22821428Y-16335771D02*
X22916666Y-16288152D01*
X22916666Y-16288152D02*
X23107142Y-16288152D01*
X23107142Y-16288152D02*
X23202380Y-16335771D01*
X23202380Y-16335771D02*
X23249999Y-16431009D01*
X23249999Y-16431009D02*
X23249999Y-16526247D01*
X23249999Y-16526247D02*
X22773809Y-16621485D01*
X23630952Y-16907200D02*
X23726190Y-16954819D01*
X23726190Y-16954819D02*
X23916666Y-16954819D01*
X23916666Y-16954819D02*
X24011904Y-16907200D01*
X24011904Y-16907200D02*
X24059523Y-16811961D01*
X24059523Y-16811961D02*
X24059523Y-16764342D01*
X24059523Y-16764342D02*
X24011904Y-16669104D01*
X24011904Y-16669104D02*
X23916666Y-16621485D01*
X23916666Y-16621485D02*
X23773809Y-16621485D01*
X23773809Y-16621485D02*
X23678571Y-16573866D01*
X23678571Y-16573866D02*
X23630952Y-16478628D01*
X23630952Y-16478628D02*
X23630952Y-16431009D01*
X23630952Y-16431009D02*
X23678571Y-16335771D01*
X23678571Y-16335771D02*
X23773809Y-16288152D01*
X23773809Y-16288152D02*
X23916666Y-16288152D01*
X23916666Y-16288152D02*
X24011904Y-16335771D01*
X24345238Y-16288152D02*
X24726190Y-16288152D01*
X24488095Y-15954819D02*
X24488095Y-16811961D01*
X24488095Y-16811961D02*
X24535714Y-16907200D01*
X24535714Y-16907200D02*
X24630952Y-16954819D01*
X24630952Y-16954819D02*
X24726190Y-16954819D01*
X25059524Y-16954819D02*
X25059524Y-15954819D01*
X25059524Y-15954819D02*
X25440476Y-15954819D01*
X25440476Y-15954819D02*
X25535714Y-16002438D01*
X25535714Y-16002438D02*
X25583333Y-16050057D01*
X25583333Y-16050057D02*
X25630952Y-16145295D01*
X25630952Y-16145295D02*
X25630952Y-16288152D01*
X25630952Y-16288152D02*
X25583333Y-16383390D01*
X25583333Y-16383390D02*
X25535714Y-16431009D01*
X25535714Y-16431009D02*
X25440476Y-16478628D01*
X25440476Y-16478628D02*
X25059524Y-16478628D01*
X26202381Y-16954819D02*
X26107143Y-16907200D01*
X26107143Y-16907200D02*
X26059524Y-16859580D01*
X26059524Y-16859580D02*
X26011905Y-16764342D01*
X26011905Y-16764342D02*
X26011905Y-16478628D01*
X26011905Y-16478628D02*
X26059524Y-16383390D01*
X26059524Y-16383390D02*
X26107143Y-16335771D01*
X26107143Y-16335771D02*
X26202381Y-16288152D01*
X26202381Y-16288152D02*
X26345238Y-16288152D01*
X26345238Y-16288152D02*
X26440476Y-16335771D01*
X26440476Y-16335771D02*
X26488095Y-16383390D01*
X26488095Y-16383390D02*
X26535714Y-16478628D01*
X26535714Y-16478628D02*
X26535714Y-16764342D01*
X26535714Y-16764342D02*
X26488095Y-16859580D01*
X26488095Y-16859580D02*
X26440476Y-16907200D01*
X26440476Y-16907200D02*
X26345238Y-16954819D01*
X26345238Y-16954819D02*
X26202381Y-16954819D01*
X26964286Y-16954819D02*
X26964286Y-16288152D01*
X26964286Y-15954819D02*
X26916667Y-16002438D01*
X26916667Y-16002438D02*
X26964286Y-16050057D01*
X26964286Y-16050057D02*
X27011905Y-16002438D01*
X27011905Y-16002438D02*
X26964286Y-15954819D01*
X26964286Y-15954819D02*
X26964286Y-16050057D01*
X27440476Y-16288152D02*
X27440476Y-16954819D01*
X27440476Y-16383390D02*
X27488095Y-16335771D01*
X27488095Y-16335771D02*
X27583333Y-16288152D01*
X27583333Y-16288152D02*
X27726190Y-16288152D01*
X27726190Y-16288152D02*
X27821428Y-16335771D01*
X27821428Y-16335771D02*
X27869047Y-16431009D01*
X27869047Y-16431009D02*
X27869047Y-16954819D01*
X28202381Y-16288152D02*
X28583333Y-16288152D01*
X28345238Y-15954819D02*
X28345238Y-16811961D01*
X28345238Y-16811961D02*
X28392857Y-16907200D01*
X28392857Y-16907200D02*
X28488095Y-16954819D01*
X28488095Y-16954819D02*
X28583333Y-16954819D01*
D13*
X22242856Y-16172891D02*
X22585714Y-16172891D01*
X22414285Y-16772891D02*
X22414285Y-16172891D01*
X22785714Y-16772891D02*
X22785714Y-16172891D01*
X22785714Y-16172891D02*
X23014285Y-16172891D01*
X23014285Y-16172891D02*
X23071428Y-16201462D01*
X23071428Y-16201462D02*
X23099999Y-16230034D01*
X23099999Y-16230034D02*
X23128571Y-16287177D01*
X23128571Y-16287177D02*
X23128571Y-16372891D01*
X23128571Y-16372891D02*
X23099999Y-16430034D01*
X23099999Y-16430034D02*
X23071428Y-16458605D01*
X23071428Y-16458605D02*
X23014285Y-16487177D01*
X23014285Y-16487177D02*
X22785714Y-16487177D01*
X23671428Y-16172891D02*
X23385714Y-16172891D01*
X23385714Y-16172891D02*
X23357142Y-16458605D01*
X23357142Y-16458605D02*
X23385714Y-16430034D01*
X23385714Y-16430034D02*
X23442857Y-16401462D01*
X23442857Y-16401462D02*
X23585714Y-16401462D01*
X23585714Y-16401462D02*
X23642857Y-16430034D01*
X23642857Y-16430034D02*
X23671428Y-16458605D01*
X23671428Y-16458605D02*
X23699999Y-16515748D01*
X23699999Y-16515748D02*
X23699999Y-16658605D01*
X23699999Y-16658605D02*
X23671428Y-16715748D01*
X23671428Y-16715748D02*
X23642857Y-16744320D01*
X23642857Y-16744320D02*
X23585714Y-16772891D01*
X23585714Y-16772891D02*
X23442857Y-16772891D01*
X23442857Y-16772891D02*
X23385714Y-16744320D01*
X23385714Y-16744320D02*
X23357142Y-16715748D01*
D10*
X9598571Y-14254819D02*
X9027143Y-14254819D01*
X9312857Y-14254819D02*
X9312857Y-13254819D01*
X9312857Y-13254819D02*
X9217619Y-13397676D01*
X9217619Y-13397676D02*
X9122381Y-13492914D01*
X9122381Y-13492914D02*
X9027143Y-13540533D01*
X10217619Y-13254819D02*
X10312857Y-13254819D01*
X10312857Y-13254819D02*
X10408095Y-13302438D01*
X10408095Y-13302438D02*
X10455714Y-13350057D01*
X10455714Y-13350057D02*
X10503333Y-13445295D01*
X10503333Y-13445295D02*
X10550952Y-13635771D01*
X10550952Y-13635771D02*
X10550952Y-13873866D01*
X10550952Y-13873866D02*
X10503333Y-14064342D01*
X10503333Y-14064342D02*
X10455714Y-14159580D01*
X10455714Y-14159580D02*
X10408095Y-14207200D01*
X10408095Y-14207200D02*
X10312857Y-14254819D01*
X10312857Y-14254819D02*
X10217619Y-14254819D01*
X10217619Y-14254819D02*
X10122381Y-14207200D01*
X10122381Y-14207200D02*
X10074762Y-14159580D01*
X10074762Y-14159580D02*
X10027143Y-14064342D01*
X10027143Y-14064342D02*
X9979524Y-13873866D01*
X9979524Y-13873866D02*
X9979524Y-13635771D01*
X9979524Y-13635771D02*
X10027143Y-13445295D01*
X10027143Y-13445295D02*
X10074762Y-13350057D01*
X10074762Y-13350057D02*
X10122381Y-13302438D01*
X10122381Y-13302438D02*
X10217619Y-13254819D01*
X11170000Y-13254819D02*
X11265238Y-13254819D01*
X11265238Y-13254819D02*
X11360476Y-13302438D01*
X11360476Y-13302438D02*
X11408095Y-13350057D01*
X11408095Y-13350057D02*
X11455714Y-13445295D01*
X11455714Y-13445295D02*
X11503333Y-13635771D01*
X11503333Y-13635771D02*
X11503333Y-13873866D01*
X11503333Y-13873866D02*
X11455714Y-14064342D01*
X11455714Y-14064342D02*
X11408095Y-14159580D01*
X11408095Y-14159580D02*
X11360476Y-14207200D01*
X11360476Y-14207200D02*
X11265238Y-14254819D01*
X11265238Y-14254819D02*
X11170000Y-14254819D01*
X11170000Y-14254819D02*
X11074762Y-14207200D01*
X11074762Y-14207200D02*
X11027143Y-14159580D01*
X11027143Y-14159580D02*
X10979524Y-14064342D01*
X10979524Y-14064342D02*
X10931905Y-13873866D01*
X10931905Y-13873866D02*
X10931905Y-13635771D01*
X10931905Y-13635771D02*
X10979524Y-13445295D01*
X10979524Y-13445295D02*
X11027143Y-13350057D01*
X11027143Y-13350057D02*
X11074762Y-13302438D01*
X11074762Y-13302438D02*
X11170000Y-13254819D01*
X11931905Y-14254819D02*
X11931905Y-13254819D01*
X12027143Y-13873866D02*
X12312857Y-14254819D01*
X12312857Y-13588152D02*
X11931905Y-13969104D01*
D11*
X9456667Y-13918200D02*
X9370000Y-13794391D01*
X9308095Y-13918200D02*
X9308095Y-13658200D01*
X9308095Y-13658200D02*
X9407143Y-13658200D01*
X9407143Y-13658200D02*
X9431905Y-13670581D01*
X9431905Y-13670581D02*
X9444286Y-13682962D01*
X9444286Y-13682962D02*
X9456667Y-13707724D01*
X9456667Y-13707724D02*
X9456667Y-13744867D01*
X9456667Y-13744867D02*
X9444286Y-13769629D01*
X9444286Y-13769629D02*
X9431905Y-13782010D01*
X9431905Y-13782010D02*
X9407143Y-13794391D01*
X9407143Y-13794391D02*
X9308095Y-13794391D01*
X9704286Y-13918200D02*
X9555714Y-13918200D01*
X9630000Y-13918200D02*
X9630000Y-13658200D01*
X9630000Y-13658200D02*
X9605238Y-13695343D01*
X9605238Y-13695343D02*
X9580476Y-13720105D01*
X9580476Y-13720105D02*
X9555714Y-13732486D01*
D10*
X14288571Y-6454819D02*
X13717143Y-6454819D01*
X14002857Y-6454819D02*
X14002857Y-5454819D01*
X14002857Y-5454819D02*
X13907619Y-5597676D01*
X13907619Y-5597676D02*
X13812381Y-5692914D01*
X13812381Y-5692914D02*
X13717143Y-5740533D01*
X14669524Y-5550057D02*
X14717143Y-5502438D01*
X14717143Y-5502438D02*
X14812381Y-5454819D01*
X14812381Y-5454819D02*
X15050476Y-5454819D01*
X15050476Y-5454819D02*
X15145714Y-5502438D01*
X15145714Y-5502438D02*
X15193333Y-5550057D01*
X15193333Y-5550057D02*
X15240952Y-5645295D01*
X15240952Y-5645295D02*
X15240952Y-5740533D01*
X15240952Y-5740533D02*
X15193333Y-5883390D01*
X15193333Y-5883390D02*
X14621905Y-6454819D01*
X14621905Y-6454819D02*
X15240952Y-6454819D01*
X15669524Y-5788152D02*
X15669524Y-6788152D01*
X15669524Y-5835771D02*
X15764762Y-5788152D01*
X15764762Y-5788152D02*
X15955238Y-5788152D01*
X15955238Y-5788152D02*
X16050476Y-5835771D01*
X16050476Y-5835771D02*
X16098095Y-5883390D01*
X16098095Y-5883390D02*
X16145714Y-5978628D01*
X16145714Y-5978628D02*
X16145714Y-6264342D01*
X16145714Y-6264342D02*
X16098095Y-6359580D01*
X16098095Y-6359580D02*
X16050476Y-6407200D01*
X16050476Y-6407200D02*
X15955238Y-6454819D01*
X15955238Y-6454819D02*
X15764762Y-6454819D01*
X15764762Y-6454819D02*
X15669524Y-6407200D01*
X16907619Y-5931009D02*
X16574286Y-5931009D01*
X16574286Y-6454819D02*
X16574286Y-5454819D01*
X16574286Y-5454819D02*
X17050476Y-5454819D01*
D11*
X14158333Y-6089765D02*
X14146429Y-6101670D01*
X14146429Y-6101670D02*
X14110714Y-6113574D01*
X14110714Y-6113574D02*
X14086905Y-6113574D01*
X14086905Y-6113574D02*
X14051191Y-6101670D01*
X14051191Y-6101670D02*
X14027381Y-6077860D01*
X14027381Y-6077860D02*
X14015476Y-6054050D01*
X14015476Y-6054050D02*
X14003572Y-6006431D01*
X14003572Y-6006431D02*
X14003572Y-5970717D01*
X14003572Y-5970717D02*
X14015476Y-5923098D01*
X14015476Y-5923098D02*
X14027381Y-5899289D01*
X14027381Y-5899289D02*
X14051191Y-5875479D01*
X14051191Y-5875479D02*
X14086905Y-5863574D01*
X14086905Y-5863574D02*
X14110714Y-5863574D01*
X14110714Y-5863574D02*
X14146429Y-5875479D01*
X14146429Y-5875479D02*
X14158333Y-5887384D01*
X14241667Y-5863574D02*
X14408333Y-5863574D01*
X14408333Y-5863574D02*
X14301191Y-6113574D01*
D10*
X9452381Y-14999104D02*
X9928571Y-14999104D01*
X9357143Y-15284819D02*
X9690476Y-14284819D01*
X9690476Y-14284819D02*
X10023809Y-15284819D01*
X10214286Y-14284819D02*
X10785714Y-14284819D01*
X10500000Y-15284819D02*
X10500000Y-14284819D01*
X11261905Y-14713390D02*
X11166667Y-14665771D01*
X11166667Y-14665771D02*
X11119048Y-14618152D01*
X11119048Y-14618152D02*
X11071429Y-14522914D01*
X11071429Y-14522914D02*
X11071429Y-14475295D01*
X11071429Y-14475295D02*
X11119048Y-14380057D01*
X11119048Y-14380057D02*
X11166667Y-14332438D01*
X11166667Y-14332438D02*
X11261905Y-14284819D01*
X11261905Y-14284819D02*
X11452381Y-14284819D01*
X11452381Y-14284819D02*
X11547619Y-14332438D01*
X11547619Y-14332438D02*
X11595238Y-14380057D01*
X11595238Y-14380057D02*
X11642857Y-14475295D01*
X11642857Y-14475295D02*
X11642857Y-14522914D01*
X11642857Y-14522914D02*
X11595238Y-14618152D01*
X11595238Y-14618152D02*
X11547619Y-14665771D01*
X11547619Y-14665771D02*
X11452381Y-14713390D01*
X11452381Y-14713390D02*
X11261905Y-14713390D01*
X11261905Y-14713390D02*
X11166667Y-14761009D01*
X11166667Y-14761009D02*
X11119048Y-14808628D01*
X11119048Y-14808628D02*
X11071429Y-14903866D01*
X11071429Y-14903866D02*
X11071429Y-15094342D01*
X11071429Y-15094342D02*
X11119048Y-15189580D01*
X11119048Y-15189580D02*
X11166667Y-15237200D01*
X11166667Y-15237200D02*
X11261905Y-15284819D01*
X11261905Y-15284819D02*
X11452381Y-15284819D01*
X11452381Y-15284819D02*
X11547619Y-15237200D01*
X11547619Y-15237200D02*
X11595238Y-15189580D01*
X11595238Y-15189580D02*
X11642857Y-15094342D01*
X11642857Y-15094342D02*
X11642857Y-14903866D01*
X11642857Y-14903866D02*
X11595238Y-14808628D01*
X11595238Y-14808628D02*
X11547619Y-14761009D01*
X11547619Y-14761009D02*
X11452381Y-14713390D01*
X12500000Y-14284819D02*
X12309524Y-14284819D01*
X12309524Y-14284819D02*
X12214286Y-14332438D01*
X12214286Y-14332438D02*
X12166667Y-14380057D01*
X12166667Y-14380057D02*
X12071429Y-14522914D01*
X12071429Y-14522914D02*
X12023810Y-14713390D01*
X12023810Y-14713390D02*
X12023810Y-15094342D01*
X12023810Y-15094342D02*
X12071429Y-15189580D01*
X12071429Y-15189580D02*
X12119048Y-15237200D01*
X12119048Y-15237200D02*
X12214286Y-15284819D01*
X12214286Y-15284819D02*
X12404762Y-15284819D01*
X12404762Y-15284819D02*
X12500000Y-15237200D01*
X12500000Y-15237200D02*
X12547619Y-15189580D01*
X12547619Y-15189580D02*
X12595238Y-15094342D01*
X12595238Y-15094342D02*
X12595238Y-14856247D01*
X12595238Y-14856247D02*
X12547619Y-14761009D01*
X12547619Y-14761009D02*
X12500000Y-14713390D01*
X12500000Y-14713390D02*
X12404762Y-14665771D01*
X12404762Y-14665771D02*
X12214286Y-14665771D01*
X12214286Y-14665771D02*
X12119048Y-14713390D01*
X12119048Y-14713390D02*
X12071429Y-14761009D01*
X12071429Y-14761009D02*
X12023810Y-14856247D01*
X13595238Y-15284819D02*
X13261905Y-14808628D01*
X13023810Y-15284819D02*
X13023810Y-14284819D01*
X13023810Y-14284819D02*
X13404762Y-14284819D01*
X13404762Y-14284819D02*
X13500000Y-14332438D01*
X13500000Y-14332438D02*
X13547619Y-14380057D01*
X13547619Y-14380057D02*
X13595238Y-14475295D01*
X13595238Y-14475295D02*
X13595238Y-14618152D01*
X13595238Y-14618152D02*
X13547619Y-14713390D01*
X13547619Y-14713390D02*
X13500000Y-14761009D01*
X13500000Y-14761009D02*
X13404762Y-14808628D01*
X13404762Y-14808628D02*
X13023810Y-14808628D01*
X14357143Y-14761009D02*
X14023810Y-14761009D01*
X14023810Y-15284819D02*
X14023810Y-14284819D01*
X14023810Y-14284819D02*
X14500000Y-14284819D01*
X14833334Y-14380057D02*
X14880953Y-14332438D01*
X14880953Y-14332438D02*
X14976191Y-14284819D01*
X14976191Y-14284819D02*
X15214286Y-14284819D01*
X15214286Y-14284819D02*
X15309524Y-14332438D01*
X15309524Y-14332438D02*
X15357143Y-14380057D01*
X15357143Y-14380057D02*
X15404762Y-14475295D01*
X15404762Y-14475295D02*
X15404762Y-14570533D01*
X15404762Y-14570533D02*
X15357143Y-14713390D01*
X15357143Y-14713390D02*
X14785715Y-15284819D01*
X14785715Y-15284819D02*
X15404762Y-15284819D01*
X15738096Y-14284819D02*
X16357143Y-14284819D01*
X16357143Y-14284819D02*
X16023810Y-14665771D01*
X16023810Y-14665771D02*
X16166667Y-14665771D01*
X16166667Y-14665771D02*
X16261905Y-14713390D01*
X16261905Y-14713390D02*
X16309524Y-14761009D01*
X16309524Y-14761009D02*
X16357143Y-14856247D01*
X16357143Y-14856247D02*
X16357143Y-15094342D01*
X16357143Y-15094342D02*
X16309524Y-15189580D01*
X16309524Y-15189580D02*
X16261905Y-15237200D01*
X16261905Y-15237200D02*
X16166667Y-15284819D01*
X16166667Y-15284819D02*
X15880953Y-15284819D01*
X15880953Y-15284819D02*
X15785715Y-15237200D01*
X15785715Y-15237200D02*
X15738096Y-15189580D01*
X16690477Y-14284819D02*
X17309524Y-14284819D01*
X17309524Y-14284819D02*
X16976191Y-14665771D01*
X16976191Y-14665771D02*
X17119048Y-14665771D01*
X17119048Y-14665771D02*
X17214286Y-14713390D01*
X17214286Y-14713390D02*
X17261905Y-14761009D01*
X17261905Y-14761009D02*
X17309524Y-14856247D01*
X17309524Y-14856247D02*
X17309524Y-15094342D01*
X17309524Y-15094342D02*
X17261905Y-15189580D01*
X17261905Y-15189580D02*
X17214286Y-15237200D01*
X17214286Y-15237200D02*
X17119048Y-15284819D01*
X17119048Y-15284819D02*
X16833334Y-15284819D01*
X16833334Y-15284819D02*
X16738096Y-15237200D01*
X16738096Y-15237200D02*
X16690477Y-15189580D01*
X17738096Y-14903866D02*
X18500001Y-14903866D01*
X18880953Y-14284819D02*
X19547619Y-14284819D01*
X19547619Y-14284819D02*
X18880953Y-15284819D01*
X18880953Y-15284819D02*
X19547619Y-15284819D01*
X19928572Y-14284819D02*
X19928572Y-15094342D01*
X19928572Y-15094342D02*
X19976191Y-15189580D01*
X19976191Y-15189580D02*
X20023810Y-15237200D01*
X20023810Y-15237200D02*
X20119048Y-15284819D01*
X20119048Y-15284819D02*
X20309524Y-15284819D01*
X20309524Y-15284819D02*
X20404762Y-15237200D01*
X20404762Y-15237200D02*
X20452381Y-15189580D01*
X20452381Y-15189580D02*
X20500000Y-15094342D01*
X20500000Y-15094342D02*
X20500000Y-14284819D01*
X14238095Y-10454819D02*
X14238095Y-11264342D01*
X14238095Y-11264342D02*
X14285714Y-11359580D01*
X14285714Y-11359580D02*
X14333333Y-11407200D01*
X14333333Y-11407200D02*
X14428571Y-11454819D01*
X14428571Y-11454819D02*
X14619047Y-11454819D01*
X14619047Y-11454819D02*
X14714285Y-11407200D01*
X14714285Y-11407200D02*
X14761904Y-11359580D01*
X14761904Y-11359580D02*
X14809523Y-11264342D01*
X14809523Y-11264342D02*
X14809523Y-10454819D01*
X15809523Y-11454819D02*
X15238095Y-11454819D01*
X15523809Y-11454819D02*
X15523809Y-10454819D01*
X15523809Y-10454819D02*
X15428571Y-10597676D01*
X15428571Y-10597676D02*
X15333333Y-10692914D01*
X15333333Y-10692914D02*
X15238095Y-10740533D01*
X22146191Y-9454819D02*
X22765238Y-9454819D01*
X22765238Y-9454819D02*
X22431905Y-9835771D01*
X22431905Y-9835771D02*
X22574762Y-9835771D01*
X22574762Y-9835771D02*
X22670000Y-9883390D01*
X22670000Y-9883390D02*
X22717619Y-9931009D01*
X22717619Y-9931009D02*
X22765238Y-10026247D01*
X22765238Y-10026247D02*
X22765238Y-10264342D01*
X22765238Y-10264342D02*
X22717619Y-10359580D01*
X22717619Y-10359580D02*
X22670000Y-10407200D01*
X22670000Y-10407200D02*
X22574762Y-10454819D01*
X22574762Y-10454819D02*
X22289048Y-10454819D01*
X22289048Y-10454819D02*
X22193810Y-10407200D01*
X22193810Y-10407200D02*
X22146191Y-10359580D01*
X23193810Y-10359580D02*
X23241429Y-10407200D01*
X23241429Y-10407200D02*
X23193810Y-10454819D01*
X23193810Y-10454819D02*
X23146191Y-10407200D01*
X23146191Y-10407200D02*
X23193810Y-10359580D01*
X23193810Y-10359580D02*
X23193810Y-10454819D01*
X23717619Y-10454819D02*
X23908095Y-10454819D01*
X23908095Y-10454819D02*
X24003333Y-10407200D01*
X24003333Y-10407200D02*
X24050952Y-10359580D01*
X24050952Y-10359580D02*
X24146190Y-10216723D01*
X24146190Y-10216723D02*
X24193809Y-10026247D01*
X24193809Y-10026247D02*
X24193809Y-9645295D01*
X24193809Y-9645295D02*
X24146190Y-9550057D01*
X24146190Y-9550057D02*
X24098571Y-9502438D01*
X24098571Y-9502438D02*
X24003333Y-9454819D01*
X24003333Y-9454819D02*
X23812857Y-9454819D01*
X23812857Y-9454819D02*
X23717619Y-9502438D01*
X23717619Y-9502438D02*
X23670000Y-9550057D01*
X23670000Y-9550057D02*
X23622381Y-9645295D01*
X23622381Y-9645295D02*
X23622381Y-9883390D01*
X23622381Y-9883390D02*
X23670000Y-9978628D01*
X23670000Y-9978628D02*
X23717619Y-10026247D01*
X23717619Y-10026247D02*
X23812857Y-10073866D01*
X23812857Y-10073866D02*
X24003333Y-10073866D01*
X24003333Y-10073866D02*
X24098571Y-10026247D01*
X24098571Y-10026247D02*
X24146190Y-9978628D01*
X24146190Y-9978628D02*
X24193809Y-9883390D01*
X24622381Y-9788152D02*
X24622381Y-10454819D01*
X24622381Y-9883390D02*
X24670000Y-9835771D01*
X24670000Y-9835771D02*
X24765238Y-9788152D01*
X24765238Y-9788152D02*
X24908095Y-9788152D01*
X24908095Y-9788152D02*
X25003333Y-9835771D01*
X25003333Y-9835771D02*
X25050952Y-9931009D01*
X25050952Y-9931009D02*
X25050952Y-10454819D01*
X25527143Y-10454819D02*
X25527143Y-9454819D01*
X25527143Y-9931009D02*
X26098571Y-9931009D01*
X26098571Y-10454819D02*
X26098571Y-9454819D01*
D11*
X22958333Y-10113574D02*
X22839285Y-10113574D01*
X22839285Y-10113574D02*
X22839285Y-9863574D01*
X23029762Y-9887384D02*
X23041666Y-9875479D01*
X23041666Y-9875479D02*
X23065476Y-9863574D01*
X23065476Y-9863574D02*
X23125000Y-9863574D01*
X23125000Y-9863574D02*
X23148809Y-9875479D01*
X23148809Y-9875479D02*
X23160714Y-9887384D01*
X23160714Y-9887384D02*
X23172619Y-9911193D01*
X23172619Y-9911193D02*
X23172619Y-9935003D01*
X23172619Y-9935003D02*
X23160714Y-9970717D01*
X23160714Y-9970717D02*
X23017857Y-10113574D01*
X23017857Y-10113574D02*
X23172619Y-10113574D01*
D10*
X11908095Y-4654819D02*
X11717619Y-4654819D01*
X11717619Y-4654819D02*
X11622381Y-4702438D01*
X11622381Y-4702438D02*
X11574762Y-4750057D01*
X11574762Y-4750057D02*
X11479524Y-4892914D01*
X11479524Y-4892914D02*
X11431905Y-5083390D01*
X11431905Y-5083390D02*
X11431905Y-5464342D01*
X11431905Y-5464342D02*
X11479524Y-5559580D01*
X11479524Y-5559580D02*
X11527143Y-5607200D01*
X11527143Y-5607200D02*
X11622381Y-5654819D01*
X11622381Y-5654819D02*
X11812857Y-5654819D01*
X11812857Y-5654819D02*
X11908095Y-5607200D01*
X11908095Y-5607200D02*
X11955714Y-5559580D01*
X11955714Y-5559580D02*
X12003333Y-5464342D01*
X12003333Y-5464342D02*
X12003333Y-5226247D01*
X12003333Y-5226247D02*
X11955714Y-5131009D01*
X11955714Y-5131009D02*
X11908095Y-5083390D01*
X11908095Y-5083390D02*
X11812857Y-5035771D01*
X11812857Y-5035771D02*
X11622381Y-5035771D01*
X11622381Y-5035771D02*
X11527143Y-5083390D01*
X11527143Y-5083390D02*
X11479524Y-5131009D01*
X11479524Y-5131009D02*
X11431905Y-5226247D01*
X12622381Y-4654819D02*
X12717619Y-4654819D01*
X12717619Y-4654819D02*
X12812857Y-4702438D01*
X12812857Y-4702438D02*
X12860476Y-4750057D01*
X12860476Y-4750057D02*
X12908095Y-4845295D01*
X12908095Y-4845295D02*
X12955714Y-5035771D01*
X12955714Y-5035771D02*
X12955714Y-5273866D01*
X12955714Y-5273866D02*
X12908095Y-5464342D01*
X12908095Y-5464342D02*
X12860476Y-5559580D01*
X12860476Y-5559580D02*
X12812857Y-5607200D01*
X12812857Y-5607200D02*
X12717619Y-5654819D01*
X12717619Y-5654819D02*
X12622381Y-5654819D01*
X12622381Y-5654819D02*
X12527143Y-5607200D01*
X12527143Y-5607200D02*
X12479524Y-5559580D01*
X12479524Y-5559580D02*
X12431905Y-5464342D01*
X12431905Y-5464342D02*
X12384286Y-5273866D01*
X12384286Y-5273866D02*
X12384286Y-5035771D01*
X12384286Y-5035771D02*
X12431905Y-4845295D01*
X12431905Y-4845295D02*
X12479524Y-4750057D01*
X12479524Y-4750057D02*
X12527143Y-4702438D01*
X12527143Y-4702438D02*
X12622381Y-4654819D01*
X13574762Y-4654819D02*
X13670000Y-4654819D01*
X13670000Y-4654819D02*
X13765238Y-4702438D01*
X13765238Y-4702438D02*
X13812857Y-4750057D01*
X13812857Y-4750057D02*
X13860476Y-4845295D01*
X13860476Y-4845295D02*
X13908095Y-5035771D01*
X13908095Y-5035771D02*
X13908095Y-5273866D01*
X13908095Y-5273866D02*
X13860476Y-5464342D01*
X13860476Y-5464342D02*
X13812857Y-5559580D01*
X13812857Y-5559580D02*
X13765238Y-5607200D01*
X13765238Y-5607200D02*
X13670000Y-5654819D01*
X13670000Y-5654819D02*
X13574762Y-5654819D01*
X13574762Y-5654819D02*
X13479524Y-5607200D01*
X13479524Y-5607200D02*
X13431905Y-5559580D01*
X13431905Y-5559580D02*
X13384286Y-5464342D01*
X13384286Y-5464342D02*
X13336667Y-5273866D01*
X13336667Y-5273866D02*
X13336667Y-5035771D01*
X13336667Y-5035771D02*
X13384286Y-4845295D01*
X13384286Y-4845295D02*
X13431905Y-4750057D01*
X13431905Y-4750057D02*
X13479524Y-4702438D01*
X13479524Y-4702438D02*
X13574762Y-4654819D01*
X14908095Y-5654819D02*
X14574762Y-5178628D01*
X14336667Y-5654819D02*
X14336667Y-4654819D01*
X14336667Y-4654819D02*
X14717619Y-4654819D01*
X14717619Y-4654819D02*
X14812857Y-4702438D01*
X14812857Y-4702438D02*
X14860476Y-4750057D01*
X14860476Y-4750057D02*
X14908095Y-4845295D01*
X14908095Y-4845295D02*
X14908095Y-4988152D01*
X14908095Y-4988152D02*
X14860476Y-5083390D01*
X14860476Y-5083390D02*
X14812857Y-5131009D01*
X14812857Y-5131009D02*
X14717619Y-5178628D01*
X14717619Y-5178628D02*
X14336667Y-5178628D01*
D11*
X11791667Y-5182622D02*
X11708333Y-5182622D01*
X11708333Y-5313574D02*
X11708333Y-5063574D01*
X11708333Y-5063574D02*
X11827381Y-5063574D01*
X12005953Y-5182622D02*
X12041667Y-5194527D01*
X12041667Y-5194527D02*
X12053572Y-5206431D01*
X12053572Y-5206431D02*
X12065476Y-5230241D01*
X12065476Y-5230241D02*
X12065476Y-5265955D01*
X12065476Y-5265955D02*
X12053572Y-5289765D01*
X12053572Y-5289765D02*
X12041667Y-5301670D01*
X12041667Y-5301670D02*
X12017857Y-5313574D01*
X12017857Y-5313574D02*
X11922619Y-5313574D01*
X11922619Y-5313574D02*
X11922619Y-5063574D01*
X11922619Y-5063574D02*
X12005953Y-5063574D01*
X12005953Y-5063574D02*
X12029762Y-5075479D01*
X12029762Y-5075479D02*
X12041667Y-5087384D01*
X12041667Y-5087384D02*
X12053572Y-5111193D01*
X12053572Y-5111193D02*
X12053572Y-5135003D01*
X12053572Y-5135003D02*
X12041667Y-5158812D01*
X12041667Y-5158812D02*
X12029762Y-5170717D01*
X12029762Y-5170717D02*
X12005953Y-5182622D01*
X12005953Y-5182622D02*
X11922619Y-5182622D01*
X12303572Y-5313574D02*
X12160715Y-5313574D01*
X12232143Y-5313574D02*
X12232143Y-5063574D01*
X12232143Y-5063574D02*
X12208334Y-5099289D01*
X12208334Y-5099289D02*
X12184524Y-5123098D01*
X12184524Y-5123098D02*
X12160715Y-5135003D01*
D10*
X18357143Y-14710057D02*
X18404762Y-14662438D01*
X18404762Y-14662438D02*
X18500000Y-14614819D01*
X18500000Y-14614819D02*
X18738095Y-14614819D01*
X18738095Y-14614819D02*
X18833333Y-14662438D01*
X18833333Y-14662438D02*
X18880952Y-14710057D01*
X18880952Y-14710057D02*
X18928571Y-14805295D01*
X18928571Y-14805295D02*
X18928571Y-14900533D01*
X18928571Y-14900533D02*
X18880952Y-15043390D01*
X18880952Y-15043390D02*
X18309524Y-15614819D01*
X18309524Y-15614819D02*
X18928571Y-15614819D01*
X19309524Y-14710057D02*
X19357143Y-14662438D01*
X19357143Y-14662438D02*
X19452381Y-14614819D01*
X19452381Y-14614819D02*
X19690476Y-14614819D01*
X19690476Y-14614819D02*
X19785714Y-14662438D01*
X19785714Y-14662438D02*
X19833333Y-14710057D01*
X19833333Y-14710057D02*
X19880952Y-14805295D01*
X19880952Y-14805295D02*
X19880952Y-14900533D01*
X19880952Y-14900533D02*
X19833333Y-15043390D01*
X19833333Y-15043390D02*
X19261905Y-15614819D01*
X19261905Y-15614819D02*
X19880952Y-15614819D01*
X20309524Y-14948152D02*
X20309524Y-15948152D01*
X20309524Y-14995771D02*
X20404762Y-14948152D01*
X20404762Y-14948152D02*
X20595238Y-14948152D01*
X20595238Y-14948152D02*
X20690476Y-14995771D01*
X20690476Y-14995771D02*
X20738095Y-15043390D01*
X20738095Y-15043390D02*
X20785714Y-15138628D01*
X20785714Y-15138628D02*
X20785714Y-15424342D01*
X20785714Y-15424342D02*
X20738095Y-15519580D01*
X20738095Y-15519580D02*
X20690476Y-15567200D01*
X20690476Y-15567200D02*
X20595238Y-15614819D01*
X20595238Y-15614819D02*
X20404762Y-15614819D01*
X20404762Y-15614819D02*
X20309524Y-15567200D01*
X21547619Y-15091009D02*
X21214286Y-15091009D01*
X21214286Y-15614819D02*
X21214286Y-14614819D01*
X21214286Y-14614819D02*
X21690476Y-14614819D01*
D11*
X19839285Y-14089765D02*
X19827381Y-14101670D01*
X19827381Y-14101670D02*
X19791666Y-14113574D01*
X19791666Y-14113574D02*
X19767857Y-14113574D01*
X19767857Y-14113574D02*
X19732143Y-14101670D01*
X19732143Y-14101670D02*
X19708333Y-14077860D01*
X19708333Y-14077860D02*
X19696428Y-14054050D01*
X19696428Y-14054050D02*
X19684524Y-14006431D01*
X19684524Y-14006431D02*
X19684524Y-13970717D01*
X19684524Y-13970717D02*
X19696428Y-13923098D01*
X19696428Y-13923098D02*
X19708333Y-13899289D01*
X19708333Y-13899289D02*
X19732143Y-13875479D01*
X19732143Y-13875479D02*
X19767857Y-13863574D01*
X19767857Y-13863574D02*
X19791666Y-13863574D01*
X19791666Y-13863574D02*
X19827381Y-13875479D01*
X19827381Y-13875479D02*
X19839285Y-13887384D01*
X20077381Y-14113574D02*
X19934524Y-14113574D01*
X20005952Y-14113574D02*
X20005952Y-13863574D01*
X20005952Y-13863574D02*
X19982143Y-13899289D01*
X19982143Y-13899289D02*
X19958333Y-13923098D01*
X19958333Y-13923098D02*
X19934524Y-13935003D01*
X20172619Y-13887384D02*
X20184523Y-13875479D01*
X20184523Y-13875479D02*
X20208333Y-13863574D01*
X20208333Y-13863574D02*
X20267857Y-13863574D01*
X20267857Y-13863574D02*
X20291666Y-13875479D01*
X20291666Y-13875479D02*
X20303571Y-13887384D01*
X20303571Y-13887384D02*
X20315476Y-13911193D01*
X20315476Y-13911193D02*
X20315476Y-13935003D01*
X20315476Y-13935003D02*
X20303571Y-13970717D01*
X20303571Y-13970717D02*
X20160714Y-14113574D01*
X20160714Y-14113574D02*
X20315476Y-14113574D01*
D10*
X12612380Y-16254819D02*
X12040952Y-16254819D01*
X12326666Y-16254819D02*
X12326666Y-15254819D01*
X12326666Y-15254819D02*
X12231428Y-15397676D01*
X12231428Y-15397676D02*
X12136190Y-15492914D01*
X12136190Y-15492914D02*
X12040952Y-15540533D01*
X13231428Y-15254819D02*
X13326666Y-15254819D01*
X13326666Y-15254819D02*
X13421904Y-15302438D01*
X13421904Y-15302438D02*
X13469523Y-15350057D01*
X13469523Y-15350057D02*
X13517142Y-15445295D01*
X13517142Y-15445295D02*
X13564761Y-15635771D01*
X13564761Y-15635771D02*
X13564761Y-15873866D01*
X13564761Y-15873866D02*
X13517142Y-16064342D01*
X13517142Y-16064342D02*
X13469523Y-16159580D01*
X13469523Y-16159580D02*
X13421904Y-16207200D01*
X13421904Y-16207200D02*
X13326666Y-16254819D01*
X13326666Y-16254819D02*
X13231428Y-16254819D01*
X13231428Y-16254819D02*
X13136190Y-16207200D01*
X13136190Y-16207200D02*
X13088571Y-16159580D01*
X13088571Y-16159580D02*
X13040952Y-16064342D01*
X13040952Y-16064342D02*
X12993333Y-15873866D01*
X12993333Y-15873866D02*
X12993333Y-15635771D01*
X12993333Y-15635771D02*
X13040952Y-15445295D01*
X13040952Y-15445295D02*
X13088571Y-15350057D01*
X13088571Y-15350057D02*
X13136190Y-15302438D01*
X13136190Y-15302438D02*
X13231428Y-15254819D01*
X14183809Y-15254819D02*
X14279047Y-15254819D01*
X14279047Y-15254819D02*
X14374285Y-15302438D01*
X14374285Y-15302438D02*
X14421904Y-15350057D01*
X14421904Y-15350057D02*
X14469523Y-15445295D01*
X14469523Y-15445295D02*
X14517142Y-15635771D01*
X14517142Y-15635771D02*
X14517142Y-15873866D01*
X14517142Y-15873866D02*
X14469523Y-16064342D01*
X14469523Y-16064342D02*
X14421904Y-16159580D01*
X14421904Y-16159580D02*
X14374285Y-16207200D01*
X14374285Y-16207200D02*
X14279047Y-16254819D01*
X14279047Y-16254819D02*
X14183809Y-16254819D01*
X14183809Y-16254819D02*
X14088571Y-16207200D01*
X14088571Y-16207200D02*
X14040952Y-16159580D01*
X14040952Y-16159580D02*
X13993333Y-16064342D01*
X13993333Y-16064342D02*
X13945714Y-15873866D01*
X13945714Y-15873866D02*
X13945714Y-15635771D01*
X13945714Y-15635771D02*
X13993333Y-15445295D01*
X13993333Y-15445295D02*
X14040952Y-15350057D01*
X14040952Y-15350057D02*
X14088571Y-15302438D01*
X14088571Y-15302438D02*
X14183809Y-15254819D01*
X14945714Y-15588152D02*
X14945714Y-16254819D01*
X14945714Y-15683390D02*
X14993333Y-15635771D01*
X14993333Y-15635771D02*
X15088571Y-15588152D01*
X15088571Y-15588152D02*
X15231428Y-15588152D01*
X15231428Y-15588152D02*
X15326666Y-15635771D01*
X15326666Y-15635771D02*
X15374285Y-15731009D01*
X15374285Y-15731009D02*
X15374285Y-16254819D01*
X16183809Y-15731009D02*
X15850476Y-15731009D01*
X15850476Y-16254819D02*
X15850476Y-15254819D01*
X15850476Y-15254819D02*
X16326666Y-15254819D01*
D11*
X12958333Y-15889765D02*
X12946429Y-15901670D01*
X12946429Y-15901670D02*
X12910714Y-15913574D01*
X12910714Y-15913574D02*
X12886905Y-15913574D01*
X12886905Y-15913574D02*
X12851191Y-15901670D01*
X12851191Y-15901670D02*
X12827381Y-15877860D01*
X12827381Y-15877860D02*
X12815476Y-15854050D01*
X12815476Y-15854050D02*
X12803572Y-15806431D01*
X12803572Y-15806431D02*
X12803572Y-15770717D01*
X12803572Y-15770717D02*
X12815476Y-15723098D01*
X12815476Y-15723098D02*
X12827381Y-15699289D01*
X12827381Y-15699289D02*
X12851191Y-15675479D01*
X12851191Y-15675479D02*
X12886905Y-15663574D01*
X12886905Y-15663574D02*
X12910714Y-15663574D01*
X12910714Y-15663574D02*
X12946429Y-15675479D01*
X12946429Y-15675479D02*
X12958333Y-15687384D01*
X13196429Y-15913574D02*
X13053572Y-15913574D01*
X13125000Y-15913574D02*
X13125000Y-15663574D01*
X13125000Y-15663574D02*
X13101191Y-15699289D01*
X13101191Y-15699289D02*
X13077381Y-15723098D01*
X13077381Y-15723098D02*
X13053572Y-15735003D01*
D10*
X3416666Y-14954819D02*
X3988094Y-14954819D01*
X3702380Y-15954819D02*
X3702380Y-14954819D01*
X4702380Y-15907200D02*
X4607142Y-15954819D01*
X4607142Y-15954819D02*
X4416666Y-15954819D01*
X4416666Y-15954819D02*
X4321428Y-15907200D01*
X4321428Y-15907200D02*
X4273809Y-15811961D01*
X4273809Y-15811961D02*
X4273809Y-15431009D01*
X4273809Y-15431009D02*
X4321428Y-15335771D01*
X4321428Y-15335771D02*
X4416666Y-15288152D01*
X4416666Y-15288152D02*
X4607142Y-15288152D01*
X4607142Y-15288152D02*
X4702380Y-15335771D01*
X4702380Y-15335771D02*
X4749999Y-15431009D01*
X4749999Y-15431009D02*
X4749999Y-15526247D01*
X4749999Y-15526247D02*
X4273809Y-15621485D01*
X5130952Y-15907200D02*
X5226190Y-15954819D01*
X5226190Y-15954819D02*
X5416666Y-15954819D01*
X5416666Y-15954819D02*
X5511904Y-15907200D01*
X5511904Y-15907200D02*
X5559523Y-15811961D01*
X5559523Y-15811961D02*
X5559523Y-15764342D01*
X5559523Y-15764342D02*
X5511904Y-15669104D01*
X5511904Y-15669104D02*
X5416666Y-15621485D01*
X5416666Y-15621485D02*
X5273809Y-15621485D01*
X5273809Y-15621485D02*
X5178571Y-15573866D01*
X5178571Y-15573866D02*
X5130952Y-15478628D01*
X5130952Y-15478628D02*
X5130952Y-15431009D01*
X5130952Y-15431009D02*
X5178571Y-15335771D01*
X5178571Y-15335771D02*
X5273809Y-15288152D01*
X5273809Y-15288152D02*
X5416666Y-15288152D01*
X5416666Y-15288152D02*
X5511904Y-15335771D01*
X5845238Y-15288152D02*
X6226190Y-15288152D01*
X5988095Y-14954819D02*
X5988095Y-15811961D01*
X5988095Y-15811961D02*
X6035714Y-15907200D01*
X6035714Y-15907200D02*
X6130952Y-15954819D01*
X6130952Y-15954819D02*
X6226190Y-15954819D01*
X6559524Y-15954819D02*
X6559524Y-14954819D01*
X6559524Y-14954819D02*
X6940476Y-14954819D01*
X6940476Y-14954819D02*
X7035714Y-15002438D01*
X7035714Y-15002438D02*
X7083333Y-15050057D01*
X7083333Y-15050057D02*
X7130952Y-15145295D01*
X7130952Y-15145295D02*
X7130952Y-15288152D01*
X7130952Y-15288152D02*
X7083333Y-15383390D01*
X7083333Y-15383390D02*
X7035714Y-15431009D01*
X7035714Y-15431009D02*
X6940476Y-15478628D01*
X6940476Y-15478628D02*
X6559524Y-15478628D01*
X7702381Y-15954819D02*
X7607143Y-15907200D01*
X7607143Y-15907200D02*
X7559524Y-15859580D01*
X7559524Y-15859580D02*
X7511905Y-15764342D01*
X7511905Y-15764342D02*
X7511905Y-15478628D01*
X7511905Y-15478628D02*
X7559524Y-15383390D01*
X7559524Y-15383390D02*
X7607143Y-15335771D01*
X7607143Y-15335771D02*
X7702381Y-15288152D01*
X7702381Y-15288152D02*
X7845238Y-15288152D01*
X7845238Y-15288152D02*
X7940476Y-15335771D01*
X7940476Y-15335771D02*
X7988095Y-15383390D01*
X7988095Y-15383390D02*
X8035714Y-15478628D01*
X8035714Y-15478628D02*
X8035714Y-15764342D01*
X8035714Y-15764342D02*
X7988095Y-15859580D01*
X7988095Y-15859580D02*
X7940476Y-15907200D01*
X7940476Y-15907200D02*
X7845238Y-15954819D01*
X7845238Y-15954819D02*
X7702381Y-15954819D01*
X8464286Y-15954819D02*
X8464286Y-15288152D01*
X8464286Y-14954819D02*
X8416667Y-15002438D01*
X8416667Y-15002438D02*
X8464286Y-15050057D01*
X8464286Y-15050057D02*
X8511905Y-15002438D01*
X8511905Y-15002438D02*
X8464286Y-14954819D01*
X8464286Y-14954819D02*
X8464286Y-15050057D01*
X8940476Y-15288152D02*
X8940476Y-15954819D01*
X8940476Y-15383390D02*
X8988095Y-15335771D01*
X8988095Y-15335771D02*
X9083333Y-15288152D01*
X9083333Y-15288152D02*
X9226190Y-15288152D01*
X9226190Y-15288152D02*
X9321428Y-15335771D01*
X9321428Y-15335771D02*
X9369047Y-15431009D01*
X9369047Y-15431009D02*
X9369047Y-15954819D01*
X9702381Y-15288152D02*
X10083333Y-15288152D01*
X9845238Y-14954819D02*
X9845238Y-15811961D01*
X9845238Y-15811961D02*
X9892857Y-15907200D01*
X9892857Y-15907200D02*
X9988095Y-15954819D01*
X9988095Y-15954819D02*
X10083333Y-15954819D01*
D13*
X3742856Y-15172891D02*
X4085714Y-15172891D01*
X3914285Y-15772891D02*
X3914285Y-15172891D01*
X4285714Y-15772891D02*
X4285714Y-15172891D01*
X4285714Y-15172891D02*
X4514285Y-15172891D01*
X4514285Y-15172891D02*
X4571428Y-15201462D01*
X4571428Y-15201462D02*
X4599999Y-15230034D01*
X4599999Y-15230034D02*
X4628571Y-15287177D01*
X4628571Y-15287177D02*
X4628571Y-15372891D01*
X4628571Y-15372891D02*
X4599999Y-15430034D01*
X4599999Y-15430034D02*
X4571428Y-15458605D01*
X4571428Y-15458605D02*
X4514285Y-15487177D01*
X4514285Y-15487177D02*
X4285714Y-15487177D01*
X4828571Y-15172891D02*
X5199999Y-15172891D01*
X5199999Y-15172891D02*
X4999999Y-15401462D01*
X4999999Y-15401462D02*
X5085714Y-15401462D01*
X5085714Y-15401462D02*
X5142857Y-15430034D01*
X5142857Y-15430034D02*
X5171428Y-15458605D01*
X5171428Y-15458605D02*
X5199999Y-15515748D01*
X5199999Y-15515748D02*
X5199999Y-15658605D01*
X5199999Y-15658605D02*
X5171428Y-15715748D01*
X5171428Y-15715748D02*
X5142857Y-15744320D01*
X5142857Y-15744320D02*
X5085714Y-15772891D01*
X5085714Y-15772891D02*
X4914285Y-15772891D01*
X4914285Y-15772891D02*
X4857142Y-15744320D01*
X4857142Y-15744320D02*
X4828571Y-15715748D01*
D10*
X20961904Y-2359580D02*
X20914285Y-2407200D01*
X20914285Y-2407200D02*
X20771428Y-2454819D01*
X20771428Y-2454819D02*
X20676190Y-2454819D01*
X20676190Y-2454819D02*
X20533333Y-2407200D01*
X20533333Y-2407200D02*
X20438095Y-2311961D01*
X20438095Y-2311961D02*
X20390476Y-2216723D01*
X20390476Y-2216723D02*
X20342857Y-2026247D01*
X20342857Y-2026247D02*
X20342857Y-1883390D01*
X20342857Y-1883390D02*
X20390476Y-1692914D01*
X20390476Y-1692914D02*
X20438095Y-1597676D01*
X20438095Y-1597676D02*
X20533333Y-1502438D01*
X20533333Y-1502438D02*
X20676190Y-1454819D01*
X20676190Y-1454819D02*
X20771428Y-1454819D01*
X20771428Y-1454819D02*
X20914285Y-1502438D01*
X20914285Y-1502438D02*
X20961904Y-1550057D01*
X21533333Y-2454819D02*
X21438095Y-2407200D01*
X21438095Y-2407200D02*
X21390476Y-2359580D01*
X21390476Y-2359580D02*
X21342857Y-2264342D01*
X21342857Y-2264342D02*
X21342857Y-1978628D01*
X21342857Y-1978628D02*
X21390476Y-1883390D01*
X21390476Y-1883390D02*
X21438095Y-1835771D01*
X21438095Y-1835771D02*
X21533333Y-1788152D01*
X21533333Y-1788152D02*
X21676190Y-1788152D01*
X21676190Y-1788152D02*
X21771428Y-1835771D01*
X21771428Y-1835771D02*
X21819047Y-1883390D01*
X21819047Y-1883390D02*
X21866666Y-1978628D01*
X21866666Y-1978628D02*
X21866666Y-2264342D01*
X21866666Y-2264342D02*
X21819047Y-2359580D01*
X21819047Y-2359580D02*
X21771428Y-2407200D01*
X21771428Y-2407200D02*
X21676190Y-2454819D01*
X21676190Y-2454819D02*
X21533333Y-2454819D01*
X22295238Y-1788152D02*
X22295238Y-2454819D01*
X22295238Y-1883390D02*
X22342857Y-1835771D01*
X22342857Y-1835771D02*
X22438095Y-1788152D01*
X22438095Y-1788152D02*
X22580952Y-1788152D01*
X22580952Y-1788152D02*
X22676190Y-1835771D01*
X22676190Y-1835771D02*
X22723809Y-1931009D01*
X22723809Y-1931009D02*
X22723809Y-2454819D01*
X23200000Y-1788152D02*
X23200000Y-2454819D01*
X23200000Y-1883390D02*
X23247619Y-1835771D01*
X23247619Y-1835771D02*
X23342857Y-1788152D01*
X23342857Y-1788152D02*
X23485714Y-1788152D01*
X23485714Y-1788152D02*
X23580952Y-1835771D01*
X23580952Y-1835771D02*
X23628571Y-1931009D01*
X23628571Y-1931009D02*
X23628571Y-2454819D01*
X23866667Y-2550057D02*
X24628571Y-2550057D01*
X25057143Y-1454819D02*
X25152381Y-1454819D01*
X25152381Y-1454819D02*
X25247619Y-1502438D01*
X25247619Y-1502438D02*
X25295238Y-1550057D01*
X25295238Y-1550057D02*
X25342857Y-1645295D01*
X25342857Y-1645295D02*
X25390476Y-1835771D01*
X25390476Y-1835771D02*
X25390476Y-2073866D01*
X25390476Y-2073866D02*
X25342857Y-2264342D01*
X25342857Y-2264342D02*
X25295238Y-2359580D01*
X25295238Y-2359580D02*
X25247619Y-2407200D01*
X25247619Y-2407200D02*
X25152381Y-2454819D01*
X25152381Y-2454819D02*
X25057143Y-2454819D01*
X25057143Y-2454819D02*
X24961905Y-2407200D01*
X24961905Y-2407200D02*
X24914286Y-2359580D01*
X24914286Y-2359580D02*
X24866667Y-2264342D01*
X24866667Y-2264342D02*
X24819048Y-2073866D01*
X24819048Y-2073866D02*
X24819048Y-1835771D01*
X24819048Y-1835771D02*
X24866667Y-1645295D01*
X24866667Y-1645295D02*
X24914286Y-1550057D01*
X24914286Y-1550057D02*
X24961905Y-1502438D01*
X24961905Y-1502438D02*
X25057143Y-1454819D01*
X26342857Y-2454819D02*
X25771429Y-2454819D01*
X26057143Y-2454819D02*
X26057143Y-1454819D01*
X26057143Y-1454819D02*
X25961905Y-1597676D01*
X25961905Y-1597676D02*
X25866667Y-1692914D01*
X25866667Y-1692914D02*
X25771429Y-1740533D01*
X26676191Y-2454819D02*
X27200000Y-1788152D01*
X26676191Y-1788152D02*
X27200000Y-2454819D01*
X27771429Y-1454819D02*
X27866667Y-1454819D01*
X27866667Y-1454819D02*
X27961905Y-1502438D01*
X27961905Y-1502438D02*
X28009524Y-1550057D01*
X28009524Y-1550057D02*
X28057143Y-1645295D01*
X28057143Y-1645295D02*
X28104762Y-1835771D01*
X28104762Y-1835771D02*
X28104762Y-2073866D01*
X28104762Y-2073866D02*
X28057143Y-2264342D01*
X28057143Y-2264342D02*
X28009524Y-2359580D01*
X28009524Y-2359580D02*
X27961905Y-2407200D01*
X27961905Y-2407200D02*
X27866667Y-2454819D01*
X27866667Y-2454819D02*
X27771429Y-2454819D01*
X27771429Y-2454819D02*
X27676191Y-2407200D01*
X27676191Y-2407200D02*
X27628572Y-2359580D01*
X27628572Y-2359580D02*
X27580953Y-2264342D01*
X27580953Y-2264342D02*
X27533334Y-2073866D01*
X27533334Y-2073866D02*
X27533334Y-1835771D01*
X27533334Y-1835771D02*
X27580953Y-1645295D01*
X27580953Y-1645295D02*
X27628572Y-1550057D01*
X27628572Y-1550057D02*
X27676191Y-1502438D01*
X27676191Y-1502438D02*
X27771429Y-1454819D01*
X28580953Y-2454819D02*
X28771429Y-2454819D01*
X28771429Y-2454819D02*
X28866667Y-2407200D01*
X28866667Y-2407200D02*
X28914286Y-2359580D01*
X28914286Y-2359580D02*
X29009524Y-2216723D01*
X29009524Y-2216723D02*
X29057143Y-2026247D01*
X29057143Y-2026247D02*
X29057143Y-1645295D01*
X29057143Y-1645295D02*
X29009524Y-1550057D01*
X29009524Y-1550057D02*
X28961905Y-1502438D01*
X28961905Y-1502438D02*
X28866667Y-1454819D01*
X28866667Y-1454819D02*
X28676191Y-1454819D01*
X28676191Y-1454819D02*
X28580953Y-1502438D01*
X28580953Y-1502438D02*
X28533334Y-1550057D01*
X28533334Y-1550057D02*
X28485715Y-1645295D01*
X28485715Y-1645295D02*
X28485715Y-1883390D01*
X28485715Y-1883390D02*
X28533334Y-1978628D01*
X28533334Y-1978628D02*
X28580953Y-2026247D01*
X28580953Y-2026247D02*
X28676191Y-2073866D01*
X28676191Y-2073866D02*
X28866667Y-2073866D01*
X28866667Y-2073866D02*
X28961905Y-2026247D01*
X28961905Y-2026247D02*
X29009524Y-1978628D01*
X29009524Y-1978628D02*
X29057143Y-1883390D01*
X11614819Y-2333333D02*
X12329104Y-2333333D01*
X12329104Y-2333333D02*
X12471961Y-2380952D01*
X12471961Y-2380952D02*
X12567200Y-2476190D01*
X12567200Y-2476190D02*
X12614819Y-2619047D01*
X12614819Y-2619047D02*
X12614819Y-2714285D01*
X12614819Y-1333333D02*
X12614819Y-1904761D01*
X12614819Y-1619047D02*
X11614819Y-1619047D01*
X11614819Y-1619047D02*
X11757676Y-1714285D01*
X11757676Y-1714285D02*
X11852914Y-1809523D01*
X11852914Y-1809523D02*
X11900533Y-1904761D01*
X9952380Y-19414819D02*
X9380952Y-19414819D01*
X9666666Y-19414819D02*
X9666666Y-18414819D01*
X9666666Y-18414819D02*
X9571428Y-18557676D01*
X9571428Y-18557676D02*
X9476190Y-18652914D01*
X9476190Y-18652914D02*
X9380952Y-18700533D01*
X10571428Y-18414819D02*
X10666666Y-18414819D01*
X10666666Y-18414819D02*
X10761904Y-18462438D01*
X10761904Y-18462438D02*
X10809523Y-18510057D01*
X10809523Y-18510057D02*
X10857142Y-18605295D01*
X10857142Y-18605295D02*
X10904761Y-18795771D01*
X10904761Y-18795771D02*
X10904761Y-19033866D01*
X10904761Y-19033866D02*
X10857142Y-19224342D01*
X10857142Y-19224342D02*
X10809523Y-19319580D01*
X10809523Y-19319580D02*
X10761904Y-19367200D01*
X10761904Y-19367200D02*
X10666666Y-19414819D01*
X10666666Y-19414819D02*
X10571428Y-19414819D01*
X10571428Y-19414819D02*
X10476190Y-19367200D01*
X10476190Y-19367200D02*
X10428571Y-19319580D01*
X10428571Y-19319580D02*
X10380952Y-19224342D01*
X10380952Y-19224342D02*
X10333333Y-19033866D01*
X10333333Y-19033866D02*
X10333333Y-18795771D01*
X10333333Y-18795771D02*
X10380952Y-18605295D01*
X10380952Y-18605295D02*
X10428571Y-18510057D01*
X10428571Y-18510057D02*
X10476190Y-18462438D01*
X10476190Y-18462438D02*
X10571428Y-18414819D01*
X11523809Y-18414819D02*
X11619047Y-18414819D01*
X11619047Y-18414819D02*
X11714285Y-18462438D01*
X11714285Y-18462438D02*
X11761904Y-18510057D01*
X11761904Y-18510057D02*
X11809523Y-18605295D01*
X11809523Y-18605295D02*
X11857142Y-18795771D01*
X11857142Y-18795771D02*
X11857142Y-19033866D01*
X11857142Y-19033866D02*
X11809523Y-19224342D01*
X11809523Y-19224342D02*
X11761904Y-19319580D01*
X11761904Y-19319580D02*
X11714285Y-19367200D01*
X11714285Y-19367200D02*
X11619047Y-19414819D01*
X11619047Y-19414819D02*
X11523809Y-19414819D01*
X11523809Y-19414819D02*
X11428571Y-19367200D01*
X11428571Y-19367200D02*
X11380952Y-19319580D01*
X11380952Y-19319580D02*
X11333333Y-19224342D01*
X11333333Y-19224342D02*
X11285714Y-19033866D01*
X11285714Y-19033866D02*
X11285714Y-18795771D01*
X11285714Y-18795771D02*
X11333333Y-18605295D01*
X11333333Y-18605295D02*
X11380952Y-18510057D01*
X11380952Y-18510057D02*
X11428571Y-18462438D01*
X11428571Y-18462438D02*
X11523809Y-18414819D01*
X12285714Y-18748152D02*
X12285714Y-19414819D01*
X12285714Y-18843390D02*
X12333333Y-18795771D01*
X12333333Y-18795771D02*
X12428571Y-18748152D01*
X12428571Y-18748152D02*
X12571428Y-18748152D01*
X12571428Y-18748152D02*
X12666666Y-18795771D01*
X12666666Y-18795771D02*
X12714285Y-18891009D01*
X12714285Y-18891009D02*
X12714285Y-19414819D01*
X13523809Y-18891009D02*
X13190476Y-18891009D01*
X13190476Y-19414819D02*
X13190476Y-18414819D01*
X13190476Y-18414819D02*
X13666666Y-18414819D01*
D11*
X11458333Y-17889765D02*
X11446429Y-17901670D01*
X11446429Y-17901670D02*
X11410714Y-17913574D01*
X11410714Y-17913574D02*
X11386905Y-17913574D01*
X11386905Y-17913574D02*
X11351191Y-17901670D01*
X11351191Y-17901670D02*
X11327381Y-17877860D01*
X11327381Y-17877860D02*
X11315476Y-17854050D01*
X11315476Y-17854050D02*
X11303572Y-17806431D01*
X11303572Y-17806431D02*
X11303572Y-17770717D01*
X11303572Y-17770717D02*
X11315476Y-17723098D01*
X11315476Y-17723098D02*
X11327381Y-17699289D01*
X11327381Y-17699289D02*
X11351191Y-17675479D01*
X11351191Y-17675479D02*
X11386905Y-17663574D01*
X11386905Y-17663574D02*
X11410714Y-17663574D01*
X11410714Y-17663574D02*
X11446429Y-17675479D01*
X11446429Y-17675479D02*
X11458333Y-17687384D01*
X11541667Y-17663574D02*
X11696429Y-17663574D01*
X11696429Y-17663574D02*
X11613095Y-17758812D01*
X11613095Y-17758812D02*
X11648810Y-17758812D01*
X11648810Y-17758812D02*
X11672619Y-17770717D01*
X11672619Y-17770717D02*
X11684524Y-17782622D01*
X11684524Y-17782622D02*
X11696429Y-17806431D01*
X11696429Y-17806431D02*
X11696429Y-17865955D01*
X11696429Y-17865955D02*
X11684524Y-17889765D01*
X11684524Y-17889765D02*
X11672619Y-17901670D01*
X11672619Y-17901670D02*
X11648810Y-17913574D01*
X11648810Y-17913574D02*
X11577381Y-17913574D01*
X11577381Y-17913574D02*
X11553572Y-17901670D01*
X11553572Y-17901670D02*
X11541667Y-17889765D01*
D10*
X23850476Y-11254819D02*
X23279048Y-11254819D01*
X23564762Y-11254819D02*
X23564762Y-10254819D01*
X23564762Y-10254819D02*
X23469524Y-10397676D01*
X23469524Y-10397676D02*
X23374286Y-10492914D01*
X23374286Y-10492914D02*
X23279048Y-10540533D01*
X24279048Y-11159580D02*
X24326667Y-11207200D01*
X24326667Y-11207200D02*
X24279048Y-11254819D01*
X24279048Y-11254819D02*
X24231429Y-11207200D01*
X24231429Y-11207200D02*
X24279048Y-11159580D01*
X24279048Y-11159580D02*
X24279048Y-11254819D01*
X25231428Y-10254819D02*
X24755238Y-10254819D01*
X24755238Y-10254819D02*
X24707619Y-10731009D01*
X24707619Y-10731009D02*
X24755238Y-10683390D01*
X24755238Y-10683390D02*
X24850476Y-10635771D01*
X24850476Y-10635771D02*
X25088571Y-10635771D01*
X25088571Y-10635771D02*
X25183809Y-10683390D01*
X25183809Y-10683390D02*
X25231428Y-10731009D01*
X25231428Y-10731009D02*
X25279047Y-10826247D01*
X25279047Y-10826247D02*
X25279047Y-11064342D01*
X25279047Y-11064342D02*
X25231428Y-11159580D01*
X25231428Y-11159580D02*
X25183809Y-11207200D01*
X25183809Y-11207200D02*
X25088571Y-11254819D01*
X25088571Y-11254819D02*
X24850476Y-11254819D01*
X24850476Y-11254819D02*
X24755238Y-11207200D01*
X24755238Y-11207200D02*
X24707619Y-11159580D01*
X25707619Y-10588152D02*
X25707619Y-11588152D01*
X25707619Y-10635771D02*
X25802857Y-10588152D01*
X25802857Y-10588152D02*
X25993333Y-10588152D01*
X25993333Y-10588152D02*
X26088571Y-10635771D01*
X26088571Y-10635771D02*
X26136190Y-10683390D01*
X26136190Y-10683390D02*
X26183809Y-10778628D01*
X26183809Y-10778628D02*
X26183809Y-11064342D01*
X26183809Y-11064342D02*
X26136190Y-11159580D01*
X26136190Y-11159580D02*
X26088571Y-11207200D01*
X26088571Y-11207200D02*
X25993333Y-11254819D01*
X25993333Y-11254819D02*
X25802857Y-11254819D01*
X25802857Y-11254819D02*
X25707619Y-11207200D01*
X26945714Y-10731009D02*
X26612381Y-10731009D01*
X26612381Y-11254819D02*
X26612381Y-10254819D01*
X26612381Y-10254819D02*
X27088571Y-10254819D01*
D11*
X23839285Y-10889765D02*
X23827381Y-10901670D01*
X23827381Y-10901670D02*
X23791666Y-10913574D01*
X23791666Y-10913574D02*
X23767857Y-10913574D01*
X23767857Y-10913574D02*
X23732143Y-10901670D01*
X23732143Y-10901670D02*
X23708333Y-10877860D01*
X23708333Y-10877860D02*
X23696428Y-10854050D01*
X23696428Y-10854050D02*
X23684524Y-10806431D01*
X23684524Y-10806431D02*
X23684524Y-10770717D01*
X23684524Y-10770717D02*
X23696428Y-10723098D01*
X23696428Y-10723098D02*
X23708333Y-10699289D01*
X23708333Y-10699289D02*
X23732143Y-10675479D01*
X23732143Y-10675479D02*
X23767857Y-10663574D01*
X23767857Y-10663574D02*
X23791666Y-10663574D01*
X23791666Y-10663574D02*
X23827381Y-10675479D01*
X23827381Y-10675479D02*
X23839285Y-10687384D01*
X24077381Y-10913574D02*
X23934524Y-10913574D01*
X24005952Y-10913574D02*
X24005952Y-10663574D01*
X24005952Y-10663574D02*
X23982143Y-10699289D01*
X23982143Y-10699289D02*
X23958333Y-10723098D01*
X23958333Y-10723098D02*
X23934524Y-10735003D01*
X24232142Y-10663574D02*
X24255952Y-10663574D01*
X24255952Y-10663574D02*
X24279761Y-10675479D01*
X24279761Y-10675479D02*
X24291666Y-10687384D01*
X24291666Y-10687384D02*
X24303571Y-10711193D01*
X24303571Y-10711193D02*
X24315476Y-10758812D01*
X24315476Y-10758812D02*
X24315476Y-10818336D01*
X24315476Y-10818336D02*
X24303571Y-10865955D01*
X24303571Y-10865955D02*
X24291666Y-10889765D01*
X24291666Y-10889765D02*
X24279761Y-10901670D01*
X24279761Y-10901670D02*
X24255952Y-10913574D01*
X24255952Y-10913574D02*
X24232142Y-10913574D01*
X24232142Y-10913574D02*
X24208333Y-10901670D01*
X24208333Y-10901670D02*
X24196428Y-10889765D01*
X24196428Y-10889765D02*
X24184523Y-10865955D01*
X24184523Y-10865955D02*
X24172619Y-10818336D01*
X24172619Y-10818336D02*
X24172619Y-10758812D01*
X24172619Y-10758812D02*
X24184523Y-10711193D01*
X24184523Y-10711193D02*
X24196428Y-10687384D01*
X24196428Y-10687384D02*
X24208333Y-10675479D01*
X24208333Y-10675479D02*
X24232142Y-10663574D01*
D10*
X5049166Y-19204819D02*
X5620594Y-19204819D01*
X5334880Y-20204819D02*
X5334880Y-19204819D01*
X6334880Y-20157200D02*
X6239642Y-20204819D01*
X6239642Y-20204819D02*
X6049166Y-20204819D01*
X6049166Y-20204819D02*
X5953928Y-20157200D01*
X5953928Y-20157200D02*
X5906309Y-20061961D01*
X5906309Y-20061961D02*
X5906309Y-19681009D01*
X5906309Y-19681009D02*
X5953928Y-19585771D01*
X5953928Y-19585771D02*
X6049166Y-19538152D01*
X6049166Y-19538152D02*
X6239642Y-19538152D01*
X6239642Y-19538152D02*
X6334880Y-19585771D01*
X6334880Y-19585771D02*
X6382499Y-19681009D01*
X6382499Y-19681009D02*
X6382499Y-19776247D01*
X6382499Y-19776247D02*
X5906309Y-19871485D01*
X6763452Y-20157200D02*
X6858690Y-20204819D01*
X6858690Y-20204819D02*
X7049166Y-20204819D01*
X7049166Y-20204819D02*
X7144404Y-20157200D01*
X7144404Y-20157200D02*
X7192023Y-20061961D01*
X7192023Y-20061961D02*
X7192023Y-20014342D01*
X7192023Y-20014342D02*
X7144404Y-19919104D01*
X7144404Y-19919104D02*
X7049166Y-19871485D01*
X7049166Y-19871485D02*
X6906309Y-19871485D01*
X6906309Y-19871485D02*
X6811071Y-19823866D01*
X6811071Y-19823866D02*
X6763452Y-19728628D01*
X6763452Y-19728628D02*
X6763452Y-19681009D01*
X6763452Y-19681009D02*
X6811071Y-19585771D01*
X6811071Y-19585771D02*
X6906309Y-19538152D01*
X6906309Y-19538152D02*
X7049166Y-19538152D01*
X7049166Y-19538152D02*
X7144404Y-19585771D01*
X7477738Y-19538152D02*
X7858690Y-19538152D01*
X7620595Y-19204819D02*
X7620595Y-20061961D01*
X7620595Y-20061961D02*
X7668214Y-20157200D01*
X7668214Y-20157200D02*
X7763452Y-20204819D01*
X7763452Y-20204819D02*
X7858690Y-20204819D01*
X8192024Y-20204819D02*
X8192024Y-19204819D01*
X8192024Y-19204819D02*
X8572976Y-19204819D01*
X8572976Y-19204819D02*
X8668214Y-19252438D01*
X8668214Y-19252438D02*
X8715833Y-19300057D01*
X8715833Y-19300057D02*
X8763452Y-19395295D01*
X8763452Y-19395295D02*
X8763452Y-19538152D01*
X8763452Y-19538152D02*
X8715833Y-19633390D01*
X8715833Y-19633390D02*
X8668214Y-19681009D01*
X8668214Y-19681009D02*
X8572976Y-19728628D01*
X8572976Y-19728628D02*
X8192024Y-19728628D01*
X9334881Y-20204819D02*
X9239643Y-20157200D01*
X9239643Y-20157200D02*
X9192024Y-20109580D01*
X9192024Y-20109580D02*
X9144405Y-20014342D01*
X9144405Y-20014342D02*
X9144405Y-19728628D01*
X9144405Y-19728628D02*
X9192024Y-19633390D01*
X9192024Y-19633390D02*
X9239643Y-19585771D01*
X9239643Y-19585771D02*
X9334881Y-19538152D01*
X9334881Y-19538152D02*
X9477738Y-19538152D01*
X9477738Y-19538152D02*
X9572976Y-19585771D01*
X9572976Y-19585771D02*
X9620595Y-19633390D01*
X9620595Y-19633390D02*
X9668214Y-19728628D01*
X9668214Y-19728628D02*
X9668214Y-20014342D01*
X9668214Y-20014342D02*
X9620595Y-20109580D01*
X9620595Y-20109580D02*
X9572976Y-20157200D01*
X9572976Y-20157200D02*
X9477738Y-20204819D01*
X9477738Y-20204819D02*
X9334881Y-20204819D01*
X10096786Y-20204819D02*
X10096786Y-19538152D01*
X10096786Y-19204819D02*
X10049167Y-19252438D01*
X10049167Y-19252438D02*
X10096786Y-19300057D01*
X10096786Y-19300057D02*
X10144405Y-19252438D01*
X10144405Y-19252438D02*
X10096786Y-19204819D01*
X10096786Y-19204819D02*
X10096786Y-19300057D01*
X10572976Y-19538152D02*
X10572976Y-20204819D01*
X10572976Y-19633390D02*
X10620595Y-19585771D01*
X10620595Y-19585771D02*
X10715833Y-19538152D01*
X10715833Y-19538152D02*
X10858690Y-19538152D01*
X10858690Y-19538152D02*
X10953928Y-19585771D01*
X10953928Y-19585771D02*
X11001547Y-19681009D01*
X11001547Y-19681009D02*
X11001547Y-20204819D01*
X11334881Y-19538152D02*
X11715833Y-19538152D01*
X11477738Y-19204819D02*
X11477738Y-20061961D01*
X11477738Y-20061961D02*
X11525357Y-20157200D01*
X11525357Y-20157200D02*
X11620595Y-20204819D01*
X11620595Y-20204819D02*
X11715833Y-20204819D01*
D13*
X7625356Y-17172891D02*
X7968214Y-17172891D01*
X7796785Y-17772891D02*
X7796785Y-17172891D01*
X8168214Y-17772891D02*
X8168214Y-17172891D01*
X8168214Y-17172891D02*
X8396785Y-17172891D01*
X8396785Y-17172891D02*
X8453928Y-17201462D01*
X8453928Y-17201462D02*
X8482499Y-17230034D01*
X8482499Y-17230034D02*
X8511071Y-17287177D01*
X8511071Y-17287177D02*
X8511071Y-17372891D01*
X8511071Y-17372891D02*
X8482499Y-17430034D01*
X8482499Y-17430034D02*
X8453928Y-17458605D01*
X8453928Y-17458605D02*
X8396785Y-17487177D01*
X8396785Y-17487177D02*
X8168214Y-17487177D01*
X9025357Y-17372891D02*
X9025357Y-17772891D01*
X8882499Y-17144320D02*
X8739642Y-17572891D01*
X8739642Y-17572891D02*
X9111071Y-17572891D01*
D10*
X15309523Y-8904819D02*
X14738095Y-8904819D01*
X15023809Y-8904819D02*
X15023809Y-7904819D01*
X15023809Y-7904819D02*
X14928571Y-8047676D01*
X14928571Y-8047676D02*
X14833333Y-8142914D01*
X14833333Y-8142914D02*
X14738095Y-8190533D01*
X16166666Y-7904819D02*
X15976190Y-7904819D01*
X15976190Y-7904819D02*
X15880952Y-7952438D01*
X15880952Y-7952438D02*
X15833333Y-8000057D01*
X15833333Y-8000057D02*
X15738095Y-8142914D01*
X15738095Y-8142914D02*
X15690476Y-8333390D01*
X15690476Y-8333390D02*
X15690476Y-8714342D01*
X15690476Y-8714342D02*
X15738095Y-8809580D01*
X15738095Y-8809580D02*
X15785714Y-8857200D01*
X15785714Y-8857200D02*
X15880952Y-8904819D01*
X15880952Y-8904819D02*
X16071428Y-8904819D01*
X16071428Y-8904819D02*
X16166666Y-8857200D01*
X16166666Y-8857200D02*
X16214285Y-8809580D01*
X16214285Y-8809580D02*
X16261904Y-8714342D01*
X16261904Y-8714342D02*
X16261904Y-8476247D01*
X16261904Y-8476247D02*
X16214285Y-8381009D01*
X16214285Y-8381009D02*
X16166666Y-8333390D01*
X16166666Y-8333390D02*
X16071428Y-8285771D01*
X16071428Y-8285771D02*
X15880952Y-8285771D01*
X15880952Y-8285771D02*
X15785714Y-8333390D01*
X15785714Y-8333390D02*
X15738095Y-8381009D01*
X15738095Y-8381009D02*
X15690476Y-8476247D01*
X16690476Y-8904819D02*
X16690476Y-7904819D01*
X16690476Y-7904819D02*
X17023809Y-8619104D01*
X17023809Y-8619104D02*
X17357142Y-7904819D01*
X17357142Y-7904819D02*
X17357142Y-8904819D01*
X17833333Y-8904819D02*
X17833333Y-7904819D01*
X17833333Y-8381009D02*
X18404761Y-8381009D01*
X18404761Y-8904819D02*
X18404761Y-7904819D01*
X18785714Y-8238152D02*
X19309523Y-8238152D01*
X19309523Y-8238152D02*
X18785714Y-8904819D01*
X18785714Y-8904819D02*
X19309523Y-8904819D01*
D14*
X16619048Y-5982902D02*
X16619048Y-6363855D01*
X16352381Y-5563855D02*
X16619048Y-5982902D01*
X16619048Y-5982902D02*
X16885714Y-5563855D01*
X17571428Y-6363855D02*
X17114285Y-6363855D01*
X17342857Y-6363855D02*
X17342857Y-5563855D01*
X17342857Y-5563855D02*
X17266666Y-5678140D01*
X17266666Y-5678140D02*
X17190476Y-5754331D01*
X17190476Y-5754331D02*
X17114285Y-5792426D01*
D10*
X19888571Y-6454819D02*
X19317143Y-6454819D01*
X19602857Y-6454819D02*
X19602857Y-5454819D01*
X19602857Y-5454819D02*
X19507619Y-5597676D01*
X19507619Y-5597676D02*
X19412381Y-5692914D01*
X19412381Y-5692914D02*
X19317143Y-5740533D01*
X20269524Y-5550057D02*
X20317143Y-5502438D01*
X20317143Y-5502438D02*
X20412381Y-5454819D01*
X20412381Y-5454819D02*
X20650476Y-5454819D01*
X20650476Y-5454819D02*
X20745714Y-5502438D01*
X20745714Y-5502438D02*
X20793333Y-5550057D01*
X20793333Y-5550057D02*
X20840952Y-5645295D01*
X20840952Y-5645295D02*
X20840952Y-5740533D01*
X20840952Y-5740533D02*
X20793333Y-5883390D01*
X20793333Y-5883390D02*
X20221905Y-6454819D01*
X20221905Y-6454819D02*
X20840952Y-6454819D01*
X21269524Y-5788152D02*
X21269524Y-6788152D01*
X21269524Y-5835771D02*
X21364762Y-5788152D01*
X21364762Y-5788152D02*
X21555238Y-5788152D01*
X21555238Y-5788152D02*
X21650476Y-5835771D01*
X21650476Y-5835771D02*
X21698095Y-5883390D01*
X21698095Y-5883390D02*
X21745714Y-5978628D01*
X21745714Y-5978628D02*
X21745714Y-6264342D01*
X21745714Y-6264342D02*
X21698095Y-6359580D01*
X21698095Y-6359580D02*
X21650476Y-6407200D01*
X21650476Y-6407200D02*
X21555238Y-6454819D01*
X21555238Y-6454819D02*
X21364762Y-6454819D01*
X21364762Y-6454819D02*
X21269524Y-6407200D01*
X22507619Y-5931009D02*
X22174286Y-5931009D01*
X22174286Y-6454819D02*
X22174286Y-5454819D01*
X22174286Y-5454819D02*
X22650476Y-5454819D01*
D11*
X19758333Y-6089765D02*
X19746429Y-6101670D01*
X19746429Y-6101670D02*
X19710714Y-6113574D01*
X19710714Y-6113574D02*
X19686905Y-6113574D01*
X19686905Y-6113574D02*
X19651191Y-6101670D01*
X19651191Y-6101670D02*
X19627381Y-6077860D01*
X19627381Y-6077860D02*
X19615476Y-6054050D01*
X19615476Y-6054050D02*
X19603572Y-6006431D01*
X19603572Y-6006431D02*
X19603572Y-5970717D01*
X19603572Y-5970717D02*
X19615476Y-5923098D01*
X19615476Y-5923098D02*
X19627381Y-5899289D01*
X19627381Y-5899289D02*
X19651191Y-5875479D01*
X19651191Y-5875479D02*
X19686905Y-5863574D01*
X19686905Y-5863574D02*
X19710714Y-5863574D01*
X19710714Y-5863574D02*
X19746429Y-5875479D01*
X19746429Y-5875479D02*
X19758333Y-5887384D01*
X19901191Y-5970717D02*
X19877381Y-5958812D01*
X19877381Y-5958812D02*
X19865476Y-5946908D01*
X19865476Y-5946908D02*
X19853572Y-5923098D01*
X19853572Y-5923098D02*
X19853572Y-5911193D01*
X19853572Y-5911193D02*
X19865476Y-5887384D01*
X19865476Y-5887384D02*
X19877381Y-5875479D01*
X19877381Y-5875479D02*
X19901191Y-5863574D01*
X19901191Y-5863574D02*
X19948810Y-5863574D01*
X19948810Y-5863574D02*
X19972619Y-5875479D01*
X19972619Y-5875479D02*
X19984524Y-5887384D01*
X19984524Y-5887384D02*
X19996429Y-5911193D01*
X19996429Y-5911193D02*
X19996429Y-5923098D01*
X19996429Y-5923098D02*
X19984524Y-5946908D01*
X19984524Y-5946908D02*
X19972619Y-5958812D01*
X19972619Y-5958812D02*
X19948810Y-5970717D01*
X19948810Y-5970717D02*
X19901191Y-5970717D01*
X19901191Y-5970717D02*
X19877381Y-5982622D01*
X19877381Y-5982622D02*
X19865476Y-5994527D01*
X19865476Y-5994527D02*
X19853572Y-6018336D01*
X19853572Y-6018336D02*
X19853572Y-6065955D01*
X19853572Y-6065955D02*
X19865476Y-6089765D01*
X19865476Y-6089765D02*
X19877381Y-6101670D01*
X19877381Y-6101670D02*
X19901191Y-6113574D01*
X19901191Y-6113574D02*
X19948810Y-6113574D01*
X19948810Y-6113574D02*
X19972619Y-6101670D01*
X19972619Y-6101670D02*
X19984524Y-6089765D01*
X19984524Y-6089765D02*
X19996429Y-6065955D01*
X19996429Y-6065955D02*
X19996429Y-6018336D01*
X19996429Y-6018336D02*
X19984524Y-5994527D01*
X19984524Y-5994527D02*
X19972619Y-5982622D01*
X19972619Y-5982622D02*
X19948810Y-5970717D01*
D10*
X20146191Y-9454819D02*
X20765238Y-9454819D01*
X20765238Y-9454819D02*
X20431905Y-9835771D01*
X20431905Y-9835771D02*
X20574762Y-9835771D01*
X20574762Y-9835771D02*
X20670000Y-9883390D01*
X20670000Y-9883390D02*
X20717619Y-9931009D01*
X20717619Y-9931009D02*
X20765238Y-10026247D01*
X20765238Y-10026247D02*
X20765238Y-10264342D01*
X20765238Y-10264342D02*
X20717619Y-10359580D01*
X20717619Y-10359580D02*
X20670000Y-10407200D01*
X20670000Y-10407200D02*
X20574762Y-10454819D01*
X20574762Y-10454819D02*
X20289048Y-10454819D01*
X20289048Y-10454819D02*
X20193810Y-10407200D01*
X20193810Y-10407200D02*
X20146191Y-10359580D01*
X21193810Y-10359580D02*
X21241429Y-10407200D01*
X21241429Y-10407200D02*
X21193810Y-10454819D01*
X21193810Y-10454819D02*
X21146191Y-10407200D01*
X21146191Y-10407200D02*
X21193810Y-10359580D01*
X21193810Y-10359580D02*
X21193810Y-10454819D01*
X21717619Y-10454819D02*
X21908095Y-10454819D01*
X21908095Y-10454819D02*
X22003333Y-10407200D01*
X22003333Y-10407200D02*
X22050952Y-10359580D01*
X22050952Y-10359580D02*
X22146190Y-10216723D01*
X22146190Y-10216723D02*
X22193809Y-10026247D01*
X22193809Y-10026247D02*
X22193809Y-9645295D01*
X22193809Y-9645295D02*
X22146190Y-9550057D01*
X22146190Y-9550057D02*
X22098571Y-9502438D01*
X22098571Y-9502438D02*
X22003333Y-9454819D01*
X22003333Y-9454819D02*
X21812857Y-9454819D01*
X21812857Y-9454819D02*
X21717619Y-9502438D01*
X21717619Y-9502438D02*
X21670000Y-9550057D01*
X21670000Y-9550057D02*
X21622381Y-9645295D01*
X21622381Y-9645295D02*
X21622381Y-9883390D01*
X21622381Y-9883390D02*
X21670000Y-9978628D01*
X21670000Y-9978628D02*
X21717619Y-10026247D01*
X21717619Y-10026247D02*
X21812857Y-10073866D01*
X21812857Y-10073866D02*
X22003333Y-10073866D01*
X22003333Y-10073866D02*
X22098571Y-10026247D01*
X22098571Y-10026247D02*
X22146190Y-9978628D01*
X22146190Y-9978628D02*
X22193809Y-9883390D01*
X22622381Y-9788152D02*
X22622381Y-10454819D01*
X22622381Y-9883390D02*
X22670000Y-9835771D01*
X22670000Y-9835771D02*
X22765238Y-9788152D01*
X22765238Y-9788152D02*
X22908095Y-9788152D01*
X22908095Y-9788152D02*
X23003333Y-9835771D01*
X23003333Y-9835771D02*
X23050952Y-9931009D01*
X23050952Y-9931009D02*
X23050952Y-10454819D01*
X23527143Y-10454819D02*
X23527143Y-9454819D01*
X23527143Y-9931009D02*
X24098571Y-9931009D01*
X24098571Y-10454819D02*
X24098571Y-9454819D01*
D11*
X20958333Y-10113574D02*
X20839285Y-10113574D01*
X20839285Y-10113574D02*
X20839285Y-9863574D01*
X21172619Y-10113574D02*
X21029762Y-10113574D01*
X21101190Y-10113574D02*
X21101190Y-9863574D01*
X21101190Y-9863574D02*
X21077381Y-9899289D01*
X21077381Y-9899289D02*
X21053571Y-9923098D01*
X21053571Y-9923098D02*
X21029762Y-9935003D01*
D10*
X10564761Y-9454819D02*
X9993333Y-9454819D01*
X10279047Y-9454819D02*
X10279047Y-8454819D01*
X10279047Y-8454819D02*
X10183809Y-8597676D01*
X10183809Y-8597676D02*
X10088571Y-8692914D01*
X10088571Y-8692914D02*
X9993333Y-8740533D01*
X11421904Y-8788152D02*
X11421904Y-9454819D01*
X10993333Y-8788152D02*
X10993333Y-9311961D01*
X10993333Y-9311961D02*
X11040952Y-9407200D01*
X11040952Y-9407200D02*
X11136190Y-9454819D01*
X11136190Y-9454819D02*
X11279047Y-9454819D01*
X11279047Y-9454819D02*
X11374285Y-9407200D01*
X11374285Y-9407200D02*
X11421904Y-9359580D01*
X12231428Y-8931009D02*
X11898095Y-8931009D01*
X11898095Y-9454819D02*
X11898095Y-8454819D01*
X11898095Y-8454819D02*
X12374285Y-8454819D01*
D11*
X9958333Y-9089765D02*
X9946429Y-9101670D01*
X9946429Y-9101670D02*
X9910714Y-9113574D01*
X9910714Y-9113574D02*
X9886905Y-9113574D01*
X9886905Y-9113574D02*
X9851191Y-9101670D01*
X9851191Y-9101670D02*
X9827381Y-9077860D01*
X9827381Y-9077860D02*
X9815476Y-9054050D01*
X9815476Y-9054050D02*
X9803572Y-9006431D01*
X9803572Y-9006431D02*
X9803572Y-8970717D01*
X9803572Y-8970717D02*
X9815476Y-8923098D01*
X9815476Y-8923098D02*
X9827381Y-8899289D01*
X9827381Y-8899289D02*
X9851191Y-8875479D01*
X9851191Y-8875479D02*
X9886905Y-8863574D01*
X9886905Y-8863574D02*
X9910714Y-8863574D01*
X9910714Y-8863574D02*
X9946429Y-8875479D01*
X9946429Y-8875479D02*
X9958333Y-8887384D01*
X10184524Y-8863574D02*
X10065476Y-8863574D01*
X10065476Y-8863574D02*
X10053572Y-8982622D01*
X10053572Y-8982622D02*
X10065476Y-8970717D01*
X10065476Y-8970717D02*
X10089286Y-8958812D01*
X10089286Y-8958812D02*
X10148810Y-8958812D01*
X10148810Y-8958812D02*
X10172619Y-8970717D01*
X10172619Y-8970717D02*
X10184524Y-8982622D01*
X10184524Y-8982622D02*
X10196429Y-9006431D01*
X10196429Y-9006431D02*
X10196429Y-9065955D01*
X10196429Y-9065955D02*
X10184524Y-9089765D01*
X10184524Y-9089765D02*
X10172619Y-9101670D01*
X10172619Y-9101670D02*
X10148810Y-9113574D01*
X10148810Y-9113574D02*
X10089286Y-9113574D01*
X10089286Y-9113574D02*
X10065476Y-9101670D01*
X10065476Y-9101670D02*
X10053572Y-9089765D01*
%TO.C,C6*%
D15*
X16500000Y-16550000D02*
X17500000Y-16550000D01*
X17500000Y-17050000D01*
X16500000Y-17050000D01*
X16500000Y-16550000D01*
%TO.C,B1*%
X22000000Y-12375000D02*
X24000000Y-12375000D01*
X24000000Y-13625000D01*
X22000000Y-13625000D01*
X22000000Y-12375000D01*
%TO.C,C9*%
X20950000Y-7000000D02*
X21450000Y-7000000D01*
X21450000Y-8000000D01*
X20950000Y-8000000D01*
X20950000Y-7000000D01*
%TO.C,C4*%
X14500000Y-16550000D02*
X15500000Y-16550000D01*
X15500000Y-17050000D01*
X14500000Y-17050000D01*
X14500000Y-16550000D01*
%TO.C,TP1*%
X4000000Y-5150000D02*
X5000000Y-5150000D01*
X5000000Y-7850000D01*
X4000000Y-7850000D01*
X4000000Y-5150000D01*
%TO.C,C2*%
X9750000Y-6500000D02*
X10250000Y-6500000D01*
X10250000Y-7500000D01*
X9750000Y-7500000D01*
X9750000Y-6500000D01*
%TO.C,TP2*%
X4000000Y-9650000D02*
X5000000Y-9650000D01*
X5000000Y-12350000D01*
X4000000Y-12350000D01*
X4000000Y-9650000D01*
%TO.C,C11*%
X19500000Y-12050000D02*
X20500000Y-12050000D01*
X20500000Y-12550000D01*
X19500000Y-12550000D01*
X19500000Y-12050000D01*
%TO.C,AE1*%
X27400000Y-8400000D02*
X27400000Y-11200000D01*
X27400000Y-11200000D02*
X27800000Y-11600000D01*
X27800000Y-11600000D02*
X29000000Y-11600000D01*
X29000000Y-8400000D02*
X27400000Y-8400000D01*
X29000000Y-11600000D02*
X29000000Y-8400000D01*
%TO.C,TP5*%
X22500000Y-15150000D02*
X23500000Y-15150000D01*
X23500000Y-17850000D01*
X22500000Y-17850000D01*
X22500000Y-15150000D01*
%TO.C,R1*%
X9230000Y-13275000D02*
X9770000Y-13275000D01*
X9770000Y-14325000D01*
X9230000Y-14325000D01*
X9230000Y-13275000D01*
%TO.C,C7*%
X13950000Y-5500000D02*
X14450000Y-5500000D01*
X14450000Y-6500000D01*
X13950000Y-6500000D01*
X13950000Y-5500000D01*
%TO.C,U1*%
X13500000Y-8500000D02*
X17500000Y-8500000D01*
X17500000Y-13500000D01*
X12500000Y-13500000D01*
X12500000Y-9500000D01*
X13500000Y-8500000D01*
%TO.C,L2*%
X22750000Y-9500000D02*
X23250000Y-9500000D01*
X23250000Y-10500000D01*
X22750000Y-10500000D01*
X22750000Y-9500000D01*
%TO.C,FB1*%
X11750000Y-4700000D02*
X12250000Y-4700000D01*
X12250000Y-5700000D01*
X11750000Y-5700000D01*
X11750000Y-4700000D01*
%TO.C,C12*%
X19500000Y-13750000D02*
X20500000Y-13750000D01*
X20500000Y-14250000D01*
X19500000Y-14250000D01*
X19500000Y-13750000D01*
%TO.C,C1*%
X12750000Y-15300000D02*
X13250000Y-15300000D01*
X13250000Y-16300000D01*
X12750000Y-16300000D01*
X12750000Y-15300000D01*
%TO.C,TP3*%
X4000000Y-14150000D02*
X5000000Y-14150000D01*
X5000000Y-16850000D01*
X4000000Y-16850000D01*
X4000000Y-14150000D01*
%TO.C,J1*%
X730000Y-730000D02*
X23590000Y-730000D01*
X730000Y-2635000D02*
X730000Y-730000D01*
X1365000Y-3270000D02*
X730000Y-2635000D01*
X23590000Y-730000D02*
X23590000Y-3270000D01*
X23590000Y-3270000D02*
X1365000Y-3270000D01*
%TO.C,C3*%
X11000000Y-17550000D02*
X12000000Y-17550000D01*
X12000000Y-18050000D01*
X11000000Y-18050000D01*
X11000000Y-17550000D01*
%TO.C,C10*%
X23750000Y-10300000D02*
X24250000Y-10300000D01*
X24250000Y-11300000D01*
X23750000Y-11300000D01*
X23750000Y-10300000D01*
%TO.C,TP4*%
X7032500Y-17000000D02*
X9732500Y-17000000D01*
X9732500Y-18000000D01*
X7032500Y-18000000D01*
X7032500Y-17000000D01*
%TO.C,Y1*%
X18600000Y-4750000D02*
X18600000Y-7250000D01*
X16025000Y-7250000D01*
X15400000Y-6625000D01*
X15400000Y-4750000D01*
X18600000Y-4750000D01*
%TO.C,C8*%
X19550000Y-5500000D02*
X20050000Y-5500000D01*
X20050000Y-6500000D01*
X19550000Y-6500000D01*
X19550000Y-5500000D01*
%TO.C,L1*%
X20750000Y-9500000D02*
X21250000Y-9500000D01*
X21250000Y-10500000D01*
X20750000Y-10500000D01*
X20750000Y-9500000D01*
%TO.C,C5*%
X9750000Y-8500000D02*
X10250000Y-8500000D01*
X10250000Y-9500000D01*
X9750000Y-9500000D01*
X9750000Y-8500000D01*
%TD*%
M02*
